<svg xmlns="http://www.w3.org/2000/svg" xmlns:xlink="http://www.w3.org/1999/xlink" width="912" height="354.513" viewBox="0 0 912 354.513">
  <defs>
    <clipPath id="a">
      <path d="M140.35,92.4l1.318-15.064,46.373-8.894a2.917,2.917,0,0,0,2.211-2.5h0a1.545,1.545,0,0,0-1.889-1.781l-46.319,8.884,1.265-14.459,85.513-15.809a2.915,2.915,0,0,0,2.224-2.506h0a1.544,1.544,0,0,0-1.876-1.783L141.1,54.723a2.915,2.915,0,0,0-2.225,2.506l-3.334,38.115a1.545,1.545,0,0,0,1.876,1.783L226.3,80.739a2.915,2.915,0,0,0,2.225-2.507h0a1.545,1.545,0,0,0-1.877-1.783Z" style="fill: #fff"/>
    </clipPath>
    <clipPath id="b">
      <path d="M136.828,46.057c7.876-1.748,15.78-3.329,23.695-4.853,3.955-.777,7.92-1.494,11.88-2.239l11.9-2.146,11.913-2.055c3.977-.653,7.948-1.337,11.93-1.959,7.959-1.276,15.928-2.492,23.926-3.541-7.875,1.749-15.779,3.332-23.694,4.855-3.955.778-7.92,1.493-11.881,2.239L184.6,38.5l-11.913,2.052c-3.977.654-7.948,1.337-11.93,1.959C152.795,43.789,144.826,45.006,136.828,46.057Z" style="fill: #fff"/>
    </clipPath>
    <clipPath id="c">
      <path d="M149.956,63.7c6.638-1.5,13.3-2.848,19.979-4.142,3.335-.662,6.68-1.268,10.02-1.9l10.035-1.813,10.049-1.731c3.355-.547,6.705-1.123,10.065-1.642,6.715-1.067,13.44-2.079,20.192-2.938-6.638,1.5-13.3,2.851-19.979,4.145-3.335.662-6.68,1.266-10.02,1.9l-10.035,1.812-10.05,1.728c-3.355.548-6.7,1.123-10.065,1.642C163.432,61.827,156.707,62.841,149.956,63.7Z" style="fill: #fff"/>
    </clipPath>
    <clipPath id="d">
      <path d="M148.533,83.911c6.639-1.5,13.305-2.848,19.979-4.143,3.335-.661,6.68-1.267,10.02-1.9l10.035-1.814,10.05-1.73c3.355-.547,6.705-1.124,10.065-1.642,6.715-1.067,13.44-2.08,20.191-2.938-6.638,1.5-13.3,2.851-19.978,4.145-3.335.662-6.68,1.266-10.02,1.9L188.84,77.6l-10.05,1.729c-3.355.548-6.706,1.122-10.066,1.641C162.009,82.037,155.285,83.05,148.533,83.911Z" style="fill: #fff"/>
    </clipPath>
    <clipPath id="e">
      <path d="M129.871,107.16c7.875-1.747,15.78-3.329,23.694-4.852,3.955-.778,7.92-1.5,11.881-2.24l11.9-2.146,11.913-2.055c3.976-.652,7.947-1.337,11.929-1.959,7.959-1.276,15.928-2.492,23.927-3.541-7.875,1.75-15.78,3.332-23.695,4.855-3.954.778-7.92,1.493-11.88,2.24l-11.9,2.143-11.913,2.053c-3.976.654-7.948,1.336-11.93,1.958C145.838,104.892,137.869,106.109,129.871,107.16Z" style="fill: #fff"/>
    </clipPath>
  </defs>
  <title>fullLogo</title>
  <g>
    <text transform="translate(0.187 328.966)" style="font-size: 48px;fill: #fff;font-family: SFCompactDisplay-Regular, SF Compact Display"><tspan style="letter-spacing: 0.00927734375em">t</tspan><tspan x="16.617" y="0">he p</tspan><tspan x="105.82" y="0" style="letter-spacing: -0.00048828125em">r</tspan><tspan x="122.039" y="0">o in </tspan><tspan x="206.273" y="0" style="letter-spacing: -0.0009765625em">y</tspan><tspan x="228.703" y="0">our poc</tspan><tspan x="385.688" y="0" style="letter-spacing: -0.001953125em">k</tspan><tspan x="408.375" y="0">e</tspan><tspan x="433.781" y="0" style="letter-spacing: 0.01904296875em">t</tspan><tspan x="450.867" y="0">, on and </tspan><tspan x="622.078" y="0" style="letter-spacing: -0.00048828125em">o</tspan><tspan x="648.422" y="0" style="letter-spacing: 0.013671875em">f</tspan><tspan x="664.969" y="0">f </tspan><tspan x="690.469" y="0" style="letter-spacing: 0.00927734375em">t</tspan><tspan x="707.086" y="0">he course</tspan></text>
    <g>
      <path d="M306.7,88.567c1.881,10.087,11.541,17.012,25.989,17.012,15.3,0,24.193-7.181,24.193-18.124,0-8.8-5.9-13.593-18.551-16.67L319.179,66c-17.781-4.275-28.553-14.876-28.553-31.46,0-20.6,17.44-34.538,42.146-34.538,24.877,0,40.436,13.849,41.89,31.716H355.854C353.973,22.4,345.6,15.9,332.6,15.9c-13.764,0-22.484,7.181-22.484,17.525,0,7.609,5.728,12.738,16.158,15.217l19.064,4.7c19.662,4.788,30.947,14.191,30.947,32.4,0,21.458-16.756,35.82-45.053,35.82-27.185,0-42.231-14.362-43.6-33Z" style="fill: #fff"/>
      <path d="M415.06,119.257,383.6,2.565h21.543l19.406,88.823h.941l21.8-88.823H464.9l21.714,88.823h1.026L506.961,2.565H528.5l-31.46,116.692H479.433l-23-86.429h-.77l-23,86.429Z" style="fill: #fff"/>
      <path d="M541.717,119.257V2.565h19.406V119.257Z" style="fill: #fff"/>
      <path d="M586.647,119.257V2.565h17.1L658.2,86.344h.855V2.565h18.637V119.257H660.68L606.053,35.221h-.77v84.036Z" style="fill: #fff"/>
      <path d="M772.12,35.905c-2.65-11.455-11.883-19.064-25.476-19.064-18.038,0-28.553,13.422-28.553,36.162V68.22c0,22.655,9.917,36.76,29.152,36.76,17.269,0,26.074-10,26.074-23.167V72.58H746.473v-15.3h45.481v23.68c0,22.569-15.217,40.607-44.8,40.607-31.887,0-48.643-20.773-48.643-53.259V52.918c0-31.888,18.038-52.662,48.472-52.662,25.647,0,41.805,15.388,44.284,35.649Z" style="fill: #fff"/>
      <g>
        <path d="M72.837,256.821H0V140.129H72.837v16.328H19.321v33.255H69.674v15.645H19.321v35.136H72.837Z" style="fill: #fff"/>
        <path d="M105.712,226.131c1.881,10.087,11.541,17.012,25.989,17.012,15.3,0,24.193-7.181,24.193-18.124,0-8.805-5.9-13.592-18.551-16.67l-19.149-4.787c-17.782-4.275-28.554-14.876-28.554-31.46,0-20.6,17.44-34.538,42.146-34.538,24.878,0,40.437,13.849,41.89,31.716H154.869c-1.881-9.318-10.259-15.815-23.253-15.815-13.764,0-22.484,7.181-22.484,17.525,0,7.609,5.728,12.738,16.157,15.217l19.064,4.7c19.663,4.788,30.947,14.191,30.947,32.4,0,21.458-16.755,35.82-45.052,35.82-27.186,0-42.232-14.362-43.6-33Z" style="fill: #fff"/>
        <path d="M206.124,226.131c1.881,10.087,11.541,17.012,25.989,17.012,15.3,0,24.193-7.181,24.193-18.124,0-8.805-5.9-13.592-18.551-16.67l-19.15-4.787c-17.781-4.275-28.553-14.876-28.553-31.46,0-20.6,17.44-34.538,42.146-34.538,24.877,0,40.436,13.849,41.89,31.716H255.28c-1.881-9.318-10.258-15.815-23.253-15.815-13.764,0-22.483,7.181-22.483,17.525,0,7.609,5.727,12.738,16.157,15.217l19.064,4.7c19.663,4.788,30.947,14.191,30.947,32.4,0,21.458-16.756,35.82-45.053,35.82-27.185,0-42.231-14.362-43.6-33Z" style="fill: #fff"/>
        <path d="M368.174,256.821H295.337V140.129h72.837v16.328H314.658v33.255h50.353v15.645H314.658v35.136h53.516Z" style="fill: #fff"/>
        <path d="M389.85,256.821V140.129h17.1l54.457,83.779h.854V140.129H480.9V256.821H463.884l-54.628-84.036h-.769v84.036Z" style="fill: #fff"/>
        <path d="M528.989,256.821V156.714h-34.11V140.129H582.59v16.585H548.4V256.821Z" style="fill: #fff"/>
        <path d="M596.488,256.821V140.129h19.406V256.821Z" style="fill: #fff"/>
        <path d="M629.962,256.821l40.18-116.692H691.77l40.18,116.692H711.433l-10.344-32.315h-40.95l-10.344,32.315ZM680.229,160.3,664.5,209.631h32.23L681.084,160.3Z" style="fill: #fff"/>
        <path d="M816.8,256.821H746.018V140.129h19.406V239.98H816.8Z" style="fill: #fff"/>
        <path d="M842.412,226.131c1.881,10.087,11.541,17.012,25.989,17.012,15.3,0,24.193-7.181,24.193-18.124,0-8.805-5.9-13.592-18.551-16.67l-19.15-4.787c-17.781-4.275-28.553-14.876-28.553-31.46,0-20.6,17.44-34.538,42.146-34.538,24.877,0,40.436,13.849,41.89,31.716H891.568c-1.881-9.318-10.259-15.815-23.253-15.815-13.764,0-22.483,7.181-22.483,17.525,0,7.609,5.727,12.738,16.157,15.217l19.064,4.7C900.715,195.7,912,205.1,912,223.309c0,21.458-16.756,35.82-45.053,35.82-27.185,0-42.231-14.362-43.6-33Z" style="fill: #fff"/>
      </g>
      <g>
        <path d="M131.173,6.522c-2.445.984-4.888,1.965-7.3,3.014s-4.817,2.112-7.185,3.246a141.666,141.666,0,0,0-13.817,7.436,73.1,73.1,0,0,0-12.322,9.326,34.54,34.54,0,0,0-4.837,5.72,20.455,20.455,0,0,0-1.721,3.159,13.246,13.246,0,0,0-.965,3.264c-.051.271-.062.539-.092.806-.009.265-.028.531-.015.79a7.075,7.075,0,0,0,.183,1.5,5.474,5.474,0,0,0,1.244,2.451,3.964,3.964,0,0,0,2.07,1.236,3.254,3.254,0,0,0,.547.063,1.81,1.81,0,0,0,.266-.005l.066,0a.616.616,0,0,0,.081-.006l.231-.027c.618-.073,1.234-.143,1.852-.244a63.059,63.059,0,0,0,7.387-1.594c2.452-.67,4.889-1.458,7.314-2.312,4.856-1.7,9.661-3.665,14.449-5.728q3.6-1.538,7.183-3.142l7.186-3.214c9.591-4.315,19.251-8.651,29.1-12.666s19.9-7.713,30.182-10.84a240.094,240.094,0,0,1,31.512-7.4c2.678-.424,5.365-.816,8.063-1.141l.506-.062.127-.016.15-.016.365-.034c.484-.051.982-.067,1.476-.083a19.447,19.447,0,0,1,3.01.2,18.925,18.925,0,0,1,5.712,1.807,21.685,21.685,0,0,1,2.474,1.455,25.11,25.11,0,0,1,2.166,1.681c.672.589,1.3,1.2,1.887,1.823s1.13,1.263,1.642,1.91a42.25,42.25,0,0,1,4.879,7.988,65.013,65.013,0,0,1,3.2,8.171c.875,2.734,1.592,5.475,2.2,8.219a123.247,123.247,0,0,1,2.4,16.5,138.488,138.488,0,0,1,.3,16.565,110.285,110.285,0,0,1-1.918,16.649,72.69,72.69,0,0,1-2.166,8.386c-.461,1.4-.983,2.807-1.591,4.216a38.088,38.088,0,0,1-2.123,4.23,26.934,26.934,0,0,1-3,4.187,19.383,19.383,0,0,1-2.022,1.993c-.18.161-.383.316-.577.472l-.148.116c-.044.036-.1.078-.176.133l-.422.3a15.618,15.618,0,0,1-1.4.835c-.845.448-1.59.777-2.319,1.08s-1.43.568-2.12.813c-1.382.5-2.727.919-4.067,1.32-2.675.793-5.321,1.46-7.965,2.083s-5.282,1.182-7.924,1.695-5.283.989-7.927,1.429-5.292.833-7.942,1.2c-10.6,1.462-21.245,2.428-31.924,2.835a251.581,251.581,0,0,1-32.059-.7c-2.667-.235-5.33-.542-7.986-.9s-5.3-.776-7.944-1.261a121.111,121.111,0,0,1-15.615-3.935c-2.552-.844-5.071-1.794-7.538-2.862-1.229-.547-2.447-1.116-3.646-1.723s-2.378-1.251-3.537-1.929a51.608,51.608,0,0,1-6.583-4.6A38.658,38.658,0,0,1,86.1,96.73a46.758,46.758,0,0,0,13.152,8.352c1.188.518,2.391,1,3.6,1.444s2.444.85,3.678,1.232q3.7,1.145,7.5,1.95t7.63,1.375c2.56.374,5.13.668,7.707.9,5.153.488,10.335.69,15.518.74a285.543,285.543,0,0,0,31.081-1.558c10.332-1.051,20.625-2.534,30.817-4.429q3.822-.713,7.619-1.509t7.559-1.677c2.5-.6,5-1.216,7.461-1.885s4.9-1.385,7.248-2.158c1.171-.389,2.326-.793,3.411-1.218.544-.212,1.064-.43,1.549-.648a13.85,13.85,0,0,0,1.242-.621,2.44,2.44,0,0,0,.29-.185.055.055,0,0,0-.024.012l.019-.018.045-.039c.059-.054.12-.1.18-.16a7.906,7.906,0,0,0,.76-.8,12.615,12.615,0,0,0,.775-1.04q.382-.577.747-1.231a31.922,31.922,0,0,0,2.459-6.061,59.826,59.826,0,0,0,1.645-6.934,101.977,101.977,0,0,0,1.463-14.731,128.859,128.859,0,0,0-.4-15A112.578,112.578,0,0,0,248.659,36.1c-.524-2.4-1.137-4.757-1.86-7.04a55.887,55.887,0,0,0-2.516-6.544,29.274,29.274,0,0,0-3.267-5.5,11.95,11.95,0,0,0-3.716-3.344,5.91,5.91,0,0,0-1.773-.605,6.446,6.446,0,0,0-.925-.078c-.163.007-.325,0-.5.021l-.127.008c-.014,0-.053,0-.095.009l-.119.013-.475.052c-2.534.258-5.066.578-7.594.93a254.014,254.014,0,0,0-30.13,6.268c-9.965,2.678-19.842,5.866-29.67,9.344s-19.622,7.226-29.5,10.937c-9.887,3.694-19.863,7.387-30.293,10.164-2.613.677-5.259,1.277-7.943,1.764A64.744,64.744,0,0,1,89.976,53.5c-.691.044-1.388.056-2.084.068l-.261.005h-.347a6.382,6.382,0,0,1-.72-.038,8.267,8.267,0,0,1-1.4-.261,8.823,8.823,0,0,1-4.453-2.987,10.132,10.132,0,0,1-2.054-4.631,11.555,11.555,0,0,1-.158-2.422c.007-.4.052-.79.091-1.181.06-.384.107-.773.2-1.146a16.218,16.218,0,0,1,.622-2.186,19.4,19.4,0,0,1,.884-2.028,24.4,24.4,0,0,1,2.275-3.64,38.12,38.12,0,0,1,5.71-6,60.127,60.127,0,0,1,6.5-4.829c2.251-1.462,4.565-2.8,6.917-4.05a135.374,135.374,0,0,1,14.492-6.544C121.121,9.719,126.128,8.045,131.173,6.522Z" style="fill: #fff"/>
        <g>
          <path d="M140.35,92.4l1.318-15.064,46.373-8.894a2.917,2.917,0,0,0,2.211-2.5h0a1.545,1.545,0,0,0-1.889-1.781l-46.319,8.884,1.265-14.459,85.513-15.809a2.915,2.915,0,0,0,2.224-2.506h0a1.544,1.544,0,0,0-1.876-1.783L141.1,54.723a2.915,2.915,0,0,0-2.225,2.506l-3.334,38.115a1.545,1.545,0,0,0,1.876,1.783L226.3,80.739a2.915,2.915,0,0,0,2.225-2.507h0a1.545,1.545,0,0,0-1.877-1.783Z" style="fill: #fff"/>
          <g style="clip-path: url(#a)">
            <rect x="135.438" y="38.269" width="0.096" height="59.066" style="fill: #fff"/>
            <rect x="135.533" y="38.269" width="95.521" height="59.066" style="fill: #fff"/>
            <rect x="231.055" y="38.269" width="0.096" height="59.066" style="fill: #fff"/>
          </g>
        </g>
        <g>
          <path d="M136.828,46.057c7.876-1.748,15.78-3.329,23.695-4.853,3.955-.777,7.92-1.494,11.88-2.239l11.9-2.146,11.913-2.055c3.977-.653,7.948-1.337,11.93-1.959,7.959-1.276,15.928-2.492,23.926-3.541-7.875,1.749-15.779,3.332-23.694,4.855-3.955.778-7.92,1.493-11.881,2.239L184.6,38.5l-11.913,2.052c-3.977.654-7.948,1.337-11.93,1.959C152.795,43.789,144.826,45.006,136.828,46.057Z" style="fill: #fff"/>
          <g style="clip-path: url(#b)">
            <rect x="136.828" y="29.264" width="95.241" height="16.794" style="fill: #fff"/>
          </g>
        </g>
        <g>
          <path d="M149.956,63.7c6.638-1.5,13.3-2.848,19.979-4.142,3.335-.662,6.68-1.268,10.02-1.9l10.035-1.813,10.049-1.731c3.355-.547,6.705-1.123,10.065-1.642,6.715-1.067,13.44-2.079,20.192-2.938-6.638,1.5-13.3,2.851-19.979,4.145-3.335.662-6.68,1.266-10.02,1.9l-10.035,1.812-10.05,1.728c-3.355.548-6.7,1.123-10.065,1.642C163.432,61.827,156.707,62.841,149.956,63.7Z" style="fill: #fff"/>
          <g style="clip-path: url(#c)">
            <rect x="149.956" y="49.535" width="80.34" height="14.166" style="fill: #fff"/>
          </g>
        </g>
        <g>
          <path d="M148.533,83.911c6.639-1.5,13.305-2.848,19.979-4.143,3.335-.661,6.68-1.267,10.02-1.9l10.035-1.814,10.05-1.73c3.355-.547,6.705-1.124,10.065-1.642,6.715-1.067,13.44-2.08,20.191-2.938-6.638,1.5-13.3,2.851-19.978,4.145-3.335.662-6.68,1.266-10.02,1.9L188.84,77.6l-10.05,1.729c-3.355.548-6.706,1.122-10.066,1.641C162.009,82.037,155.285,83.05,148.533,83.911Z" style="fill: #fff"/>
          <g style="clip-path: url(#d)">
            <rect x="148.533" y="69.745" width="80.34" height="14.166" style="fill: #fff"/>
          </g>
        </g>
        <g>
          <path d="M129.871,107.16c7.875-1.747,15.78-3.329,23.694-4.852,3.955-.778,7.92-1.5,11.881-2.24l11.9-2.146,11.913-2.055c3.976-.652,7.947-1.337,11.929-1.959,7.959-1.276,15.928-2.492,23.927-3.541-7.875,1.75-15.78,3.332-23.695,4.855-3.954.778-7.92,1.493-11.88,2.24l-11.9,2.143-11.913,2.053c-3.976.654-7.948,1.336-11.93,1.958C145.838,104.892,137.869,106.109,129.871,107.16Z" style="fill: #fff"/>
          <g style="clip-path: url(#e)">
            <rect x="129.871" y="90.367" width="95.241" height="16.794" style="fill: #fff"/>
          </g>
        </g>
      </g>
      <path d="M902,142.918v-.695a5.012,5.012,0,0,1,10,0v.695a5,5,0,0,1-10,0Zm8.829-.013v-.67a3.828,3.828,0,0,0-7.634,0v.67a3.82,3.82,0,0,0,7.634,0Zm-5.756,2.025V140.1h2.415a1.515,1.515,0,0,1,1.658,1.512,1.457,1.457,0,0,1-.951,1.439l1.134,1.878h-1.378l-.975-1.707h-.72v1.707Zm1.2-2.561h.744c.439,0,.9-.122.9-.695,0-.427-.281-.659-.8-.659h-.842Z" style="fill: #fff"/>
    </g>
  </g>
</svg>
