<svg xmlns="http://www.w3.org/2000/svg" width="912" height="354.449" viewBox="0 0 912 354.449">
  <title>fullLogo</title>
  <g>
    <text transform="translate(0.187 328.902)" style="font-size: 48px;fill: #fff;font-family: SFCompactDisplay-Regular, SF Compact Display"><tspan style="letter-spacing: 0.00927734375em">t</tspan><tspan x="16.617" y="0">he p</tspan><tspan x="105.82" y="0" style="letter-spacing: -0.00048828125em">r</tspan><tspan x="122.039" y="0">o in </tspan><tspan x="206.273" y="0" style="letter-spacing: -0.0009765625em">y</tspan><tspan x="228.703" y="0">our poc</tspan><tspan x="385.688" y="0" style="letter-spacing: -0.001953125em">k</tspan><tspan x="408.375" y="0">e</tspan><tspan x="433.781" y="0" style="letter-spacing: 0.01904296875em">t</tspan><tspan x="450.867" y="0">, on and </tspan><tspan x="622.078" y="0" style="letter-spacing: -0.00048828125em">o</tspan><tspan x="648.422" y="0" style="letter-spacing: 0.013671875em">f</tspan><tspan x="664.969" y="0">f </tspan><tspan x="690.469" y="0" style="letter-spacing: 0.00927734375em">t</tspan><tspan x="707.086" y="0">he course</tspan></text>
    <g>
      <g>
        <path d="M72.837,256.821H0V140.129H72.837v16.328H19.321v33.255H69.674v15.645H19.321v35.136H72.837Z" style="fill: #fff"/>
        <path d="M105.712,226.131c1.881,10.087,11.541,17.012,25.989,17.012,15.3,0,24.193-7.181,24.193-18.124,0-8.805-5.9-13.592-18.551-16.67l-19.149-4.787c-17.782-4.275-28.554-14.876-28.554-31.46,0-20.6,17.44-34.538,42.146-34.538,24.878,0,40.437,13.849,41.89,31.716H154.869c-1.881-9.318-10.259-15.815-23.253-15.815-13.764,0-22.484,7.181-22.484,17.525,0,7.609,5.728,12.738,16.157,15.217l19.064,4.7c19.663,4.788,30.947,14.191,30.947,32.4,0,21.458-16.755,35.82-45.052,35.82-27.186,0-42.232-14.362-43.6-33Z" style="fill: #fff"/>
        <path d="M206.124,226.131c1.881,10.087,11.541,17.012,25.989,17.012,15.3,0,24.193-7.181,24.193-18.124,0-8.805-5.9-13.592-18.551-16.67l-19.15-4.787c-17.781-4.275-28.553-14.876-28.553-31.46,0-20.6,17.44-34.538,42.146-34.538,24.877,0,40.436,13.849,41.89,31.716H255.28c-1.881-9.318-10.258-15.815-23.253-15.815-13.764,0-22.483,7.181-22.483,17.525,0,7.609,5.727,12.738,16.157,15.217l19.064,4.7c19.663,4.788,30.947,14.191,30.947,32.4,0,21.458-16.756,35.82-45.053,35.82-27.185,0-42.231-14.362-43.6-33Z" style="fill: #fff"/>
        <path d="M368.174,256.821H295.337V140.129h72.837v16.328H314.658v33.255h50.353v15.645H314.658v35.136h53.516Z" style="fill: #fff"/>
        <path d="M389.85,256.821V140.129h17.1l54.457,83.779h.854V140.129H480.9V256.821H463.884l-54.628-84.036h-.769v84.036Z" style="fill: #fff"/>
        <path d="M528.989,256.821V156.714h-34.11V140.129H582.59v16.585H548.4V256.821Z" style="fill: #fff"/>
        <path d="M596.488,256.821V140.129h19.406V256.821Z" style="fill: #fff"/>
        <path d="M629.962,256.821l40.18-116.692H691.77l40.18,116.692H711.433l-10.344-32.315h-40.95l-10.344,32.315ZM680.229,160.3,664.5,209.631h32.23L681.084,160.3Z" style="fill: #fff"/>
        <path d="M816.8,256.821H746.018V140.129h19.406V239.98H816.8Z" style="fill: #fff"/>
        <path d="M842.412,226.131c1.881,10.087,11.541,17.012,25.989,17.012,15.3,0,24.193-7.181,24.193-18.124,0-8.805-5.9-13.592-18.551-16.67l-19.15-4.787c-17.781-4.275-28.553-14.876-28.553-31.46,0-20.6,17.44-34.538,42.146-34.538,24.877,0,40.436,13.849,41.89,31.716H891.568c-1.881-9.318-10.259-15.815-23.253-15.815-13.764,0-22.483,7.181-22.483,17.525,0,7.609,5.727,12.738,16.157,15.217l19.064,4.7C900.715,195.7,912,205.1,912,223.309c0,21.458-16.756,35.82-45.053,35.82-27.185,0-42.231-14.362-43.6-33Z" style="fill: #fff"/>
      </g>
      <g>
        <path d="M295.278,88.567c1.88,10.087,11.541,17.012,25.988,17.012,15.3,0,24.194-7.181,24.194-18.124,0-8.8-5.9-13.593-18.552-16.67L307.759,66c-17.782-4.275-28.553-14.876-28.553-31.46C279.206,13.935,296.645,0,321.352,0c24.877,0,40.436,13.849,41.889,31.716H344.434C342.553,22.4,334.175,15.9,321.181,15.9c-13.764,0-22.484,7.181-22.484,17.525,0,7.609,5.728,12.738,16.158,15.217l19.064,4.7c19.662,4.788,30.947,14.191,30.947,32.4,0,21.458-16.756,35.82-45.053,35.82-27.186,0-42.232-14.362-43.6-33Z" style="fill: #fff"/>
        <path d="M403.64,119.257,372.18,2.565h21.543l19.406,88.823h.94l21.8-88.823H453.48l21.714,88.823h1.026L495.54,2.565h21.544l-31.46,116.692H468.013l-23-86.429h-.769l-23,86.429Z" style="fill: #fff"/>
        <path d="M530.3,119.257V2.565H549.7V119.257Z" style="fill: #fff"/>
        <path d="M575.227,119.257V2.565h17.1l54.457,83.779h.855V2.565h18.636V119.257H649.26L594.633,35.221h-.77v84.036Z" style="fill: #fff"/>
        <path d="M760.7,35.905c-2.65-11.455-11.883-19.064-25.476-19.064-18.038,0-28.553,13.422-28.553,36.162V68.22c0,22.655,9.916,36.76,29.152,36.76,17.268,0,26.074-10,26.074-23.167V72.58H735.053v-15.3h45.48v23.68c0,22.569-15.217,40.607-44.8,40.607-31.887,0-48.643-20.773-48.643-53.259V52.918c0-31.888,18.038-52.662,48.472-52.662,25.647,0,41.8,15.388,44.283,35.649Z" style="fill: #fff"/>
        <g>
          <path d="M192.249,0a60.783,60.783,0,1,0,60.783,60.783A60.782,60.782,0,0,0,192.249,0Z" style="fill: #fff"/>
          <g>
            <path d="M226.134,82.613a4.167,4.167,0,0,0-3.246-1.378,4.221,4.221,0,0,0-3.281,1.4q-1.251,1.393-1.241,4.657l.017,4.895-23.064.079-.046-13.274,7.938-.027q.012,3.572.677,4.584a4.537,4.537,0,0,0,7.674.062,7.613,7.613,0,0,0,.692-3.972l-.035-10.407q-.012-3.264-1.273-4.649a4.174,4.174,0,0,0-3.246-1.378,4.342,4.342,0,0,0-3.874,2.174q-.657,1.017-.646,4.545l-7.938.027L195.2,56.9l21.08-.072.017,4.719q.01,3.264,1.272,4.626a4.253,4.253,0,0,0,3.291,1.356,4.154,4.154,0,0,0,3.258-1.4q1.23-1.394,1.219-4.613l-.047-13.759-37.269.087a14.485,14.485,0,0,0-1.806-.938,53.691,53.691,0,0,0-10.683-2.963,65.7,65.7,0,0,1-8.452-1.955,7.587,7.587,0,0,1-3.426-2.436,5.354,5.354,0,0,1-1.18-3.237q-.009-2.471,2.828-4.751a12.069,12.069,0,0,1,7.732-2.3,14.325,14.325,0,0,1,5.914,1.127,9.673,9.673,0,0,1,3.846,2.809,8.318,8.318,0,0,1,1.246,3.215,5.085,5.085,0,0,0,1.466,2.994,4.442,4.442,0,0,0,2.914,1,4.167,4.167,0,0,0,3.236-1.4q1.253-1.394,1.241-4.657l-.023-6.791q-.011-3.22-1.273-4.605a4.174,4.174,0,0,0-3.246-1.378,5.135,5.135,0,0,0-3.522,1.732,18.071,18.071,0,0,0-5.41-2.341,25.729,25.729,0,0,0-6.464-.749q-8.688.03-14.095,4.921t-5.386,11.375a14.138,14.138,0,0,0,2.231,7.622,14.973,14.973,0,0,0,6.017,5.448,42.687,42.687,0,0,0,11.213,3.269,60.619,60.619,0,0,1,7.9,1.781,8.614,8.614,0,0,1,3.889,2.434,4.942,4.942,0,0,1,1.2,3.149,5.047,5.047,0,0,1-2.455,4.242,16.448,16.448,0,0,1-9.913,2.857,17.814,17.814,0,0,1-7.15-1.387,13.949,13.949,0,0,1-4.551-2.763,7.485,7.485,0,0,1-1.2-2.664,5.3,5.3,0,0,0-1.664-2.794,4.214,4.214,0,0,0-2.671-.829,4.269,4.269,0,0,0-3.324,1.4q-1.253,1.394-1.241,4.657l.021,6.086q.011,3.219,1.272,4.6a4.271,4.271,0,0,0,3.335,1.378,3.684,3.684,0,0,0,1.784-.4,7.983,7.983,0,0,0,1.912-1.815,30.224,30.224,0,0,0,6.911,2.689,29.517,29.517,0,0,0,7.3.879,25.79,25.79,0,0,0,11.919-2.715l.064,18.653-1.411.005q-3.219.01-4.626,1.273a4.143,4.143,0,0,0-1.4,3.246,4.225,4.225,0,0,0,1.4,3.281q1.393,1.251,4.657,1.241l42.557-.146-.048-13.936Q227.4,84,226.134,82.613Z" style="fill: #242062"/>
            <path d="M227.926,101.665l-43.027.148c-2.317.008-3.945-.437-4.974-1.361a4.7,4.7,0,0,1-1.556-3.629,4.607,4.607,0,0,1,1.557-3.6c1.035-.93,2.651-1.386,4.939-1.393l.94,0L185.746,74.4A26.707,26.707,0,0,1,174.3,76.829a30.013,30.013,0,0,1-7.418-.893,30.63,30.63,0,0,1-6.682-2.553,7.494,7.494,0,0,1-1.8,1.636,4.164,4.164,0,0,1-2.011.46,4.747,4.747,0,0,1-3.684-1.53c-.931-1.023-1.387-2.633-1.4-4.92l-.021-6.086c-.008-2.317.437-3.945,1.361-4.974a4.756,4.756,0,0,1,3.674-1.556,4.7,4.7,0,0,1,2.96.927,5.782,5.782,0,0,1,1.827,3.033,6.784,6.784,0,0,0,1.1,2.486A13.654,13.654,0,0,0,166.6,65.5a17.408,17.408,0,0,0,6.962,1.348,16.056,16.056,0,0,0,9.636-2.765,4.572,4.572,0,0,0,2.263-3.861,4.44,4.44,0,0,0-1.095-2.854,8.21,8.21,0,0,0-3.683-2.288,60.485,60.485,0,0,0-7.827-1.761,43.311,43.311,0,0,1-11.342-3.313,15.49,15.49,0,0,1-6.2-5.616,14.656,14.656,0,0,1-2.3-7.872c-.015-4.441,1.849-8.385,5.54-11.724s8.526-5.023,14.41-5.044a26.288,26.288,0,0,1,6.581.764,18.711,18.711,0,0,1,5.237,2.2,5.39,5.39,0,0,1,3.577-1.609,4.647,4.647,0,0,1,3.6,1.531c.932,1.022,1.387,2.632,1.4,4.92l.024,6.791c.008,2.318-.437,3.945-1.362,4.974a4.648,4.648,0,0,1-3.585,1.556,4.917,4.917,0,0,1-3.212-1.11,5.446,5.446,0,0,1-1.628-3.258,7.876,7.876,0,0,0-1.159-3.026,9.224,9.224,0,0,0-3.666-2.669,13.888,13.888,0,0,0-5.72-1.086,11.662,11.662,0,0,0-7.438,2.194c-1.767,1.419-2.659,2.894-2.653,4.382a4.918,4.918,0,0,0,1.085,2.957,7.16,7.16,0,0,0,3.219,2.28,66.55,66.55,0,0,0,8.372,1.932A54.38,54.38,0,0,1,186.4,46.472a15.318,15.318,0,0,1,1.748.9l37.607-.088.049,14.229c.008,2.286-.43,3.9-1.337,4.926A4.62,4.62,0,0,1,220.857,68a4.718,4.718,0,0,1-3.636-1.507c-.933-1.007-1.39-2.624-1.4-4.943l-.015-4.249-20.139.069.041,12.113,7-.024c.022-2.2.258-3.617.72-4.331a4.8,4.8,0,0,1,4.266-2.389,4.647,4.647,0,0,1,3.6,1.531c.932,1.022,1.387,2.647,1.395,4.964l.036,10.408c.007,2.087-.247,3.473-.776,4.24a5,5,0,0,1-8.456-.076c-.464-.706-.711-2.138-.747-4.365l-7,.024.043,12.333,22.124-.076-.016-4.424c-.008-2.318.437-3.945,1.361-4.974a4.7,4.7,0,0,1,3.63-1.556,4.65,4.65,0,0,1,3.6,1.531c.931,1.023,1.387,2.647,1.4,4.964Zm-43.058-8.893c-2.018.007-3.468.394-4.315,1.153a3.664,3.664,0,0,0-1.243,2.894,3.739,3.739,0,0,0,1.245,2.932c.835.751,2.295,1.128,4.341,1.121l42.086-.144-.046-13.465c-.007-2.046-.394-3.5-1.15-4.333a3.693,3.693,0,0,0-2.9-1.225,3.741,3.741,0,0,0-2.932,1.245c-.751.835-1.128,2.3-1.121,4.34l.019,5.366-24.006.082L194.8,78.523l8.879-.03,0,.47c.01,2.837.331,3.918.6,4.327a4.066,4.066,0,0,0,6.891.057c.285-.412.62-1.385.612-3.706l-.035-10.408c-.008-2.045-.395-3.5-1.151-4.333a3.689,3.689,0,0,0-2.9-1.224,3.866,3.866,0,0,0-3.478,1.954c-.268.416-.583,1.492-.573,4.292l0,.471-8.879.03-.048-13.994,22.021-.076.017,5.189c.007,2.044.393,3.494,1.147,4.309a3.778,3.778,0,0,0,2.944,1.2,3.678,3.678,0,0,0,2.909-1.241c.737-.835,1.107-2.283,1.1-4.3l-.045-13.289-36.933.086-.112-.07a14.475,14.475,0,0,0-1.749-.909A53.637,53.637,0,0,0,175.441,44.4a65.081,65.081,0,0,1-8.541-1.981,8.074,8.074,0,0,1-3.625-2.59A5.826,5.826,0,0,1,162,36.313c-.006-1.79,1-3.511,3-5.118a12.575,12.575,0,0,1,8.026-2.4,14.85,14.85,0,0,1,6.106,1.166,10.2,10.2,0,0,1,4.029,2.954,8.656,8.656,0,0,1,1.331,3.4,4.684,4.684,0,0,0,1.294,2.721,3.96,3.96,0,0,0,2.625.908A3.691,3.691,0,0,0,191.3,38.7c.751-.835,1.128-2.3,1.121-4.34l-.024-6.792c-.006-2.016-.394-3.459-1.15-4.288a3.689,3.689,0,0,0-2.9-1.225,4.706,4.706,0,0,0-3.194,1.6l-.269.266-.317-.207a17.637,17.637,0,0,0-5.271-2.278,25.353,25.353,0,0,0-6.345-.736c-5.645.02-10.283,1.634-13.782,4.8a14.472,14.472,0,0,0-5.23,11.025,13.737,13.737,0,0,0,2.158,7.372,14.552,14.552,0,0,0,5.832,5.28,42.435,42.435,0,0,0,11.083,3.225A60.416,60.416,0,0,1,181,54.2a9.118,9.118,0,0,1,4.09,2.579,5.425,5.425,0,0,1,1.307,3.445,5.51,5.51,0,0,1-2.656,4.628,16.964,16.964,0,0,1-10.181,2.942,18.33,18.33,0,0,1-7.336-1.425,14.25,14.25,0,0,1-4.709-2.872,7.814,7.814,0,0,1-1.309-2.853,4.884,4.884,0,0,0-1.5-2.556,3.743,3.743,0,0,0-2.382-.731,3.789,3.789,0,0,0-2.976,1.245c-.751.835-1.128,2.3-1.121,4.341l.021,6.086c.007,2.015.394,3.458,1.15,4.288a3.793,3.793,0,0,0,2.985,1.225,3.222,3.222,0,0,0,1.559-.346,7.309,7.309,0,0,0,1.778-1.7l.245-.293.339.181a29.806,29.806,0,0,0,6.8,2.647,29.17,29.17,0,0,0,7.186.865A25.452,25.452,0,0,0,186,73.226l.684-.353.068,19.893Z" style="fill: #b5a232"/>
          </g>
          <path d="M192.249,1.321a59.462,59.462,0,1,1-59.461,59.462A59.53,59.53,0,0,1,192.249,1.321m0-1.321a60.783,60.783,0,1,0,60.783,60.783A60.782,60.782,0,0,0,192.249,0Z" style="fill: #b5a232"/>
        </g>
      </g>
      <path d="M901.8,143.026v-.709a5.114,5.114,0,0,1,10.2,0v.709a5.105,5.105,0,0,1-10.2,0Zm9.008-.013v-.684a3.906,3.906,0,0,0-7.789,0v.684a3.9,3.9,0,0,0,7.789,0Zm-5.873,2.066v-4.927H907.4a1.546,1.546,0,0,1,1.692,1.543,1.487,1.487,0,0,1-.971,1.468l1.157,1.916h-1.406l-1-1.742h-.734v1.742Zm1.22-2.613h.758c.448,0,.921-.124.921-.709,0-.436-.286-.672-.821-.672h-.858Z" style="fill: #fff"/>
    </g>
  </g>
</svg>
