<?xml version="1.0" encoding="UTF-8"?>
<svg id="a" data-name="Layer 1" xmlns="http://www.w3.org/2000/svg" viewBox="0 0 181.96 240.001">
  <path d="M178.592,226.882c-5.507-.488-10.707,2.705-16.192,1.77l-84.99-90.911c1.226-2.32,1.423-6.209,1.221-10.055-.43-8.24-10.502-29.59-12.12-49.139.044-.017,1.926-.436,1.928-.45.405-1.942-3.716-38.136-3.971-40.344-.025-.225-.064-.458-.114-.699,1.179,1.01,2.386.427,4.459.291,4.309-.278,7.885-1.387,11.034-4.606,1.354-1.387,2.774-3.532,2.96-5.463.096-.978-.005-1.966-.297-2.905,1.49,1.942,2.286,3.346,5.183,4.209,2.561.763,7.014,1.346,8.088-1.967-3.329-3.177-6.598-4.472-6.609-9.45,0-5.377-.278-9.245-4.681-13.098-3.621-3.168-9.472-5.044-14.2-3.535-4.578,1.462-6.994,6.129-9.927,9.572.161.097.319.189.474.277h-.019c-.891,5.158-.99,9.636-5.144,13.062l.222.219-.103-.086c-.832-.663-11.237,2.836-14.683,5.122-5.549,3.687-15.171,18.634-15.412,19.144-3.102,6.356-13.467,30.584-14.543,33.489-.405,1.09-.513,2.675.13,3.765.026.04.057.076.092.108-3.796,1.24-9.655,10.652-10.917,17.038-2.403,12.172,5.275,32.212,7.115,44.511,3.072,20.515,5.516,40.882,5.789,61.736.094,7.314,2.692,15.179,1.582,22.474-.186,1.229-1.11,4.628,1.226,5.177-1.665,4.614,29.438,3.984,34.404,3.587,15.912-1.271,5.646-7.097,2.733-8.165-1.11-.405-7.25-2.45-12.324-2.289,5.316-1.923-4.534-7.505-5.114-11.531-.183-1.262,1.329-3.654,1.864-4.878,1.318-3.021,1.587-5.826,2.089-9.156,1.415-9.345,2.774-18.7,4.231-28.023.896-5.702,2.774-11.93,2.71-17.71-.094-8.601-.464-17.504-2.792-25.759-1.337-4.759-2.26-9.626-2.758-14.544-.499-4.994,2.594-16.389.896-18.426l.369.228.738-1.074h0c2.916-.943,10.116-13.298,9.797-15.46,1.906,4.933,4.589,12.363,4.589,12.363,0,0,7.997,23.555,10.743,32.761l-1.434-1.548-2.636,2.081,3.884,4.073c-.913.605-2.053,1.268-1.998,1.767.119,1.11,5.507,4.897,6.454,5.185.757.26,1.569.318,2.356.166l86.624,90.536c1.174.924,1.337.849,7.436,4.206,1.581.871,7.214,3.884,8.998,2.267,3.257-2.941,6.639-9.381.56-9.919Z"/>
</svg>