<?xml version="1.0" encoding="UTF-8"?>
<svg id="a" data-name="Layer 1" xmlns="http://www.w3.org/2000/svg" viewBox="0 0 234.471 240">
  <path d="M233.156,232.166c.111-3.803.327-7.381-.554-11.043-.642-2.698-1.414-5.364-2.029-8.073-1.027-4.536-2.316-9.382-2.447-14.054-.094-3.476,1.124-6.828,1.279-10.373.313-6.877.049-13.769-.789-20.602-.554-4.395-1.107-8.787-1.517-13.199-.484-5.411.855-10.362.83-15.748-.044-6.388-.747-12.659-.736-19.027,0-2.967-.191-5.92-.277-8.856-.069-2.632.664-3.908,1.279-6.49,1.63-6.839-2.2-14.162-2.402-20.973-.205-6.933-4.099-13.39-4.982-20.425-.554-4.284,1.107-7.852,1.323-12.15.139-2.028.127-4.063-.036-6.089-.08-.769-1.724-5.236-2.491-6.404-1.86-2.862-3.551-6.089-5.682-8.768-2.012-2.521-8.375-5.336-9.069-8.53-.213-.983,1.461-4.052,1.461-5.615,0-1.727-.21-4.262-.725-5.898-1.478-4.785-4.472-6.808-8.746-8.826-3.172-1.503-3.991-1.107-7.116-.351-1.414.349-4.337,1.539-5.408,2.662-4.229,4.445-4.589,7.902-5.535,9.687-.902,1.702-9.355,4.677-11.749,7.652-2.114,2.629-3.626,6.028-4.937,9.133-1.594,3.767-1.511,7.675-2.887,11.394-1.24,3.352-3.044,7.578-4.998,10.547-2.311,3.493-6.844,5.782-10.296,8.225-5.829,4.124-11.654,8.303-17.677,12.136-4.442,2.831-7.008,2.305-12.416,2.181-2.795-.064-7.749-.194-10.517,1.492L11.868,25.104c-2.236-5.079-.41-10.885-2.214-16.094C7.653,3.259,2.245,8.094.189,11.958c-1.132,2.128,3.15,6.836,4.378,8.156,4.727,5.084,4.982,6.341,5.876,6.175l91.019,51.802c-.132.496-.175,1.011-.127,1.522.343,4.151,2.914,4.24,5.436,5.884.136.089,4.658,2.231,5.258,2.109.363.105,2.339,2.372,3.385,3.094,1.627,1.126,4.243,2.491,6.285,2.186,1.121-.169,2.35-.678,3.598-1.237l7.196,4.102,1.384-3.044-4.763-2.638.097-.03c6.695-1.937,13.705-2.906,20.359-4.907,6.653-2.001,13.592-5.195,19.927-8.148,0,2.181,1.409,4.389,1.32,6.512-.078,1.827-1.323,3.983-1.976,5.693-1.774,4.627-2.92,7.832-1.107,12.626,1.384,3.678,1.173,2.214,0,5.906-.379,1.198.066,2.09-.094,3.269-.277,2.051-1.107,2.056-1.661,3.598-1.129,3.255-1.276,7.271-1.29,10.7-.064,16.918.855,35.013-1.854,51.735-.794,4.901-1.685,9.784-2.452,14.691-1.209,7.749-4.041,16.357-2.682,24.17.349,2.001,1.337,4.373,1.367,6.366.028,1.893-.922,4.229-1.107,6.255-.1,1.132.185,2.535.042,3.598-.158,1.151-1.865,3.598-1.495,4.705,1.384,4.035,8.303,2.862,11.234,2.845,1.58,0,3.274.814,4.951-.039,1.84-.935,1.608-1.888,2.452-3.213,2.303-3.617,3.924-4.608,3.501-9.058-.509-5.347-1.763-10.96-1.013-16.279,1.209-8.58,3.415-17.159,5.123-25.659,2.43-12.108,4.854-24.222,7.434-36.3.62-2.903,6.772-22.888,6.28-23.248,1.038.739,1.627.576,2.397,1.569.653.83.927,2.491,1.337,3.49.552,1.324.959,2.704,1.212,4.115.902,4.428,1.622,8.876,2.571,13.285,1.301,6.053,2.469,11.749,2.876,17.962,1.041,15.93,1.536,32.24-.022,48.076-.526,5.344.98,8.923,2.892,13.783,1.55,3.944,6.623,9.133,7.246,9.604,2.516,1.86,8.07.554,11.151.321,1.583-.122,4.246.152,5.4-1.024,1.998-2.009.307-2.864-.371-4.868Z"/>
</svg>