<svg xmlns="http://www.w3.org/2000/svg" width="40" height="40" viewBox="0 0 40 40">
  <path d="M20,0A20,20,0,1,0,40,20,20,20,0,0,0,20,0Z" style="fill: #fff"/>
  <g>
    <path d="M31.15,27.183a1.371,1.371,0,0,0-1.069-.453A1.389,1.389,0,0,0,29,27.19a2.263,2.263,0,0,0-.408,1.533l0,1.61-7.589.026L21,25.992l2.612-.009a3.274,3.274,0,0,0,.223,1.508,1.492,1.492,0,0,0,2.525.02,2.5,2.5,0,0,0,.227-1.306l-.011-3.425a2.264,2.264,0,0,0-.419-1.529,1.375,1.375,0,0,0-1.068-.454,1.428,1.428,0,0,0-1.275.716,3.226,3.226,0,0,0-.212,1.495l-2.612.009-.015-4.295,6.936-.024.006,1.553a2.238,2.238,0,0,0,.418,1.522,1.4,1.4,0,0,0,1.083.446,1.367,1.367,0,0,0,1.072-.461,2.265,2.265,0,0,0,.4-1.518l-.015-4.527-12.263.029a4.853,4.853,0,0,0-.595-.309,17.684,17.684,0,0,0-3.515-.975,21.657,21.657,0,0,1-2.781-.643,2.49,2.49,0,0,1-1.127-.8,1.755,1.755,0,0,1-.388-1.065,2.057,2.057,0,0,1,.93-1.563,3.978,3.978,0,0,1,2.544-.756,4.713,4.713,0,0,1,1.946.37,3.187,3.187,0,0,1,1.266.925,2.734,2.734,0,0,1,.41,1.058,1.676,1.676,0,0,0,.482.985,1.461,1.461,0,0,0,.959.33,1.374,1.374,0,0,0,1.065-.46,2.263,2.263,0,0,0,.408-1.533L20.2,9.07a2.238,2.238,0,0,0-.418-1.515A1.375,1.375,0,0,0,18.718,7.1a1.685,1.685,0,0,0-1.159.57,5.96,5.96,0,0,0-1.781-.77,8.477,8.477,0,0,0-2.126-.247,6.682,6.682,0,0,0-4.638,1.62,4.886,4.886,0,0,0-1.772,3.742,4.651,4.651,0,0,0,.734,2.508,4.923,4.923,0,0,0,1.98,1.793,14.057,14.057,0,0,0,3.689,1.075,20.063,20.063,0,0,1,2.6.586,2.839,2.839,0,0,1,1.28.8,1.629,1.629,0,0,1,.4,1.037,1.662,1.662,0,0,1-.808,1.395,5.41,5.41,0,0,1-3.262.94A5.86,5.86,0,0,1,11.5,21.7a4.588,4.588,0,0,1-1.5-.909,2.467,2.467,0,0,1-.395-.877,1.748,1.748,0,0,0-.547-.919,1.392,1.392,0,0,0-.879-.273,1.407,1.407,0,0,0-1.094.461,2.26,2.26,0,0,0-.408,1.532l.006,2A2.241,2.241,0,0,0,7.1,24.228a1.4,1.4,0,0,0,1.1.453,1.217,1.217,0,0,0,.588-.133,2.612,2.612,0,0,0,.629-.6,9.937,9.937,0,0,0,2.274.885,9.662,9.662,0,0,0,2.4.289,8.49,8.49,0,0,0,3.922-.893l.021,6.138h-.464a2.27,2.27,0,0,0-1.522.419,1.361,1.361,0,0,0-.461,1.068,1.388,1.388,0,0,0,.461,1.08,2.269,2.269,0,0,0,1.532.408l14-.048-.016-4.586A2.268,2.268,0,0,0,31.15,27.183Z" style="fill: #242062"/>
    <path d="M31.739,33.452,17.581,33.5a2.386,2.386,0,0,1-1.636-.448,1.546,1.546,0,0,1-.512-1.194,1.513,1.513,0,0,1,.512-1.184,2.388,2.388,0,0,1,1.625-.459h.31l-.02-5.734a8.787,8.787,0,0,1-3.767.8,9.882,9.882,0,0,1-2.441-.294,10.1,10.1,0,0,1-2.2-.84,2.469,2.469,0,0,1-.592.538,1.368,1.368,0,0,1-.661.152,1.56,1.56,0,0,1-1.212-.5,2.351,2.351,0,0,1-.459-1.619l-.007-2a2.378,2.378,0,0,1,.448-1.637,1.565,1.565,0,0,1,1.208-.512,1.545,1.545,0,0,1,.974.3,1.913,1.913,0,0,1,.6,1,2.236,2.236,0,0,0,.362.818,4.487,4.487,0,0,0,1.443.87,5.752,5.752,0,0,0,2.29.444,5.293,5.293,0,0,0,3.171-.91,1.5,1.5,0,0,0,.745-1.271,1.459,1.459,0,0,0-.361-.939,2.693,2.693,0,0,0-1.212-.753,20.066,20.066,0,0,0-2.575-.579,14.3,14.3,0,0,1-3.732-1.09,5.1,5.1,0,0,1-2.04-1.848,4.821,4.821,0,0,1-.758-2.59A5.055,5.055,0,0,1,8.91,8.159,6.862,6.862,0,0,1,13.651,6.5a8.661,8.661,0,0,1,2.166.252,6.151,6.151,0,0,1,1.723.725,1.779,1.779,0,0,1,1.177-.53,1.529,1.529,0,0,1,1.183.5,2.353,2.353,0,0,1,.459,1.619l.008,2.235a2.38,2.38,0,0,1-.448,1.636,1.53,1.53,0,0,1-1.18.512,1.621,1.621,0,0,1-1.057-.365,1.794,1.794,0,0,1-.535-1.072,2.6,2.6,0,0,0-.382-1,3.036,3.036,0,0,0-1.206-.878,4.56,4.56,0,0,0-1.882-.357,3.841,3.841,0,0,0-2.448.721,1.924,1.924,0,0,0-.872,1.442,1.616,1.616,0,0,0,.357.973,2.354,2.354,0,0,0,1.059.751,21.892,21.892,0,0,0,2.754.635,17.936,17.936,0,0,1,3.548.985,5.128,5.128,0,0,1,.576.3l12.374-.029.016,4.682a2.384,2.384,0,0,1-.44,1.62,1.523,1.523,0,0,1-1.188.514,1.554,1.554,0,0,1-1.2-.5,2.35,2.35,0,0,1-.46-1.627l-.005-1.4-6.627.023.014,3.986,2.3-.008a3,3,0,0,1,.237-1.426,1.581,1.581,0,0,1,1.4-.786,1.529,1.529,0,0,1,1.183.5,2.376,2.376,0,0,1,.459,1.633l.012,3.425a2.6,2.6,0,0,1-.255,1.395,1.648,1.648,0,0,1-2.783-.025,3.03,3.03,0,0,1-.245-1.436l-2.3.008.014,4.058,7.28-.025,0-1.456a2.381,2.381,0,0,1,.447-1.636,1.545,1.545,0,0,1,1.2-.512,1.529,1.529,0,0,1,1.183.5,2.385,2.385,0,0,1,.459,1.633ZM17.571,30.526a2.139,2.139,0,0,0-1.419.379,1.206,1.206,0,0,0-.41.953,1.232,1.232,0,0,0,.41.964,2.138,2.138,0,0,0,1.428.369l13.849-.047-.016-4.431a2.136,2.136,0,0,0-.378-1.426,1.216,1.216,0,0,0-.953-.4,1.233,1.233,0,0,0-.965.41,2.138,2.138,0,0,0-.369,1.428l.006,1.766-7.9.027-.016-4.678,2.922-.01v.155a3.011,3.011,0,0,0,.2,1.424,1.338,1.338,0,0,0,2.267.019,2.279,2.279,0,0,0,.2-1.22l-.011-3.424a2.141,2.141,0,0,0-.379-1.426,1.213,1.213,0,0,0-.953-.4,1.273,1.273,0,0,0-1.144.643,2.954,2.954,0,0,0-.189,1.412v.155l-2.922.01-.016-4.605,7.246-.024.006,1.707a2.11,2.11,0,0,0,.377,1.418,1.245,1.245,0,0,0,.969.4,1.208,1.208,0,0,0,.957-.408,2.134,2.134,0,0,0,.362-1.415l-.015-4.373L18.564,15.9l-.037-.023a4.674,4.674,0,0,0-.575-.3,17.6,17.6,0,0,0-3.483-.965,21.389,21.389,0,0,1-2.81-.652,2.66,2.66,0,0,1-1.193-.852,1.915,1.915,0,0,1-.419-1.157,2.211,2.211,0,0,1,.988-1.685,4.144,4.144,0,0,1,2.641-.79,4.866,4.866,0,0,1,2.009.384,3.353,3.353,0,0,1,1.326.972,2.851,2.851,0,0,1,.438,1.119,1.535,1.535,0,0,0,.426.895,1.3,1.3,0,0,0,.863.3,1.22,1.22,0,0,0,.951-.41,2.133,2.133,0,0,0,.368-1.428L20.05,9.07a2.113,2.113,0,0,0-.379-1.411,1.216,1.216,0,0,0-.953-.4,1.552,1.552,0,0,0-1.051.525l-.088.088L17.474,7.8a5.8,5.8,0,0,0-1.734-.75,8.319,8.319,0,0,0-2.088-.242A6.563,6.563,0,0,0,9.118,8.388,4.764,4.764,0,0,0,7.4,12.016a4.52,4.52,0,0,0,.711,2.425,4.776,4.776,0,0,0,1.919,1.738,13.985,13.985,0,0,0,3.646,1.061,19.854,19.854,0,0,1,2.626.593,2.991,2.991,0,0,1,1.346.849,1.781,1.781,0,0,1,.43,1.133,1.811,1.811,0,0,1-.874,1.523,5.585,5.585,0,0,1-3.35.968,6.029,6.029,0,0,1-2.414-.469,4.675,4.675,0,0,1-1.549-.945,2.579,2.579,0,0,1-.431-.939,1.6,1.6,0,0,0-.493-.841,1.233,1.233,0,0,0-.784-.24,1.242,1.242,0,0,0-.979.41,2.137,2.137,0,0,0-.369,1.428l.007,2a2.106,2.106,0,0,0,.379,1.411,1.243,1.243,0,0,0,.982.4,1.053,1.053,0,0,0,.513-.113,2.444,2.444,0,0,0,.585-.561l.081-.1.111.059a9.843,9.843,0,0,0,2.238.871,9.607,9.607,0,0,0,2.365.284,8.359,8.359,0,0,0,3.851-.876l.225-.116.022,6.546Z" style="fill: #b5a232"/>
  </g>
  <path d="M20,.435A19.565,19.565,0,1,1,.435,20,19.587,19.587,0,0,1,20,.435M20,0A20,20,0,1,0,40,20,20,20,0,0,0,20,0Z" style="fill: #b5a232"/>
</svg>
