<svg xmlns="http://www.w3.org/2000/svg" width="90" height="119.59" viewBox="0 0 90 119.59">
  <title>post</title>
  <g>
    <g>
      <path d="M89.276,31.147H32.918a4.164,4.164,0,0,0,2.287-2.359,3.407,3.407,0,0,0-1.971-4.4,2.789,2.789,0,0,0-3.6,1.614,2.3,2.3,0,0,0,1.328,2.963.322.322,0,1,0,.23-.6,1.654,1.654,0,0,1-.957-2.133,2.146,2.146,0,0,1,2.77-1.242,2.767,2.767,0,0,1,1.6,3.566A3.539,3.539,0,0,1,30.042,30.6,12.247,12.247,0,0,1,26.4,27.957a12.234,12.234,0,0,1-2.644-3.64A3.538,3.538,0,0,1,25.8,19.756a2.768,2.768,0,0,1,3.567,1.6,2.15,2.15,0,0,1-1.242,2.77,1.655,1.655,0,0,1-2.133-.957.322.322,0,1,0-.6.23,2.3,2.3,0,0,0,2.963,1.328,2.793,2.793,0,0,0,1.614-3.6,3.405,3.405,0,0,0-4.4-1.971,4.151,4.151,0,0,0-2.325,2.2c-.026.058-.045.117-.068.176v-5.59h1.087l1.086-2.9-1.086-2.9H19.909a16.261,16.261,0,0,1,.47-2.173h.446V7.243H18.29v.725h.446a16.259,16.259,0,0,1,.469,2.173H14.849l-1.086,2.9,1.086,2.9h1.087v5.317a4.164,4.164,0,0,0-2.275-2.1,3.407,3.407,0,0,0-4.4,1.971,2.792,2.792,0,0,0,1.614,3.6A2.3,2.3,0,0,0,13.842,23.4a.322.322,0,0,0-.6-.229,1.652,1.652,0,0,1-2.133.956,2.145,2.145,0,0,1-1.241-2.769,2.767,2.767,0,0,1,3.566-1.6,3.539,3.539,0,0,1,2.045,4.561,12.255,12.255,0,0,1-2.647,3.642A12.243,12.243,0,0,1,9.191,30.6a3.539,3.539,0,0,1-4.562-2.045,2.767,2.767,0,0,1,1.6-3.566A2.149,2.149,0,0,1,9,26.232a1.656,1.656,0,0,1-.956,2.133.322.322,0,1,0,.229.6A2.3,2.3,0,0,0,9.6,26,2.793,2.793,0,0,0,6,24.389a3.407,3.407,0,0,0-1.971,4.4,4.154,4.154,0,0,0,2.2,2.325c.031.013.063.023.094.036H3.622v-.724L1.811,29.7,0,30.423v5.07l1.811.724,1.811-.724v-.724H15.936V119.59h7.243V34.769H34.044V79.934a2.9,2.9,0,0,0,2.9,2.9H81.851a2.9,2.9,0,0,0,2.9-2.9V34.769h4.528L90,34.044V31.871Zm-79.75,0a28.889,28.889,0,0,0,3.76-2.737,27.888,27.888,0,0,0,2.65-3.62v6.357ZM23.179,24.6a29.086,29.086,0,0,0,2.768,3.815A28.96,28.96,0,0,0,29.7,31.147H23.179Zm57.948,21.48L71.5,41.9a30.4,30.4,0,0,0-24.2,0l-9.631,4.177V34.769H81.127Z" style="fill: #231f61"/>
      <circle cx="19.557" cy="3.622" r="3.622" style="fill: #231f61"/>
    </g>
    <path d="M59.4,43.012a26.635,26.635,0,0,1,10.658,2.211l11.073,4.8V79.21H37.666V50.025l11.072-4.8A26.642,26.642,0,0,1,59.4,43.012m0-1.449a28.072,28.072,0,0,0-11.234,2.331l-11.945,5.18v30.86a.726.726,0,0,0,.725.725H81.851a.725.725,0,0,0,.724-.725V49.074l-11.944-5.18A28.073,28.073,0,0,0,59.4,41.563Z" style="fill: #b4975a"/>
    <path d="M57.335,59.129h1.834c1.231,0,1.969-.689,1.969-1.649a1.766,1.766,0,0,0-1.969-1.539,1.92,1.92,0,0,0-2.007,1.822H52.67c.123-3.324,2.584-5.342,6.733-5.342,3.581,0,6.425,1.772,6.437,4.48A3.457,3.457,0,0,1,62.824,60.5v.234a3.722,3.722,0,0,1,3.459,4.025c.012,3.237-3.422,5.047-7.077,5.047-4.592,0-6.7-2.56-6.7-5.391h4.418c.013,1.058,1.084,1.784,2.388,1.784a1.912,1.912,0,0,0,2.154-1.8c0-.935-.738-1.8-2.215-1.8h-1.92Z" style="fill: #fff"/>
  </g>
</svg>
