<svg xmlns="http://www.w3.org/2000/svg" xmlns:xlink="http://www.w3.org/1999/xlink" width="1250.59" height="1167.5" viewBox="0 0 1250.59 1167.5"><defs><clipPath id="a"><rect x="0.464" width="1250.126" height="1167.5" fill="none"/></clipPath></defs><title>pga_sp</title><path d="M1135.359,643.439h1.3c2.315-.082,5.208-.372,5.208-2.686,0-2.6-3.183-2.6-4.919-3.1h-1.591v5.786m-5.785-8.679h7.087c4.05-.082,9.836-.082,9.836,5.7,0,4.339-4.339,5.5-5.5,5.5h0c1.735.579,2.314,1.157,5.5,6.654l1.157,2.4h-5.5l-.868-2.108c-2.893-5.786-3.761-6.653-5.931-6.364v8.472h-5.785Zm-6.22,10.043a15.333,15.333,0,1,0,15.332-15.333A15.248,15.248,0,0,0,1123.354,644.8Zm34.137,0a18.8,18.8,0,1,1-18.805-18.8c10.126-.29,18.805,8.389,18.805,18.8" fill="#b7955a"/><path d="M1097.968,664.5c1.98-5.923,27.8-65.387,27.8-160.987,0-277.636-225.8-503.459-503.425-503.459-277.586,0-503.693,225.823-503.433,503.459.084,91.68,26.142,158.169,31.922,173.421L.973,734.988,65.044,863.867c118.3,182.19,323.419,302.8,556.833,302.8,358.016,0,563.36-261.285,626.936-445.3L1097.968,664.5Z" fill="#fff"/><path d="M29.011,746.632l127.891-50s105.666,307.262,456.939,311.421c300.11,3.559,447.415-227.071,478.657-323.719l128.68,48.879s-136.984,417.565-597.858,411.474C175.509,1138.761,29.011,746.632,29.011,746.632Z" fill="#202945"/><g clip-path="url(#a)"><path d="M622.581,1131.9c-257.114,0-478.381-155.642-575.1-377.564l103.041-39.917c80.867,180.343,261.612,306.168,472.055,306.168,215.177,0,399.244-131.53,477.285-318.4l103.408,38.91c-93.543,228.952-318.467,390.8-580.693,390.8Zm592.052-402.06-122.872-46.094-5.622,13.273c-76.111,181.232-254.992,309.038-463.558,309.038C418.7,1006.054,243.1,883.9,164.217,709.1c-2-4.413-4.219-8.726-6.091-13.222l-.033-.067-13.675,5.285.042.084-102.714,39.8a1.258,1.258,0,0,1-.067-.152l-13.7,5.286c.235.587.453,1.175.688,1.762q3.964,9.588,8.222,19.028c.268.6.537,1.19.8,1.795,101.263,222.122,325.281,376.959,584.887,376.959,270.983,0,503.09-168.731,597.389-406.541.821-2.113,1.694-4.211,2.5-6.342l-7.837-2.936Z" fill="#fff"/><path d="M1099.092,663.676l-7.264,20.1,130.642,49,.067.015c-.821,2.133-1.729,4.214-2.567,6.327-94.3,237.81-326.406,406.541-597.389,406.541-259.606,0-483.624-154.837-584.887-376.959-.268-.605-9.539-21.981-9.773-22.551l.058-.034,130.114-50.3-7.844-19.883L0,734.031c2.483,6.7,5.151,13.288,7.836,19.883,98.963,242.291,336.85,413.1,614.745,413.1,283.065,0,524.6-177.206,620.108-426.66q3.8-9.969,7.3-20.085l-150.9-56.6Z" fill="#b4975a"/></g><path d="M138.5,505.432c0,266.789,217.081,483.859,483.844,483.859s483.843-217.07,483.843-483.859C1106.19,238.618,889.118,21.6,622.347,21.6S138.5,238.618,138.5,505.432" fill="#fff"/><path d="M263.784,504.325c0-197.6,160.769-358.336,358.328-358.336,197.591,0,358.352,160.736,358.352,358.336s-160.761,358.3-358.352,358.3c-197.559,0-358.328-160.695-358.328-358.3Zm-107.83,0C155.954,761.381,365.072,970.5,622.1,970.5c257.09,0,466.191-209.119,466.191-466.175,0-257.075-209.1-466.2-466.191-466.2-257.023,0-466.141,209.126-466.141,466.2" fill="#202945"/><path d="M140.29,503.511c0-265.816,216.275-482.066,482.057-482.066,265.8,0,482.082,216.25,482.082,482.066,0,265.789-216.283,482.072-482.082,482.072-265.782,0-482.057-216.283-482.057-482.072Zm-21.376,0c0,277.569,225.847,503.45,503.433,503.45,277.628,0,503.425-225.881,503.425-503.45,0-277.636-225.8-503.459-503.425-503.459-277.586,0-503.433,225.823-503.433,503.459" fill="#b4975a"/><path d="M280.37,505.44C280.37,694,433.8,847.407,622.347,847.407S964.306,694,964.306,505.44c0-188.581-153.412-341.967-341.959-341.967S280.37,316.859,280.37,505.44" fill="#b4975a"/><path d="M650.3,226.4c-6.074.486-8.894,7.727-7.768,14.79A105.26,105.26,0,0,0,661.8,237.41a16.947,16.947,0,0,0-3.372-6.964c-1.712-2.08-4.414-4.345-8.122-4.051Zm-58.583.285c-3.274-.974-6.411.763-8.148,2.34a17.306,17.306,0,0,0-4.774,8.39,107.214,107.214,0,0,0,19.272,3.775c.922-6.393-1.158-12.979-6.35-14.5Zm28.129-.437a18.1,18.1,0,0,0-11.663,4.968,17.655,17.655,0,0,0-4.764,10.5,185.083,185.083,0,0,0,33.692.108,16.771,16.771,0,0,0-5.285-11.082c-2.518-2.282-7.081-4.824-11.98-4.5Zm44.079,38.265a12.424,12.424,0,0,0-2.334-7.02,7.327,7.327,0,0,0-5.972-3.358c-4.531-.1-7.415,3.122-9.211,5.957a19.773,19.773,0,0,0-2.988,11.83c-1.845.317-3.825.814-5.637.957a15.8,15.8,0,0,0-5.219-11.679,17.53,17.53,0,0,0-12.266-4.656,17.757,17.757,0,0,0-12.281,4.656,16.145,16.145,0,0,0-5.3,11.679,48.064,48.064,0,0,1-5.605-1.016c.235-7.685-2.719-13.666-7.651-16.5a7.993,7.993,0,0,0-9.045.529c-2.18,1.888-3.455,4.84-3.649,8.548-.286.1-7.945-6.593-9.782-9.034,0,0-.008,0-.008-.026-.109-1.124-.135-2.24-.135-3.382a53.451,53.451,0,0,1,106.9,0c0,.856,0,1.712-.051,2.561a32.615,32.615,0,0,1-9.765,9.957Zm-3.155,11.41c-1.929,2.794-4.647,5.638-8.692,5.914a7.362,7.362,0,0,1-5.285-1.945c-1.947-1.78-2.9-4.455-3.306-7.97a72.389,72.389,0,0,0,20.3-7.206c.068,0,.068.024.068.075a19.177,19.177,0,0,1-3.088,11.132Zm-28.532,8.868a18.551,18.551,0,0,1-24.582,0,15.614,15.614,0,0,1-5.2-11.644v-.21a122.848,122.848,0,0,0,35,.1,15.568,15.568,0,0,1-5.219,11.755Zm-43.3-2.954c-4.019,0-7.022-2.994-8.894-5.695a18.825,18.825,0,0,1-3.339-11.3v-.193a75.143,75.143,0,0,0,20.245,7.274c-.387,5.075-2.954,9.833-8.012,9.915ZM620.3,187.9a64.092,64.092,0,1,0,64.115,64.094A64.2,64.2,0,0,0,620.3,187.9" fill="#202945" fill-rule="evenodd"/><path d="M842.927,707.469c-.5-.453-13.609-11.175-35.523-12.936-6.71-.739-10.857-.789-25.17,1.863-12.382,2.751-19.53,5.536-23.791,7.768-3.826-5.3-47.669-63.073-70.523-94.047-4.4,1.158-9.446,2.282-14.934,3.289L755,744.283l.99.6c.922.587,9.514,5.421,34.011,4.933,15.387-.335,35.019-4.278,36.108-4.511,10.421-2.721,16.445-23.694,18.558-32.571l.789-3.187-2.532-2.081Zm-356-3.305c-4.27-2.232-11.435-5.017-23.852-7.768-14.246-2.652-18.431-2.6-25.119-1.863-21.937,1.761-35,12.483-35.537,12.936l-2.508,2.081.745,3.187c2.116,8.877,8.19,29.85,18.626,32.571,1.056.233,20.723,4.176,36.066,4.511,24.5.488,33.065-4.346,33.979-4.933l.981-.6L574.87,609.4c-4.639-1.409-9.111-2.987-13.448-4.732-21.2,28.994-70.455,93.88-74.5,99.5ZM719.147,416.3l103.627-134.56a30.132,30.132,0,0,0-11.93-16.721c-9.347-6.15-20.118-4.933-20.118-4.933L692.885,403.3c14.8,5.445,23.509,11.132,25.22,12.274l1.042.73Zm-163.833-8.876L454.8,260.087s-10.78-1.217-20.1,4.933a30.348,30.348,0,0,0-11.955,16.721L530.59,422.576a125.686,125.686,0,0,1,24.724-15.151" fill="#202945"/><path d="M639.638,392.617a207.88,207.88,0,0,1,21.837-49.738V329.055a613.27,613.27,0,0,1-81.553,0v13.824a222.261,222.261,0,0,1,21.4,51.4,195.175,195.175,0,0,1,27.413-1.99c3.746,0,7.373.152,10.9.327" fill="#202945"/><path d="M400.669,853.23l.076-.117c4.874-7.216,3.623-16.846-3.851-21.847-7.45-5.017-16.645-2.634-21.544,4.6l-.068.15c-4.865,7.232-3.616,16.847,3.884,21.881,7.5,5,16.654,2.584,21.5-4.665Zm-35.178-23.643.11-.133c8.079-11.981,24.161-15.471,37.166-6.679,13.053,8.742,15.872,24.751,7.811,36.764l-.11.134c-8.088,11.981-24.138,15.453-37.207,6.7-13.021-8.759-15.814-24.768-7.77-36.782" fill="#fff"/><polyline points="437.474 845.008 472.56 861.536 468.205 870.714 443.246 859.001 438.649 868.785 460.613 879.171 456.259 888.382 434.328 878.013 425.888 895.798 415.762 891.034 437.474 845.008" fill="#fff"/><path d="M535.8,910.983,532.746,893.4l-10.184,14.664,13.239,2.919Zm-5.078-31.812,10.1,2.232,10.286,54.783-11.46-2.533-2.1-12.132-20.992-4.665-7.022,10.135-11.149-2.467,32.332-45.353" fill="#fff"/><polyline points="573.596 887.482 585.702 888.17 597.867 910.351 612.413 889.596 624.443 890.25 621.71 941.04 610.602 940.454 612.413 907.281 596.91 928.205 596.607 928.205 583.604 905.922 581.834 938.909 570.86 938.289 573.596 887.482" fill="#fff"/><polyline points="640.973 889.826 679.129 886.083 680.118 895.967 653.019 898.6 653.976 908.902 677.851 906.604 678.809 916.487 654.966 918.803 655.989 929.457 683.473 926.806 684.429 936.689 645.854 940.448 640.973 889.826" fill="#fff"/><path d="M721.915,902.241c5.3-1.292,7.633-4.866,6.611-9.01l-.017-.167c-1.158-4.665-4.95-6.292-10.287-5L707.434,890.7l3.407,14.211,11.074-2.668Zm-27.77-18.69,22.6-5.488c6.309-1.561,11.629-.972,15.639,1.46,3.455,2.131,5.856,5.637,6.979,10.3l.067.116c1.913,8-1.157,14.062-6.894,17.954l16.408,14.7-12.718,3.1-14.464-13.238-.151.032-8.39,2.014,3.86,15.84L706.193,933l-12.048-49.447" fill="#fff"/><polyline points="751.211 867.693 761.715 863.785 779.315 911.553 768.83 915.43 751.211 867.693" fill="#fff"/><path d="M788.881,880.9l-.052-.119c-6.543-12.936-2.18-28.424,11.728-35.47,8.608-4.38,15.136-4.111,21.478-2.081l-2.652,10.538c-5.116-1.411-9.647-1.528-14.178.772-7.651,3.876-9.982,13.037-6.007,20.805l.052.151c3.959,7.768,12.651,11.493,20.419,7.567,5.2-2.617,7.3-6.325,9.213-11.359l9.648,3.172c-2.166,7.365-5.789,13.1-14.514,17.534-13.34,6.8-28.508,1.525-35.135-11.51" fill="#fff"/><path d="M871.417,836.9l-15.1-9.464,4.11,17.368,10.991-7.9ZM844.4,819.419l8.356-6.006,47.6,28.927-9.479,6.847-10.421-6.579-17.534,12.535,2.869,12.013-9.261,6.661-12.132-54.4" fill="#fff"/><path d="M292.394,749.819c-3.373-4.445-8.029-5.032-11.521-2.4l-.082.084c-3.969,3.036-4.045,7.432-.637,11.912l5.268,6.9,12.365-9.412-5.393-7.083Zm-8.248,31.5-12.617-16.544c-7.341-9.665-6.05-19.867,2.24-26.142l.1-.067c9.379-7.165,19.774-3.591,26.688,5.536l5.143,6.728,12.173-9.211,6.753,8.876-40.48,30.824" fill="#fff"/><path d="M258.424,698.727c-2.593-4.781-6.679-6.091-10.419-4.043l-.142.05c-4.2,2.316-4.75,6.461-2.133,11.225l5.361,9.766,12.786-7.013-5.453-9.985Zm-10.8,31.646L236.417,710c-3.12-5.689-3.926-10.942-2.642-15.488a16.1,16.1,0,0,1,8.13-9.429l.117-.085c7.223-3.96,13.861-2.566,19.087,1.979l9.933-19.681,6.333,11.51L268.341,696.2l.074.134,4.153,7.55,14.288-7.82,5.4,9.834-44.632,24.48" fill="#fff"/><path d="M227.642,623.909l-.159.051c-8.222,2.868-12.978,11.31-9.983,19.817,2.961,8.523,11.712,12.063,19.984,9.178l.126-.035c8.263-2.9,13-11.308,10.017-19.833s-11.755-12.048-19.985-9.178Zm13.987,39.821-.128.052c-13.69,4.765-28.633-2.066-33.817-16.931-5.185-14.834,2.131-29.347,15.8-34.128h.151c13.658-4.8,28.625,2.063,33.794,16.912,5.2,14.85-2.165,29.3-15.8,34.1" fill="#fff"/><polyline points="194.093 597.222 187.255 559.067 197.298 557.305 202.114 584.42 212.785 582.499 208.523 558.613 218.557 556.826 222.802 580.727 242.208 577.264 244.17 588.305 194.093 597.222" fill="#fff"/><polyline points="185.09 536.498 183.757 498.133 193.69 497.772 194.647 525.029 204.983 524.686 204.134 500.683 214.093 500.33 214.916 524.301 225.579 523.931 224.614 496.313 234.598 495.959 235.931 534.711 185.09 536.498" fill="#fff"/><path d="M227.038,481.269l-6.938-7.124c4.082-4,6.858-8.36,7.432-13.919.492-4.4-.986-7.206-3.858-7.5l-.12-.017c-2.751-.283-4.269,1.235-7.246,9.167-3.493,9.527-6.859,15.587-16.558,14.562h-.129c-8.8-.918-13.941-8.632-12.9-18.542A28.383,28.383,0,0,1,194.8,440.45l7.5,6.382c-3.46,4.01-5.719,8.068-6.139,12.168-.42,4.123,1.257,6.471,3.6,6.712h.114c3.245.314,4.5-1.653,7.519-9.843,3.591-9.6,7.713-14.781,16.219-13.935l.153.016c9.651,1.025,14.289,8.956,13.208,19.47a31.175,31.175,0,0,1-9.925,19.849" fill="#fff"/><path d="M233.96,429.178l-6.116-8.32c4.757-3.568,8.213-7.653,9.623-13.308,1.083-4.447-.025-7.593-2.912-8.28l-.158-.017c-2.744-.7-4.581.654-8.743,8.4-4.941,9.353-9.286,15.083-19.061,12.685l-.177-.018c-8.95-2.215-13.163-10.881-10.654-20.947a29.374,29.374,0,0,1,10.773-16.83l6.821,7.651c-4.121,3.633-7.022,7.491-8.046,11.644-1.024,4.2.352,6.854,2.735,7.424l.151.034c3.222.815,4.823-1.065,9.11-9.068,5.075-9.4,10.069-14.17,18.642-12.048l.143.026c9.841,2.416,13.523,11.234,10.94,21.905a32.459,32.459,0,0,1-13.071,19.068" fill="#fff"/><polyline points="208.523 358.438 212.407 347.917 260.194 365.401 256.386 375.889 208.523 358.438" fill="#fff"/><path d="M262.888,299.962l-.119-.067c-7.794-4.042-17.19-1.685-21.343,6.344-4.136,7.96-.661,16.778,7.031,20.831l.134.059c7.727,4.034,17.14,1.676,21.31-6.31,4.144-8,.722-16.83-7.013-20.857Zm-19.524,37.6-.184-.041c-12.784-6.662-18.071-22.292-10.848-36.193,7.249-13.961,22.829-18.559,35.648-11.889l.126.084c12.852,6.635,18.1,22.249,10.9,36.185-7.208,13.96-22.845,18.548-35.64,11.854" fill="#fff"/><polyline points="259.227 256.174 265.511 247.879 305.197 247.894 280.064 228.742 286.812 219.888 327.623 250.974 321.77 258.61 280.834 258.61 306.795 278.372 300.004 287.234 259.227 256.174" fill="#fff"/><path d="M346.64,201.879l-16.259-7.406,6.394,16.653,9.865-9.247Zm-29.128-13.741,7.492-7.1,51.059,22.385-8.55,8.029-11.233-5.136-15.638,14.791,4.422,11.461-8.306,7.843-19.246-52.275" fill="#fff"/><polyline points="358.738 153.12 367.993 146.76 391.138 180.219 412.045 165.763 417.818 174.085 387.765 194.95 358.738 153.12" fill="#fff"/><path d="M444.354,130.669l-.035-.159c-5.419-13.406.6-28.6,14.926-34.364,8.466-3.439,14.531-3.2,21.158-1.015l-3.356,10.529c-4.882-1.526-8.818-2.021-14.278.185-7.56,3.053-10.9,12.122-7.693,20.176l.1.118c3.448,8.641,11.929,12.584,20.31,9.212a17.539,17.539,0,0,0,8.659-6.788l-2.736-6.694-10.453,4.17-3.641-8.935,20.529-8.289,8.264,20.52a32.943,32.943,0,0,1-17.141,15.6c-14.74,5.931-29.009-.336-34.614-14.263" fill="#fff"/><path d="M549.433,97.732l-.018-.176c-1.844-8.541-9.6-14.3-18.422-12.416-8.817,1.854-13.448,10.168-11.62,18.692l.026.142c1.836,8.523,9.6,14.3,18.448,12.392,8.818-1.88,13.407-10.11,11.586-18.634Zm-41.462,8.826-.024-.168c-3-14.111,5.663-28.105,21.015-31.393,15.378-3.256,28.827,5.814,31.855,19.983l.018.143c3.061,14.128-5.638,28.13-21.017,31.393-15.335,3.29-28.792-5.83-31.847-19.958" fill="#fff"/><polyline points="579.938 67.806 591.129 67.194 593.377 107.85 618.706 106.465 619.26 116.642 582.757 118.647 579.938 67.806" fill="#fff"/><polyline points="638.321 66.237 676.929 69.358 676.14 79.501 648.624 77.27 647.768 88.101 672.013 90.022 671.207 100.173 646.963 98.235 645.385 117.851 634.26 116.995 638.321 66.237" fill="#fff"/><polyline points="699.413 72.95 736.847 81.422 734.633 91.096 708.071 85.114 705.772 95.19 729.213 100.475 727.016 110.199 703.609 104.939 701.243 115.317 728.223 121.39 725.992 131.147 688.171 122.565 699.413 72.95" fill="#fff"/><path d="M772.436,119.822c5.017,1.971,8.978.4,10.555-3.574l.049-.159c1.729-4.455-.468-7.988-5.537-9.951l-10.386-4.068-5.285,13.607,10.6,4.145ZM760.355,88.6l21.679,8.448c6.041,2.349,10.051,5.881,11.98,10.219a16.148,16.148,0,0,1-.2,12.425l-.052.134c-2.986,7.659-8.993,10.847-15.872,10.739L782.873,152l-12.181-4.765-4.28-19.128-.134-.043-8.053-3.171L752.3,140.058l-10.4-4.052L760.355,88.6" fill="#fff"/><path d="M796.917,150.771l9.7-3.616c2.1,5.537,5.084,10.009,10.15,12.9,3.961,2.257,7.25,2.063,8.743-.545l.05-.118c1.409-2.449.62-4.6-5.722-10.672-7.584-7.382-11.914-13.087-6.929-21.888l.067-.142c4.613-7.988,14.061-9.64,23.087-4.514a29.755,29.755,0,0,1,13.206,14.984l-9.2,4.437c-2.366-4.94-5.285-8.766-9.01-10.872-3.725-2.157-6.661-1.569-7.886.587l-.068.118c-1.676,2.936-.317,4.966,6.21,11.267,7.669,7.45,10.855,13.566,6.493,21.259l-.084.126c-5,8.776-14.514,9.874-24.061,4.447a32.334,32.334,0,0,1-14.749-17.753" fill="#fff"/><path d="M857.12,158.338c4.38,2.492,7.9,1.854,9.967-1.719l-3.64-2.61,6.795-9.463,9.548,6.862-5.739,7.979c-5.555,7.777-11.713,8.129-18.826,3.23l1.895-4.279" fill="#fff"/><path d="M920.815,227.921l7.331-16.251-16.643,6.4,9.312,9.849Zm13.624-29.144,7.115,7.466-22.267,51.093-8.054-8.515,5.1-11.227-14.766-15.613-11.476,4.464-7.836-8.3,52.183-19.371" fill="#fff"/><path d="M931.469,261.267l10.269.9c-.437,5.914.269,11.217,3.64,16.024,2.619,3.743,5.689,4.967,8.139,3.248l.1-.068c2.35-1.62,2.569-3.9-.571-12.106-3.673-9.926-5.166-16.989,3.172-22.737l.085-.084c7.6-5.276,16.862-2.692,22.752,5.832a29.163,29.163,0,0,1,5.486,19.213l-10.184.058c-.034-5.5-.989-10.2-3.457-13.725s-5.352-4.237-7.416-2.845l-.1.1c-2.718,1.9-2.383,4.321.772,12.844,3.708,10,4.027,16.855-3.255,21.956l-.084.059c-8.305,5.771-17.383,2.735-23.692-6.292a32.394,32.394,0,0,1-5.655-22.376" fill="#fff"/><path d="M961.352,305.542l10.069,2.316c-1.343,5.779-1.225,11.157,1.391,16.326,2.115,4.085,4.967,5.7,7.619,4.362l.084-.075c2.55-1.31,3.036-3.524,1.141-12.09-2.316-10.328-2.837-17.484,6.191-22.1l.118-.052c8.254-4.22,17-.393,21.728,8.852a29.519,29.519,0,0,1,2.9,19.773l-10.168-1.333c.7-5.445.385-10.236-1.545-14.044-1.979-3.825-4.764-4.925-6.964-3.825l-.149.067c-2.954,1.534-2.9,3.976-.924,12.828,2.283,10.419,1.7,17.29-6.208,21.317l-.167.076c-8.96,4.6-17.569.326-22.519-9.472a31.892,31.892,0,0,1-2.6-22.929" fill="#fff"/><path d="M1016.221,390.1l.151-.017c8.322-2.734,13.221-11.066,10.436-19.615-2.768-8.606-11.493-12.348-19.8-9.63l-.168.05C998.6,363.6,993.635,371.92,996.405,380.5c2.818,8.567,11.51,12.325,19.816,9.6Zm-13.088-40.3.134-.075c13.76-4.473,28.558,2.744,33.39,17.685,4.867,14.9-2.8,29.238-16.528,33.717l-.151.027c-13.774,4.479-28.557-2.677-33.439-17.619-4.816-14.934,2.8-29.279,16.594-33.735" fill="#fff"/><path d="M1023.77,419.83l.136-.033c14.278-2.09,27.618,6.955,29.9,22.409,1.393,9.5-.89,15.663-4.833,20.99l-9.177-5.814c2.969-4.4,4.513-8.692,3.807-13.75-1.223-8.449-9.228-13.542-17.834-12.258h-.136c-8.641,1.318-14.965,8.34-13.675,16.946.84,5.765,3.658,8.952,7.854,12.359l-6.074,8.129c-6.292-4.371-10.605-9.63-12.065-19.321a25.734,25.734,0,0,1,22.1-29.657" fill="#fff"/><polyline points="1056.809 484.156 1057.129 495.297 1006.27 496.808 1005.919 485.633 1056.809 484.156" fill="#fff"/><path d="M1025.2,547.213l17.014-5.22-15.773-8.246-1.241,13.466Zm30.924-8.987-.992,10.285-53.021,17.007,1.109-11.67L1015,550.266l2-21.419-10.957-5.7,1.091-11.36,49,26.435" fill="#fff"/><polyline points="1037.06 593.959 1040.585 578.865 1050.602 581.207 1041.104 622.282 1031.019 619.966 1034.561 604.847 994.979 595.694 997.528 584.798 1037.06 593.959" fill="#fff"/><polyline points="1034.342 642.501 1030.617 653.054 982.629 636.158 986.304 625.588 1034.342 642.501" fill="#fff"/><path d="M980.681,701.564l.119.082c7.751,3.911,17.165,1.5,21.225-6.56,4.094-8.053.52-16.829-7.249-20.79l-.117-.049c-7.819-3.944-17.182-1.528-21.259,6.544-4.094,8.036-.536,16.83,7.281,20.773Zm19.112-37.821.1.033c12.921,6.562,18.34,22.082,11.292,36.092-7.1,14.012-22.635,18.794-35.537,12.3l-.119-.082c-12.936-6.528-18.339-22.083-11.291-36.092,7.13-14.028,22.635-18.794,35.554-12.25" fill="#fff"/><polyline points="983.325 745.304 977.373 753.295 939.42 753.732 963.67 771.755 957.311 780.312 917.919 750.999 923.419 743.637 962.603 743.185 937.608 724.565 943.966 716.038 983.325 745.304" fill="#fff"/><path d="M99.668,769.721l10.638,2.046c-1.141,6.124-.906,11.746,2.047,17.081,2.324,4.211,5.4,5.822,8.146,4.3l.126-.067c2.609-1.443,3.054-3.774.739-12.7-2.819-10.739-3.574-18.256,5.7-23.392l.126-.067c8.482-4.7,17.862-1.007,23.147,8.541a31.013,31.013,0,0,1,3.675,20.656l-10.7-1.058c.579-5.722.058-10.754-2.123-14.7s-5.126-5.017-7.4-3.76l-.135.084c-3.07,1.694-2.962,4.261-.553,13.474,2.777,10.856,2.332,18.07-5.823,22.584l-.126.067c-9.278,5.151-18.406.94-23.985-9.127a33.97,33.97,0,0,1-3.5-23.96Z" fill="#fff"/><path d="M156.021,827.356c3.313,4.85,8.146,5.689,11.913,3.1l.126-.083c4.338-2.969,4.6-7.585,1.275-12.433l-5.118-7.468-13.456,9.213,5.26,7.667Zm10.3-32.534,12.308,17.97c7.2,10.486,5.318,21.109-3.666,27.249l-.126.084c-10.177,6.981-20.882,2.686-27.644-7.182l-5.042-7.348-13.188,9.044-6.629-9.682,43.987-30.135Z" fill="#fff"/><polygon points="196.701 837.861 222.524 868.75 214.521 875.446 196.174 853.515 187.868 860.462 204.009 879.757 195.997 886.47 179.857 867.173 171.256 874.355 189.848 896.586 181.827 903.282 155.761 872.106 196.701 837.861 196.701 837.861" fill="#fff"/><path d="M210.653,895.312l.108-.117c10.6-10.857,27.475-11.763,39.206-.3,7.205,7.031,9.167,13.643,9.311,20.588l-11.368.957c-.335-5.554-1.744-10.119-5.562-13.844-6.443-6.292-16.3-5.469-22.685,1.074l-.119.119c-6.391,6.543-7.18,16.41-.637,22.8,4.37,4.28,8.75,5.135,14.413,5.336l.076,10.621c-8.029.369-14.95-1.275-22.324-8.473-11.242-10.957-11.126-27.8-.419-38.76Z" fill="#fff"/><polygon points="273.927 918.215 282.939 925.717 248.844 966.673 239.833 959.156 273.927 918.215 273.927 918.215" fill="#fff"/><path d="M302.016,978.57l4.12-18.239-15.723,10.1,11.6,8.138Zm7.895-32.787,8.867,6.208-12.1,57.1-10.043-7.03,2.87-12.6-18.475-12.937-10.855,7-9.8-6.862,49.532-30.875Z" fill="#fff"/><polygon points="345.969 970.264 356.221 975.985 335.39 1013.253 358.613 1026.206 353.41 1035.519 319.936 1016.827 345.969 970.264 345.969 970.264" fill="#fff"/><polygon points="390.073 993.924 400.687 998.889 378.01 1047.146 367.396 1042.163 390.073 993.924 390.073 993.924" fill="#fff"/><polygon points="397.397 1046.357 436.93 1024.798 410.325 1014.746 413.966 1005.114 454.69 1020.502 451.544 1028.858 412.004 1050.434 439.462 1060.806 435.813 1070.436 394.243 1054.715 397.397 1046.357 397.397 1046.357" fill="#fff"/><polygon points="466.922 1024.411 505.724 1034.748 503.047 1044.815 475.487 1037.466 472.702 1047.902 496.956 1054.362 494.281 1064.429 470.025 1057.968 467.149 1068.775 495.07 1076.207 492.392 1086.293 453.222 1075.855 466.922 1024.411 466.922 1024.411" fill="#fff"/><path d="M531.7,1082.853c9.479,1.511,16.9-3.876,18.372-13.189l.026-.151c1.476-9.33-3.868-16.9-13.357-18.406L527.8,1049.7l-5.05,31.729,8.952,1.426Zm-13.835-45.472,20.537,3.272c16.554,2.616,26.186,15.805,23.826,30.622l-.015.151c-2.366,14.816-15.621,24.515-32.175,21.9l-20.546-3.271,8.373-52.67Z" fill="#fff"/><path d="M624.865,1075.216c5.87-.485,9.783-8.471,9.783-8.471v-.459c.084-5.236-3.486-8.122-9.278-8.239l-8.964-.151v16.247l8.459,1.073Zm-20.263-27.8,21.763.385c12.721.2,20.271,7.87,20.087,18.76v-.36c-.221,12.545-10.029,18.878-22.11,18.674l-9.009-.155-.273,16.251H603.529l1.073-53.554Z" fill="#fff"/><path d="M682.584,1070.823c5.688-.556,8.658-3.894,8.238-8.374l-.017-.151c-.469-5.017-4.211-7.249-9.9-6.728l-11.611,1.107,1.443,15.252,11.846-1.106Zm-25.974-23.576,24.279-2.316c6.761-.62,12.183.773,15.991,3.926,3.255,2.686,5.234,6.713,5.705,11.713l.017.152c.8,8.573-3.306,14.411-9.816,17.551l14.766,17.751-13.659,1.293-13-15.942-9.178.873,1.612,17-11.679,1.107-5.034-53.106Z" fill="#fff"/><path d="M759.247,1059.093l-.015-.135c-1.879-8.943-10.017-15.034-19.263-13.087s-14.128,10.605-12.249,19.548l.033.134c1.879,8.961,10.017,15.051,19.263,13.1s14.111-10.6,12.231-19.564Zm-43.473,9.128-.018-.134c-3.119-14.85,6.024-29.465,22.132-32.836,16.108-3.39,30.2,6.191,33.308,21.041l.032.152c3.12,14.831-6.041,29.445-22.149,32.818-16.108,3.39-30.185-6.19-33.3-21.041Z" fill="#fff"/><polygon points="777.52 1026.743 816.112 1014.109 819.435 1024.242 792.001 1033.22 795.525 1044.009 819.703 1036.089 823.026 1046.24 798.846 1054.159 805.274 1073.774 794.114 1077.433 777.52 1026.743 777.52 1026.743" fill="#fff"/><polygon points="826.65 1010.014 863.496 993.941 867.675 1003.504 841.5 1014.93 845.811 1024.831 868.849 1014.796 873.01 1024.344 849.99 1034.394 854.469 1044.646 880.98 1033.086 885.159 1042.649 847.959 1058.876 826.65 1010.014 826.65 1010.014" fill="#fff"/><path d="M893.465,1029.83l2.014-10.62c6.123,1.141,11.744.888,17.063-2.065,4.179-2.332,5.789-5.4,4.278-8.138l-.082-.117c-1.443-2.6-3.776-3.054-12.669-.7-10.7,2.8-18.2,3.574-23.339-5.672l-.085-.133c-4.7-8.457-1.006-17.82,8.507-23.09a30.878,30.878,0,0,1,20.588-3.707l-1.04,10.689c-5.7-.571-10.721-.052-14.649,2.13s-5,5.117-3.741,7.4l.068.117c1.711,3.053,4.261,2.953,13.456.536,10.806-2.785,18.02-2.349,22.534,5.79l.067.117c5.151,9.263.974,18.355-9.077,23.928a33.874,33.874,0,0,1-23.893,3.539Z" fill="#fff"/><path d="M940.062,1003.05l1.024-10.771c6.192.553,11.763-.218,16.795-3.658,3.96-2.7,5.269-5.922,3.507-8.491l-.1-.134c-1.679-2.449-4.045-2.667-12.686.471-10.4,3.824-17.8,5.285-23.793-3.44l-.082-.134c-5.471-7.988-2.668-17.653,6.307-23.811a30.881,30.881,0,0,1,20.17-5.6l-.034,10.739c-5.739-.034-10.69.955-14.4,3.49s-4.5,5.587-3.036,7.717l.082.117c1.981,2.9,4.514,2.552,13.459-.721,10.5-3.775,17.735-4.01,22.986,3.658l.084.118c5.991,8.743,2.685,18.2-6.813,24.7a33.929,33.929,0,0,1-23.473,5.753Z" fill="#fff"/><polygon points="959.742 933.636 968.921 926.337 1002.092 968.032 992.915 975.331 959.742 933.636 959.742 933.636" fill="#fff"/><path d="M1030.131,907.342l-.1-.1c-6.275-6.629-16.377-7.551-23.238-1.058-6.848,6.509-6.461,16.427-.169,23.054l.1.1c6.292,6.627,16.393,7.55,23.239,1.057,6.845-6.51,6.46-16.426.168-23.055ZM997.948,937.9l-.117-.117c-10.421-10.974-10.285-28.223,1.627-39.532,11.947-11.326,28.927-10.553,39.364.436l.1.117c10.436,10.992,10.3,28.223-1.627,39.533s-28.927,10.554-39.348-.437Z" fill="#fff"/><polygon points="1028.47 870.697 1035.416 862.392 1076.677 864.288 1051.457 843.213 1058.907 834.32 1099.848 868.566 1093.438 876.218 1050.82 874.288 1076.843 896.051 1069.411 904.944 1028.47 870.697 1028.47 870.697" fill="#fff"/><path d="M1110.284,814.437l-18.322-3.624,10.5,15.436,7.819-11.812Zm-32.97-7.014,5.955-9.01,57.352,10.538-6.744,10.218-12.67-2.535-12.416,18.809,7.282,10.639-6.577,9.983-32.182-48.642Z" fill="#fff"/><polygon points="1100.788 770.659 1106.224 760.29 1143.961 780.023 1156.259 756.481 1165.689 761.43 1147.971 795.325 1100.788 770.659 1100.788 770.659" fill="#fff"/><path d="M447.911,495.994c-3.011,2.735-9.781,6.1-15.3,7.482-15.066,3.8-34.387,2.325-35.109,2.325V441.889c12.768,0,35.051-1.938,49.43,8.373,7.031,5.093,11.167,13.146,11.36,23.574.185,7.324-2.507,15.412-10.379,22.158Zm-3.953-75.317c-8.011-.871-31.232-1.107-31.232-1.107l-94.633.05v20.689l15.994,4.909c12.979,4.135,12.979,5.377,12.979,14.831l.091,90.648c0,9.481,0,10.009-13.04,14.138l-16.024,4.537v20.816h108.38V569.394l-15.945-4.533c-13.028-4.125-13.028-4.652-13.028-14.123l.052-21.715H423.12c23.541-.369,42.586-1.879,59.582-11.477,16.183-9.187,25.06-26.166,25.06-43.918,0-28.66-22.66-48.047-63.8-52.252" fill="#fff"/><path d="M710.371,526.338l16.561-4.848V501.124H618.552v20.8l16.683,4.858c11.833,3.639,12.29,4.95,12.29,14.382v28.307c-5.966,1.178-17.276,1.269-24.578.21-39.166-5.7-50-34.4-50-64.475,0-16.9,5.738-32.267,18.712-44.731,9.281-8.927,23.481-17.02,45.033-16.213,9.416.335,20.217,4.79,23.953,7.38,10.716,7.42,13.234,16.178,16.075,26.945H704.4l-.117-42.3S676.5,417.3,628.512,417.3c-38.1,0-113.059,15.874-113.059,90.44,0,45.766,38.4,81.48,105.245,84.885,46.043,2.334,77.261-11.292,77.261-11.292l-.032-40.634c0-9.414.419-10.723,12.2-14.356" fill="#fff"/><path d="M789.166,531.17c10.9-20.773,26.225-50.4,27.3-52.561,1.074,2.476,15.1,31.436,25.371,52.561Zm136.649,33.3c-9.648-3.531-11.813-5.25-14.582-11.332L844.1,419.57H816.577L741.508,555.724c-2.736,5.126-5.2,6.316-11.46,8.557l-17.066,5.209v19.625h83.7v-20.25l-18.6-4.762c-3.962-.984-3.81-3.593-2.866-5.345,0,0,2.428-4.587,6.1-11.492h68.7c3.737,6.946,4.7,8.355,5.943,10.883,1.75,3.686-1.684,5.346-6.062,6.564l-16.737,4.6v19.807H940.473V570.174l-14.7-5.345" fill="#fff"/><path d="M557.387,783.341V738.272h-5.319L531.634,750.84V757.8l10.357-5.821c-.032.033.175,0,.373-.017v31.819c0,4.38,0,4.38-4.945,5.908l-5.785,1.729V796.6l3.757-.167,12.478-.218,20.709.318.109-5.116-7.249-2.131c-3.624-1.059-3.892-1.143-3.892-5.655" fill="#202945"/><path d="M603.529,763.7a13.253,13.253,0,0,1-6.592,1.945c-3.911,0-7.585-1.275-7.585-10.821,0-4.363,1.106-9.548,6.443-9.548,5.117,0,7.734,5.672,7.734,16.879V763.7Zm-7.877-25.187c-13.852,0-22.1,7.031-22.1,18.777,0,10.269,6.946,16.864,17.711,16.864a22.608,22.608,0,0,0,11.7-3.323c-.923,10.922-8.071,18.49-18.44,18.49a18.917,18.917,0,0,1-7.191-1.41l-1.711-.653-2.029,5.772,1.577.637a33.075,33.075,0,0,0,13.766,2.785c17.988,0,30.086-13.675,30.086-33.994,0-15.436-8.306-23.945-23.373-23.945" fill="#202945"/><path d="M650.744,783.341V738.272h-5.318L624.991,750.84V757.8l10.366-5.821c-.05.033.149,0,.364-.017v31.819c0,4.38,0,4.38-4.966,5.908l-5.764,1.729V796.6l3.747-.167,12.476-.218,20.7.318.134-5.116-7.231-2.131c-3.659-1.059-3.893-1.143-3.893-5.655" fill="#202945"/><path d="M688.744,790.392c-3.909,0-7.954-2.063-7.954-17.1v-1.478a12.369,12.369,0,0,1,6.527-1.88c3.289,0,7.634,1.059,7.634,10.3,0,6.7-2.08,10.151-6.207,10.151Zm4.663-28.962a25.084,25.084,0,0,0-11.912,3.19c1.274-11.83,7.8-19.045,18.506-19.045a21.826,21.826,0,0,1,7.063,1.159l1.629.553,2.265-5.588-1.729-.671a36.373,36.373,0,0,0-13.876-2.518c-18.238,0-29.884,13.457-29.884,34.247,0,15.924,7.886,24.027,23.592,24.027,13.474,0,21.83-7.081,21.83-18.541,0-9.883-7.215-16.813-17.484-16.813" fill="#202945"/></svg>