<svg fill="#231f61" xmlns="http://www.w3.org/2000/svg" viewBox="0 0 655.82 865.06"><path d="M643.68,817.74c-19.85-1.76-38.59,9.75-58.36,6.38L279,496.45c4.42-8.36,5.13-22.38,4.4-36.24-1.55-29.7-37.85-106.65-43.68-177.11.16-.06,6.94-1.57,6.95-1.62,1.46-7-13.39-137.45-14.31-145.41-.09-.81-.23-1.65-.41-2.52,4.25,3.64,8.6,1.54,16.07,1.05,15.53-1,28.42-5,39.77-16.6,4.88-5,10-12.73,10.67-19.69a26.55,26.55,0,0,0-1.07-10.47c5.37,7,8.24,12.06,18.68,15.17,9.23,2.75,25.28,4.85,29.15-7.09-12-11.45-23.78-16.12-23.82-34.06,0-19.38-1-33.32-16.87-47.21C291.48,3.23,270.39-3.53,253.35,1.91,236.85,7.18,228.14,24,217.57,36.41c.58.35,1.15.68,1.71,1h-.07C216,56,215.64,72.14,200.67,84.49l.8.79-.37-.31c-3-2.39-40.5,10.22-52.92,18.46-20,13.29-54.68,67.16-55.55,69C81.45,195.34,44.09,282.66,40.21,293.13c-1.46,3.93-1.85,9.64.47,13.57a2.09,2.09,0,0,0,.33.39c-13.68,4.47-34.8,38.39-39.35,61.41C-7,412.37,20.67,484.6,27.3,528.93c11.07,73.94,19.88,147.35,20.86,222.51.34,26.36,9.7,54.71,5.7,81-.67,4.43-4,16.68,4.42,18.66-6,16.63,106.1,14.36,124,12.93,57.35-4.58,20.35-25.58,9.85-29.43-4-1.46-26.13-8.83-44.42-8.25,19.16-6.93-16.34-27.05-18.43-41.56-.66-4.55,4.79-13.17,6.72-17.58,4.75-10.89,5.72-21,7.53-33,5.1-33.68,10-67.4,15.25-101,3.23-20.55,10-43,9.77-63.83-.34-31-1.67-63.09-10.06-92.84a309.13,309.13,0,0,1-9.94-52.42c-1.8-18,9.35-59.07,3.23-66.41l1.33.82,2.66-3.87,0,0,0,0c10.51-3.4,36.46-47.93,35.31-55.72,6.87,17.78,16.54,44.56,16.54,44.56s28.82,84.9,38.72,118.08L241.17,456l-9.5,7.5,14,14.68c-3.29,2.18-7.4,4.57-7.2,6.37.43,4,19.85,17.65,23.26,18.69a16.51,16.51,0,0,0,8.49.6L582.43,830.16c4.23,3.33,4.82,3.06,26.8,15.16,5.7,3.14,26,14,32.43,8.17C653.4,842.89,665.59,819.68,643.68,817.74Z"/></svg>