<svg fill="#231f61" xmlns="http://www.w3.org/2000/svg" viewBox="0 0 847.2 867.19"><path d="M842.44,838.88c.4-13.74,1.18-26.67-2-39.9-2.32-9.75-5.11-19.38-7.33-29.17-3.71-16.39-8.37-33.9-8.84-50.78-.34-12.56,4.06-24.67,4.62-37.48a445.36,445.36,0,0,0-2.85-74.44c-2-15.88-4-31.75-5.48-47.69-1.75-19.55,3.09-37.44,3-56.9-.16-23.08-2.7-45.74-2.66-68.75,0-10.72-.69-21.39-1-32-.25-9.51,2.4-14.12,4.62-23.45,5.89-24.71-7.95-51.17-8.68-75.78-.74-25.05-14.81-48.38-18-73.8-2-15.48,4-28.37,4.78-43.9a147.88,147.88,0,0,0-.13-22c-.29-2.78-6.23-18.92-9-23.14-6.72-10.34-12.83-22-20.53-31.68-7.27-9.11-30.26-19.28-32.77-30.82-.77-3.55,5.28-14.64,5.28-20.29,0-6.24-.76-15.4-2.62-21.31C737.51,18.31,726.69,11,711.25,3.71c-11.46-5.43-14.42-4-25.71-1.27C680.43,3.7,669.87,8,666,12.06c-15.28,16.06-16.58,28.55-20,35-3.26,6.15-33.8,16.9-42.45,27.65-7.64,9.5-13.1,21.78-17.84,33-5.76,13.61-5.46,27.73-10.43,41.17-4.48,12.11-11,27.38-18.06,38.11-8.35,12.62-24.73,20.89-37.2,29.72-21.06,14.9-42.11,30-63.87,43.85-16.05,10.23-25.32,8.33-44.86,7.88-10.1-.23-28-.7-38,5.39L42.88,90.72c-8.08-18.35-1.48-39.33-8-58.15C27.65,11.79,8.11,29.26.68,43.22c-4.09,7.69,11.38,24.7,15.82,29.47C33.58,91.06,34.5,95.6,37.73,95L366.6,282.17a15.75,15.75,0,0,0-.46,5.5c1.24,15,10.53,15.32,19.64,21.26.49.32,16.83,8.06,19,7.62,1.31.38,8.45,8.57,12.23,11.18,5.88,4.07,15.33,9,22.71,7.9,4.05-.61,8.49-2.45,13-4.47l26,14.82,5-11-17.21-9.53.35-.11c24.19-7,49.52-10.5,73.56-17.73s49.11-18.77,72-29.44c0,7.88,5.09,15.86,4.77,23.53-.28,6.6-4.78,14.39-7.14,20.57-6.41,16.72-10.55,28.3-4,45.62,5,13.29,4.24,8,0,21.34-1.37,4.33.24,7.55-.34,11.81-1,7.41-4,7.43-6,13-4.08,11.76-4.61,26.27-4.66,38.66-.23,61.13,3.09,126.51-6.7,186.93-2.87,17.71-6.09,35.35-8.86,53.08-4.37,28-14.6,59.1-9.69,87.33,1.26,7.23,4.83,15.8,4.94,23,.1,6.84-3.33,15.28-4,22.6-.36,4.09.67,9.16.15,13-.57,4.16-6.74,13-5.4,17,5,14.58,30,10.34,40.59,10.28,5.71,0,11.83,2.94,17.89-.14,6.65-3.38,5.81-6.82,8.86-11.61,8.32-13.07,14.18-16.65,12.65-32.73-1.84-19.32-6.37-39.6-3.66-58.82,4.37-31,12.34-62,18.51-92.71,8.78-43.75,17.54-87.52,26.86-131.16,2.24-10.49,24.47-82.7,22.69-84,3.75,2.67,5.88,2.08,8.66,5.67,2.36,3,3.35,9,4.83,12.61a71.44,71.44,0,0,1,4.38,14.87c3.26,16,5.86,32.07,9.29,48,4.7,21.87,8.92,42.45,10.39,64.9,3.76,57.56,5.55,116.49-.08,173.71-1.9,19.31,3.54,32.24,10.45,49.8,5.6,14.25,23.93,33,26.18,34.7,9.09,6.72,29.16,2,40.29,1.16,5.72-.44,15.34.55,19.51-3.7C851,849.21,844.89,846.12,842.44,838.88Z"/></svg>