<svg enable-background="new 0 0 424.1 424.1" version="1.1" viewBox="0 0 424.1 424.1" xml:space="preserve" xmlns="http://www.w3.org/2000/svg">
<style type="text/css">
	.st0{fill:#FFFFFF;}
	.st1{fill:#B4975A;}
	.st2{fill:#00234B;}
	.st3{fill-rule:evenodd;clip-rule:evenodd;fill:#00234B;}
</style>
	<path class="st0" d="m411.5 214.4c0 111.6-90.4 202-202 202s-202-90.4-202-202 90.4-202 202-202c111.5 0 202 90.5 202 202z"/>
	<path class="st1" d="m212 0c-116.9 0-212 95.1-212 212s95.1 212 212 212 212-95.1 212-212c0.1-116.9-95-212-212-212z"/>
	<path class="st2" d="m211.9 19.4c-106.4 0-192.9 86.6-192.9 193s86.6 192.9 192.9 192.9c106.4 0 192.9-86.6 192.9-192.9 0.1-106.4-86.5-193-192.9-193z"/>
	<path class="st1" d="m212 353.9c77.7 0 141-63.2 141-141 0-77.7-63.3-140.9-141-140.9s-140.9 63.2-140.9 140.9 63.2 141 140.9 141z"/>
	<path class="st3" d="m223.6 97.9c-2.5 0.2-3.7 3.2-3.2 6.1 2.9-0.3 5.5-0.8 7.9-1.6-0.3-1.1-0.7-2.1-1.4-2.9s-1.8-1.7-3.3-1.6zm-24.2 0.1c-1.3-0.4-2.6 0.3-3.4 1-0.9 0.9-1.6 2.1-2 3.5 2.5 0.7 5.1 1.3 7.9 1.6 0.5-2.7-0.4-5.4-2.5-6.1zm11.6-0.2c-2 0.1-3.6 0.9-4.8 2-1.1 1.1-1.8 2.6-2 4.3 4.4 0.5 9.6 0.4 13.9 0-0.2-1.9-1-3.4-2.2-4.6-1-0.8-2.9-1.8-4.9-1.7zm18.2 15.8c-0.1-1.2-0.4-2.1-1-2.9-0.5-0.7-1.3-1.4-2.5-1.4-1.9 0-3.1 1.3-3.8 2.5-0.9 1.4-1.3 3-1.2 4.9-0.7 0.1-1.6 0.3-2.3 0.4-0.1-2.1-0.9-3.7-2.1-4.8s-2.9-1.9-5.1-1.9-3.8 0.8-5.1 1.9-2.1 2.7-2.2 4.8c-0.8-0.1-1.6-0.2-2.3-0.4 0.1-3.2-1.1-5.6-3.2-6.8-1.2-0.7-2.8-0.6-3.7 0.2s-1.4 2-1.5 3.5c-0.1 0-3.3-2.7-4-3.7 0-0.5-0.1-0.9-0.1-1.4 0-12.1 9.9-22 22-22 12.2 0 22 9.9 22 22v1.1c-0.4 0.7-1.6 2.4-3.9 4zm-1.3 4.7c-0.8 1.1-1.9 2.3-3.6 2.4-0.8 0.1-1.6-0.3-2.2-0.8-0.8-0.7-1.2-1.8-1.4-3.3 3.1-0.7 5.9-1.6 8.4-3 0.1 1.8-0.4 3.4-1.2 4.7zm-11.7 3.7c-1.2 1.1-2.9 1.9-5.1 1.9s-3.9-0.8-5.1-1.9-2.1-2.7-2.1-4.8v-0.1c4.3 0.7 10.1 0.7 14.4 0 0.1 2.2-0.8 3.7-2.1 4.9zm-18.1-1.3c-1.6 0-2.9-1.2-3.7-2.3-0.9-1.3-1.4-2.8-1.4-4.7v-0.1c2.4 1.4 5.3 2.3 8.4 3-0.2 2.2-1.2 4.1-3.3 4.1zm13.1-38.7c-14.6 0-26.4 11.9-26.4 26.4 0 14.6 11.9 26.4 26.4 26.4 14.6 0 26.4-11.8 26.4-26.4 0-14.5-11.9-26.4-26.4-26.4z"/>
	<path class="st2" d="m303 296.2c-0.2-0.2-5.6-4.6-14.7-5.3-2.8-0.3-4.5-0.3-10.4 0.8-5.1 1.1-8.1 2.3-9.8 3.2-1.6-2.2-19.6-26-29.1-38.8-1.8 0.5-3.9 0.9-6.2 1.4l33.8 53.9 0.4 0.3c0.4 0.2 3.9 2.2 14 2 6.3-0.1 14.4-1.8 14.9-1.9 4.3-1.1 6.8-9.8 7.7-13.4l0.3-1.3-0.9-0.9zm-146.8-1.4c-1.8-0.9-4.7-2.1-9.8-3.2-5.9-1.1-7.6-1.1-10.4-0.8-9 0.7-14.4 5.1-14.7 5.3l-1 0.9 0.3 1.3c0.9 3.7 3.4 12.3 7.7 13.4 0.4 0.1 8.5 1.7 14.9 1.9 10.1 0.2 13.6-1.8 14-2l0.4-0.3 34.9-55.6c-1.9-0.6-3.8-1.2-5.6-1.9-8.7 12-29 38.7-30.7 41zm95.7-118.6l42.7-55.5s-1-4.3-4.9-6.9c-3.8-2.5-8.3-2-8.3-2l-40.3 59c6.1 2.2 9.7 4.6 10.4 5.1l0.4 0.3zm-67.5-3.7l-41.4-60.7s-4.4-0.5-8.3 2c-3.9 2.6-4.9 6.9-4.9 6.9l44.4 58c3.1-2.4 6.5-4.5 10.2-6.2z"/>
	<path class="st2" d="m217.8 166.5c3.2-11.4 9.1-20.6 9.1-20.6v-5.7c-17.9 1.3-33.8 0-33.8 0v5.7s5.7 9.4 8.9 21.3c3.8-0.5 7.6-0.8 11.4-0.8 1.4 0 2.9 0 4.4 0.1z"/>
	<path class="st2" d="m183.8 327.4v-20.3h-0.5l-8.7 6.8v2.9l4.5-2.4h-1.4v13.1s1.6 1.8-0.5 2.4l-2.6 0.7v2.1l1.8-0.1 5.1-1h8.4v-1.1l-3-0.9c-1.5-0.4-1.6-0.5-1.6-2.3h-1.5z"/>
	<path class="st2" d="m223.8 327.4v-20.3h-2l-7.2 6.8v2.9l3-2.4h0.1v13.1s0.1 1.8-2 2.4l-1.1 0.7v2.1l0.3-0.1 5.1-1h8.4v-1.1l-3-0.9c-1.5-0.3-1.6-0.4-1.6-2.2z"/>
	<path class="st2" d="m205.3 319.4c-1.1 0.6-1.8 0.8-2.7 0.8-1.6 0-3.1-0.5-3.1-4.5 0-1.8 0.5-3.9 2.7-3.9 2.1 0 3.2 2.3 3.2 7-0.1-0.1-0.1 0.2-0.1 0.6zm-4.3-10.4c-5.7 0-9.1 2.9-9.1 7.7 0 4.2 2.9 7 7.3 7 1.8 0 3.4-0.5 4.8-1.4-0.4 4.5-3.3 7.6-7.6 7.6-1 0-1.9-0.2-2.9-0.6l-0.7-0.3-0.8 2.4 0.6 0.3c1.8 0.8 3.6 1.1 5.7 1.1 7.4 0 12.4-5.6 12.4-14 0-6.3-3.5-9.8-9.7-9.8z"/>
	<path class="st2" d="m239.3 330.4c-1.6 0-3.3-0.8-3.3-7v-0.6c0.9-0.5 1.7-0.8 2.7-0.8 1.4 0 3.2 0.4 3.2 4.3 0 2.6-0.9 4.1-2.6 4.1zm2-12c-1.8 0-3.4 0.5-4.9 1.3 0.5-4.9 3.2-7.9 7.6-7.9 1 0 1.9 0.1 2.9 0.5l0.7 0.2 0.9-2.3-0.7-0.3c-1.8-0.7-3.6-1-5.7-1-7.5 0-12.3 5.5-12.3 14.1 0 6.6 3.3 9.9 9.7 9.9 5.6 0 9-2.9 9-7.6 0-4-3-6.9-7.2-6.9z"/>
	<path class="st0" d="m212 353.9c-77.7 0-140.9-63.2-140.9-141 0-77.7 63.2-140.9 140.9-140.9s141 63.2 141 140.9-63.3 141-141 141zm-0.1-289.8c-81.8 0-148.3 66.5-148.3 148.3s66.5 148.3 148.3 148.3 148.3-66.5 148.3-148.3-66.5-148.3-148.3-148.3z"/>
	<path class="st0" d="m211.9 405.3c-106.4 0-192.9-86.5-192.9-192.9s86.6-193 192.9-193c106.4 0 192.9 86.5 192.9 193 0.1 106.4-86.5 192.9-192.9 192.9zm0.1-393.9c-110.6 0-200.7 90-200.7 200.7 0 110.6 90 200.7 200.7 200.7s200.7-90 200.7-200.7-90-200.7-200.7-200.7z"/>
	<path class="st0" d="m120.7 356.2c-2 3-5.8 4-8.9 2-3.1-2.1-3.6-6-1.6-9v-0.1c2-3 5.8-4 8.9-1.9s3.6 6 1.6 9zm0.8-12.5c-5.4-3.6-12-2.2-15.3 2.8s-2.2 11.6 3.2 15.2 12 2.2 15.3-2.8c3.4-5 2.2-11.6-3.2-15.2z"/>
	<polygon class="st0" points="126.9 371.8 131.1 373.8 134.5 366.5 143.6 370.7 145.4 367 136.3 362.7 138.2 358.6 148.5 363.5 150.3 359.7 135.8 352.9"/>
	<path class="st0" d="m170.9 378.9l4.2-6 1.3 7.2-5.5-1.2zm3.4-11.9l-13.3 18.7 4.6 1 2.9-4.2 8.7 1.9 0.9 5 4.7 1-4.2-22.6-4.3-0.8z"/>
	<polygon class="st0" points="201.9 380 196.9 370.8 191.9 370.5 190.8 391.5 195.3 391.8 196.1 378.2 201.4 387.3 201.5 387.3 207.9 378.7 207.2 392.4 211.8 392.6 212.9 371.7 207.9 371.4"/>
	<polygon class="st0" points="225.9 387.7 225.5 383.3 235.3 382.3 234.9 378.3 225.1 379.2 224.7 375 235.8 373.9 235.4 369.8 219.7 371.3 221.7 392.2 237.6 390.7 237.2 386.6"/>
	<path class="st0" d="m253.1 376.5l-4.6 1.1-1.4-5.9 4.4-1.1c2.2-0.5 3.8 0.1 4.2 2.1v0.1c0.5 1.7-0.5 3.1-2.6 3.7zm7.2-5.1c-0.5-2-1.5-3.4-2.9-4.3-1.7-1-3.9-1.3-6.4-0.6l-9.3 2.3 5 20.4 4.5-1.1-1.6-6.5 3.5-0.8h0.1l6 5.5 5.2-1.3-6.8-6.1c2.2-1.7 3.5-4.2 2.7-7.5z"/>
	<polygon class="st0" points="265.1 362.2 272.4 381.9 276.7 380.3 269.5 360.6"/>
	<path class="st0" d="m293.4 368.6c-3.2 1.6-6.8 0.1-8.4-3.1v-0.1c-1.6-3.2-0.7-7 2.5-8.6 1.9-0.9 3.7-0.9 5.9-0.3l1.1-4.3c-2.6-0.8-5.3-0.9-8.8 0.9-5.7 2.9-7.5 9.3-4.8 14.6v0.1c2.7 5.4 9 7.5 14.5 4.7 3.6-1.8 5.1-4.2 6-7.2l-4-1.3c-1 1.9-1.9 3.5-4 4.6z"/>
	<path class="st0" d="m314.7 349.5l-4.5 3.3-1.7-7.2 6.2 3.9zm-11.2-7.2l5 22.4 3.8-2.8-1.2-4.9 7.2-5.2 4.3 2.7 3.9-2.8-19.5-11.9-3.5 2.5z"/>
	<path class="st0" d="m72.6 320.8l-2.2-2.8c-1.4-1.8-1.4-3.7 0.3-4.9 1.4-1.1 3.4-0.9 4.8 1l2.2 2.9-5.1 3.8zm8.4-6.4l-2.1-2.8c-2.9-3.8-7.2-5.3-11.1-2.3-3.4 2.6-4 6.8-0.9 10.8l5.2 6.8 16.8-12.8-2.8-3.7-5.1 4z"/>
	<path class="st0" d="m58.4 299.9l-2.2-4c-1.1-2-0.9-3.7 0.9-4.6h0.1c1.5-0.8 3.2-0.3 4.3 1.7l2.3 4.1-5.4 2.8zm14.8-8.2l-5.9 3.3-1.7-3.1v-0.1l3.7-7.2-2.6-4.8-4.1 8.1c-2.2-1.9-4.9-2.5-7.9-0.8h-0.1c-1.7 1-2.9 2.3-3.3 3.9-0.6 1.9-0.2 4.1 1.1 6.4l4.6 8.4 18.5-10.1-2.3-4z"/>
	<path class="st0" d="m52.7 273.9c-3.4 1.2-7-0.3-8.3-3.8-1.2-3.5 0.7-7 4.1-8.2h0.1c3.4-1.2 7 0.3 8.3 3.8s-0.7 7-4.2 8.2zm1.7 4.5c5.7-2 8.7-8 6.5-14.1-2.1-6.1-8.3-9-14-7h-0.1c-5.7 2-8.7 8-6.5 14.1 2.3 6.2 8.4 9 14.1 7z"/>
	<polygon class="st0" points="54.7 242.6 46.7 244 44.9 234.1 40.8 234.8 42.5 244.7 38.1 245.5 36.1 234.3 32 235 34.8 250.8 55.5 247.1"/>
	<polygon class="st0" points="51.5 208.9 47.4 209.1 47.8 220.5 43.4 220.6 43.1 210.7 38.9 210.9 39.3 220.8 35 220.9 34.6 209.7 30.5 209.8 31.1 225.7 52.1 224.9"/>
	<path class="st0" d="m36.9 202.5c4.2-1 5.7-3.6 7.2-7.7 1.3-3.4 1.9-4.1 3.1-4h0.1c1.2 0.1 1.9 1.3 1.7 3.2-0.3 2.4-1.4 4.3-3.2 6l3 3.1c2.5-2.3 3.9-5.4 4.3-8.5 0.5-4.5-1.5-7.9-5.7-8.4h-0.1c-3.7-0.4-5.4 1.9-7 6-1.3 3.5-1.9 4.4-3.2 4.1h-0.1c-1 0-1.7-1-1.5-2.8s1.1-3.5 2.6-5.2l-3.2-2.7c-1.9 2-3.2 4.5-3.5 7.5-0.5 4.3 1.8 7.6 5.5 8v1.4z"/>
	<path class="st0" d="m39.9 177.6c4.1 1 5.9-1.4 8-5.2 1.7-3.2 2.5-3.8 3.6-3.5h0.1c1.2 0.3 1.7 1.6 1.2 3.4-0.6 2.3-2 4-4 5.5l2.5 3.4c2.8-1.9 4.6-4.8 5.4-7.9 1.1-4.4-0.5-8.1-4.5-9.1h-0.1c-3.6-0.9-5.6 1.1-7.7 5-1.8 3.3-2.4 4.1-3.8 3.8h-0.1c-1-0.2-1.6-1.3-1.1-3.1 0.4-1.7 1.6-3.3 3.3-4.8l-2.8-3.2c-2.2 1.7-3.7 4-4.5 7-1 4.2 0.8 7.8 4.5 8.7z"/>
	<polygon class="st0" points="62.1 154.9 42.4 147.6 40.8 152 60.6 159.2"/>
	<path class="st0" d="m54.4 130.4c1.7-3.3 5.6-4.3 8.8-2.6h0.1c3.2 1.7 4.6 5.3 2.9 8.6s-5.6 4.3-8.8 2.6h-0.1c-3.2-1.7-4.6-5.3-2.9-8.6zm0.7 12.9c5.4 2.8 11.8 0.9 14.8-4.9s0.8-12.2-4.5-15-11.8-0.9-14.8 4.9-0.8 12.3 4.5 15z"/>
	<polygon class="st0" points="81.4 118.9 70.7 110.3 87.5 110.3 89.9 107.7 73.2 94.9 70.4 98.6 80.7 107.3 64.4 107.3 61.8 109.8 78.6 122.6"/>
	<path class="st0" d="m97.9 87.2l-4.1 3.8-2.7-6.9 6.8 3.1zm-0.6 12.7l-1.8-4.7 6.5-6.1 4.6 2.1 3.5-3.3-21.1-9.3-3.1 2.9 8 21.6 3.4-3.2z"/>
	<polygon class="st0" points="127.4 75.7 125 72.2 116.3 78.2 106.7 64.4 102.9 67 114.9 84.3"/>
	<path class="st0" d="m138.4 57.7c2.3 5.8 8.2 8.4 14.3 5.9 3.6-1.4 5.8-3.9 7.1-6.5l-3.4-8.5-8.5 3.4 1.5 3.7 4.3-1.7 1.1 2.8c-0.8 1.2-2 2.2-3.6 2.8-3.5 1.4-7-0.2-8.4-3.8-1.3-3.3 0-7.1 3.2-8.3 2.3-0.9 3.9-0.7 5.9-0.1l1.4-4.4c-2.7-0.9-5.2-1-8.8 0.4-5.9 2.4-8.4 8.7-6.1 14.3z"/>
	<path class="st0" d="m174.2 38.9c3.6-0.8 6.9 1.6 7.6 5.2v0.1c0.7 3.5-1.2 7-4.8 7.7-3.7 0.8-6.9-1.6-7.6-5.1v-0.1c-0.7-3.6 1.2-7.1 4.8-7.8zm-9.5 8.8c1.3 5.9 6.8 9.6 13.2 8.3 6.4-1.4 10-7.1 8.7-13v-0.1c-1.3-5.9-6.8-9.6-13.2-8.3-6.4 1.4-10 7.2-8.7 13.1z"/>
	<polygon class="st0" points="210.8 51.9 210.5 47.7 200 48.3 199.1 31.5 194.5 31.7 195.6 52.7"/>
	<polygon class="st0" points="222.2 44.3 232.2 45.1 232.6 40.9 222.6 40.1 222.9 35.6 234.3 36.5 234.6 32.3 218.6 31.1 216.9 52.1 221.6 52.4"/>
	<polygon class="st0" points="255.8 53.9 244.7 51.4 245.7 47.1 255.3 49.3 256.2 45.2 246.6 43 247.5 38.9 258.5 41.3 259.4 37.3 243.9 33.8 239.3 54.4 254.9 57.9"/>
	<path class="st0" d="m271.9 45.9l4.3 1.7c2.1 0.8 3 2.3 2.3 4.1v0.1c-0.6 1.6-2.3 2.3-4.4 1.5l-4.4-1.7 2.2-5.7zm-3.6 9.4l3.3 1.3h0.1l1.8 7.9 5 2-2.1-8.9c2.9 0 5.3-1.3 6.6-4.4v-0.1c0.7-1.9 0.7-3.6 0.1-5.2-0.8-1.8-2.5-3.3-5-4.2l-9-3.5-7.6 19.6 4.3 1.7 2.5-6.2z"/>
	<path class="st0" d="m290.4 73.4c4 2.3 7.9 1.8 10-1.8v-0.1c1.8-3.2 0.5-5.7-2.7-8.8-2.7-2.6-3.3-3.4-2.6-4.7 0.5-0.9 1.7-1.1 3.3-0.3 1.6 0.9 2.8 2.5 3.7 4.5l3.8-1.8c-1-2.5-2.8-4.7-5.5-6.2-3.7-2.1-7.6-1.4-9.5 1.9v0.1c-2.1 3.6-0.3 6 2.9 9.1 2.6 2.5 2.9 3.4 2.4 4.4-0.6 1.1-2 1.2-3.6 0.2-2.1-1.2-3.3-3-4.2-5.3l-4 1.5c1 3.2 3.2 5.7 6 7.3z"/>
	<path class="st0" d="m316.2 69.6l2.4-3.3-4-2.8-2.8 3.9 1.5 1.1c-0.9 1.5-2.3 1.7-4.1 0.7l-0.8 1.8c3 2 5.5 1.8 7.8-1.4z"/>
	<path class="st0" d="m338.6 91.2l-3 6.7-3.9-4.1 6.9-2.6zm-11 4.3l6.1 6.5-2.1 4.6 3.3 3.5 9.2-21.1-2.9-3.1-21.6 8 3.2 3.4 4.8-1.8z"/>
	<path class="st0" d="m340 112.2c-0.4 3.4 0.5 6.7 2.3 9.3 2.6 3.7 6.4 5 9.8 2.6 3-2.1 2.9-5 1.4-9.1-1.3-3.5-1.5-4.5-0.3-5.3 0.9-0.6 2-0.3 3.1 1.2 1 1.5 1.4 3.4 1.4 5.7h4.2c0.2-2.7-0.5-5.4-2.3-8-2.5-3.5-6.3-4.6-9.4-2.4-3.4 2.4-2.8 5.3-1.3 9.4 1.3 3.4 1.2 4.3 0.2 5s-2.3 0.2-3.4-1.4c-1.4-2-1.7-4.2-1.5-6.6l-4.2-0.4z"/>
	<path class="st0" d="m360.7 134.6c0.8 3.6 0.6 4.5-0.5 5s-2.3-0.1-3.2-1.8c-1.1-2.1-1.1-4.4-0.6-6.8l-4.2-0.9c-0.9 3.3-0.4 6.7 1.1 9.5 2.1 4.1 5.6 5.8 9.3 3.9h0.1c3.3-1.7 3.5-4.5 2.6-8.8-0.8-3.7-0.8-4.7 0.4-5.3h0.1c0.9-0.5 2.1 0 2.9 1.6s0.9 3.6 0.6 5.8l4.2 0.6c0.5-2.7 0.2-5.4-1.2-8.2-1.9-3.8-5.6-5.4-9-3.7h-0.1c-3.6 1.8-3.4 4.8-2.5 9.1z"/>
	<path class="st0" d="m371.2 153c3.4-1.1 7 0.4 8.2 4 1.2 3.5-0.9 7-4.3 8.1h-0.1c-3.4 1.1-7-0.4-8.2-4-1.1-3.5 0.9-7 4.4-8.1zm-1.6-4.6c-5.7 1.8-8.9 7.8-6.9 14s8.1 9.2 13.8 7.3h0.1c5.7-1.9 8.9-7.8 6.9-14s-8.1-9.2-13.9-7.3z"/>
	<path class="st0" d="m378.2 177.2c-6 0.9-10.1 6.2-9.2 12.3 0.6 4 2.4 6.2 5 8l2.5-3.4c-1.7-1.4-2.9-2.7-3.2-5.1-0.5-3.6 2.1-6.5 5.6-7h0.1c3.6-0.5 6.9 1.6 7.4 5.1 0.3 2.1-0.4 3.9-1.6 5.7l3.8 2.4c1.6-2.2 2.6-4.8 2-8.7-1-6.4-6.5-10.2-12.4-9.3z"/>
	<polygon class="st0" points="370.9 209.3 392 208.6 391.8 204 370.8 204.6"/>
	<path class="st0" d="m379.3 224.5l6.5 3.4-7.1 2.2 0.6-5.6zm-8.5-4.3l4.5 2.4-0.8 8.9-4.9 1.5-0.5 4.8 22-7 0.4-4.3-20.3-10.9-0.4 4.6z"/>
	<polygon class="st0" points="383.7 249.5 367.3 245.7 366.3 250.2 382.6 254 381.2 260.2 385.3 261.2 389.3 244.2 385.1 243.2"/>
	<polygon class="st0" points="361.1 266.9 381 273.9 382.5 269.6 362.7 262.6"/>
	<path class="st0" d="m369.2 291.3c-1.7 3.3-5.6 4.3-8.8 2.7h-0.1c-3.2-1.6-4.7-5.3-3-8.6s5.6-4.3 8.8-2.7h0.1c3.2 1.7 4.7 5.3 3 8.6zm-0.9-12.9c-5.4-2.7-11.8-0.7-14.8 5.1-2.9 5.8-0.7 12.2 4.7 14.9 5.3 2.7 11.8 0.7 14.7-5.1 3-5.8 0.7-12.2-4.6-14.9z"/>
	<polygon class="st0" points="342.3 303 353 313.2 336.2 313.2 333.8 314.4 350.8 327 353.5 323.3 343.1 316.3 359.4 316.3 361.9 311.9 345 299.4"/>
	<path class="st0" d="m247.4 222.3l7.1-2v-8.6h-43v8.5l7.1 2c5 1.5 5.2 2 5.2 5.9v11.6c-2.5 0.5-7.3 0.5-10.4 0.1-16.6-2.3-21.2-14.1-21.2-26.4 0-6.9 2.4-13.2 7.9-18.3 3.9-3.6 9.9-7 19.1-6.6 4 0.1 8.6 2 10.1 3 4.6 3 5.6 6.6 6.8 11h9.1v-18.3c0.5 0-11-7.8-30.8-7.8-15.7 0-46.6 6.5-46.6 37.3 0 18.9 15.8 33.6 43.4 35 19 1 30.9-4.6 30.9-4.6v-15.8c0.1-3.9 0.3-4.5 5.3-6z"/>
	<path class="st0" d="m140 209c-1.2 1.1-4 2.5-6.3 3.1-6.2 1.6-14.2 1-14.5 1v-26.3c5.3 0 14.5-0.8 20.4 3.5 2.9 2.1 4.6 5.4 4.7 9.7 0.1 2.9-1 6.2-4.3 9zm-0.7-30.6c-3.4-0.4-13.4-0.5-13.4-0.5h-40.5v8.8l6.8 2.1c5.5 1.8 5.5 2.3 5.5 6.3v37.3c0 3.9 0 4.1-5.5 5.8l-6.8 1.9v8.6h46.1v-8.4l-6.8-1.8c-5.5-1.7-5.5-1.9-5.5-5.7v-8.7h11.1c10.1-0.2 18.2-0.8 25.5-4.9 6.9-3.9 10.7-11.1 10.7-18.6 0-12.2-9.6-20.4-27.2-22.2z"/>
	<path class="st0" d="m280.8 224.1c4.5-8.6 10.8-20.8 11.3-21.7 0.4 1 6.2 13 10.4 21.7h-21.7zm56.7 14.2c-4-1.5-4.9-2.2-6.1-4.7l-28.1-55.6h-11.6l-31.4 56.7c-1.1 2.1-2.2 2.6-4.8 3.6l-7.1 2.2v8.3h33.8v-8.9l-7.6-2.1c-1.6-0.4-1.5-1.6-1.2-2.4l2.5-5h28.5c1.5 3.1 1.9 3.7 2.4 4.8 0.7 1.6-0.7 2.4-2.5 2.9l-6.8 2v8.7h46.1v-8.2c0-0.1-6.1-2.3-6.1-2.3z"/>
</svg>