<svg version="1.1" xmlns="http://www.w3.org/2000/svg"
	 x="0px" y="0px" width="1107.7px" height="1169.1px" viewBox="0 0 1107.7 1169.1"
	 enable-background="new 0 0 1107.7 1169.1" xml:space="preserve">
<style type="text/css">
	.st0{fill:#B4975A;}
	.st1{fill:#FFFFFF;}
	.st2{fill:#00234B;}
	.st3{fill-rule:evenodd;clip-rule:evenodd;fill:#00234B;}
</style>
<defs>
</defs>
<g>
	<path class="st0" d="M553.8,485.6L0,873.4c119.9,178.2,323.4,295.7,553.8,295.7c230.5,0,434-117.5,553.8-295.7L553.8,485.6z"/>
	<path class="st1" d="M553.8,518.6L37.6,880c116.6,158.8,304.5,262.1,516.2,262.1c211.7,0,399.6-103.3,516.2-262.1L553.8,518.6z"/>
	<path class="st2" d="M553.8,539.9l-491.3,344c114,146.3,291.8,240.7,491.3,240.7c199.5,0,377.3-94.3,491.3-240.6L553.8,539.9z"/>
	<g>
		<path class="st1" d="M122.9,876.1l0.1-0.1c10.2-9.5,25.7-9.7,36,1.3c6.3,6.7,7.9,12.9,7.7,19.3l-10.5,0.4
			c-0.1-5.1-1.2-9.3-4.6-12.9c-5.7-6-14.7-5.7-20.9,0.1l-0.1,0.1c-6.1,5.8-7.2,14.8-1.5,20.9c3.8,4.1,7.8,5,13,5.5l-0.4,9.7
			c-7.4,0-13.7-1.8-20.1-8.6C111.9,901.1,112.7,885.7,122.9,876.1z"/>
		<path class="st1" d="M176.7,896.6l27.5,24.7l-6.4,7.1l-19.5-17.5l-6.6,7.4l17.2,15.4l-6.4,7.1l-17.2-15.4l-6.9,7.7l19.8,17.8
			l-6.4,7.1l-27.8-24.9L176.7,896.6z"/>
		<path class="st1" d="M210.2,926.3l17.9,13.5c5,3.7,7.8,8.1,8.4,12.6c0.5,3.8-0.6,7.8-3.4,11.5l-0.1,0.1
			c-4.8,6.3-11.2,7.7-17.5,5.8l-1,21.2l-10.1-7.6l1-18.8l-6.8-5.1l-9.4,12.5l-8.6-6.5L210.2,926.3z M213.2,958.3
			c4.2,3.2,8.3,2.7,10.8-0.6l0.1-0.1c2.8-3.7,1.6-7.5-2.6-10.7l-8.6-6.4l-8.5,11.2L213.2,958.3z"/>
		<path class="st1" d="M253.7,969.5l-12.6-7.9l5.3-8.4l34.4,21.6l-5.3,8.4l-12.6-7.9l-20.8,33.1l-9.1-5.7L253.7,969.5z"/>
		<path class="st1" d="M287.2,978.1l9.5,5.2l-23.5,43l-9.5-5.2L287.2,978.1z"/>
		<path class="st1" d="M306.1,988.4l33.8,15.8l-4.2,8.9l-24-11.3l-4.4,9.4l21.2,9.9l-4.2,8.9l-21.2-9.9l-8.1,17.2l-9.8-4.6
			L306.1,988.4z"/>
		<path class="st1" d="M347.1,1006.9l10,4l-18.1,45.6l-10-4L347.1,1006.9z"/>
		<path class="st1" d="M367.1,1014.8l35.1,11.5l-3,9.1l-25-8.1l-3.1,9.5l22,7.2l-3,9.1l-22-7.2l-3.2,9.8l25.3,8.3l-3,9.1l-35.5-11.6
			L367.1,1014.8z"/>
		<path class="st1" d="M409.7,1028.5l18.6,4.3c15,3.5,23,16.1,19.9,29.6l0,0.1c-3.1,13.4-15.9,21.5-30.9,18l-18.6-4.3L409.7,1028.5z
			 M418,1040.4l-6.6,28.8l8.1,1.9c8.6,2,15.7-2.5,17.7-10.9l0-0.1c1.9-8.5-2.5-15.7-11.1-17.7L418,1040.4z"/>
		<path class="st1" d="M480.9,1042.7l19.9,2c11.6,1.2,18,8.8,17,18.8l0,0.1c-1.1,11.3-10.5,16.2-21.4,15.1l-8.1-0.8l-1.5,14.6
			l-10.7-1.1L480.9,1042.7z M497.6,1069.2c5.4,0.5,8.8-2.3,9.2-6.5l0-0.1c0.5-4.8-2.6-7.7-8-8.3l-8.3-0.8l-1.5,14.9L497.6,1069.2z"
			/>
		<path class="st1" d="M525.4,1046.9l22.4,0.4c6.2,0.1,11,1.9,14.2,5.2c2.7,2.8,4.1,6.6,4,11.3l0,0.1c-0.1,7.9-4.5,12.8-10.8,15
			l11.7,17.7l-12.6-0.2l-10.2-15.9l-8.5-0.1l-0.3,15.7l-10.8-0.2L525.4,1046.9z M546.7,1071.1c5.3,0.1,8.3-2.7,8.4-6.8l0-0.1
			c0.1-4.6-3.1-7.1-8.4-7.1l-10.7-0.2l-0.2,14.1L546.7,1071.1z"/>
		<path class="st1" d="M573.5,1072.2l0-0.1c-1.1-13.9,9-26.1,24-27.3c15.1-1.2,26.8,9.2,27.9,23.1l0,0.1c1.1,13.9-9,26.1-24,27.3
			C586.3,1096.5,574.6,1086.1,573.5,1072.2z M614.2,1069l0-0.1c-0.7-8.4-7.4-14.9-16-14.2c-8.7,0.7-14.1,8-13.4,16.4l0,0.1
			c0.7,8.4,7.4,14.9,16,14.2C609.4,1084.7,614.8,1077.4,614.2,1069z"/>
		<path class="st1" d="M630.7,1042.2l36.8-6.4l1.7,9.7L643,1050l1.8,10.3l23-4l1.7,9.7l-23,4l3.2,18.7l-10.6,1.8L630.7,1042.2z"/>
		<path class="st1" d="M674,1034.4l35.8-9.2l2.4,9.3l-25.4,6.6l2.5,9.6l22.4-5.8l2.4,9.3l-22.4,5.8l2.6,10l25.8-6.6l2.4,9.3
			l-36.1,9.3L674,1034.4z"/>
		<path class="st1" d="M727.9,1063.4l3.5-9.3c5.4,2,10.5,2.7,15.8,0.8c4.2-1.4,6.1-4,5.2-6.7l0-0.1c-0.9-2.6-2.9-3.4-11.4-2.7
			c-10.2,0.8-17.1,0.3-20.2-8.8l0-0.1c-2.9-8.4,1.9-16.3,11.4-19.6c6.7-2.3,13.2-2.2,19.2-0.1l-2.6,9.5c-5.1-1.4-9.7-1.7-13.6-0.4
			c-3.9,1.4-5.3,3.8-4.6,6.1l0,0.1c1.1,3,3.4,3.3,12.1,2.6c10.2-0.8,16.7,0.7,19.5,8.8l0,0.1c3.2,9.2-2,16.8-12,20.2
			C743.1,1066.4,735.2,1066.4,727.9,1063.4z"/>
		<path class="st1" d="M770.8,1048.3l2.8-9.5c5.5,1.6,10.7,1.8,15.8-0.4c4-1.8,5.8-4.4,4.6-7.1l-0.1-0.1c-1.1-2.5-3.2-3.1-11.5-1.8
			c-10.1,1.6-17,1.7-20.9-7.2l-0.1-0.1c-3.6-8.2,0.6-16.4,9.8-20.4c6.5-2.9,13-3.2,19.2-1.6l-1.9,9.7c-5.2-1-9.8-1-13.6,0.7
			c-3.8,1.7-5,4.3-4.1,6.4l0.1,0.1c1.3,3,3.6,3.1,12.3,1.7c10.1-1.6,16.7-0.6,20.1,7.3l0.1,0.1c3.9,8.9-0.7,16.9-10.4,21.1
			C786.1,1050.1,778.2,1050.8,770.8,1048.3z"/>
		<path class="st1" d="M797,990.5l9.6-4.9l22.3,43.7l-9.6,4.9L797,990.5z"/>
		<path class="st1" d="M827,1003.3l-0.1-0.1c-7.2-11.9-3.7-27.4,9.2-35.2s28-3.8,35.3,8.1l0.1,0.1c7.2,11.9,3.7,27.4-9.2,35.2
			C849.3,1019.2,834.2,1015.2,827,1003.3z M861.9,982.1l-0.1-0.1c-4.4-7.2-13.3-10-20.7-5.5c-7.4,4.5-9,13.5-4.7,20.7l0.1,0.1
			c4.4,7.2,13.3,10,20.7,5.5C864.7,998.3,866.2,989.3,861.9,982.1z"/>
		<path class="st1" d="M864.5,951l7.9-6l36.5,10.3l-18.2-24.1l8.5-6.4l29.5,39.1l-7.3,5.5l-37.7-10.6l18.8,24.9l-8.5,6.4L864.5,951z
			"/>
		<path class="st1" d="M918.5,907.4l7.2-6.8l49.1,21.6l-8.2,7.7l-10.8-4.9l-15.1,14.2l4.3,11.1l-8,7.5L918.5,907.4z M946.5,920.6
			l-15.6-7.1l6.1,16L946.5,920.6z"/>
		<path class="st1" d="M945.3,882.3l7.3-7.9l28.9,26.5l16.5-18l7.2,6.6l-23.8,25.9L945.3,882.3z"/>
	</g>
	<path class="st1" d="M1024.2,505.6c0,263.1-213.3,476.3-476.3,476.3C284.8,982,71.5,768.7,71.5,505.6
		c0-263.1,213.3-476.3,476.3-476.3C810.9,29.3,1024.2,242.6,1024.2,505.6L1024.2,505.6z"/>
	<path class="st1" d="M553.8,518.6L138,809.7c94.4,127.2,245.6,209.8,415.8,209.8c170.2,0,321.5-82.6,415.9-209.8L553.8,518.6z"/>
	<path class="st0" d="M553.8,0c-275.7,0-500,224.3-500,500c0,275.7,224.3,500,500,500c275.7,0,500-224.3,500-500
		C1053.8,224.3,829.6,0,553.8,0L553.8,0z"/>
	<path class="st2" d="M553.6,45.8c-250.9,0-455,204.1-455,455c0,250.9,204.1,455,455,455c250.9,0,455-204.1,455-455
		C1008.6,249.9,804.5,45.8,553.6,45.8L553.6,45.8z"/>
	<path class="st0" d="M553.8,834.5c183.3,0,332.4-149.1,332.4-332.4c0-183.3-149.1-332.4-332.4-332.4
		c-183.2,0-332.4,149.1-332.4,332.4C221.5,685.3,370.6,834.5,553.8,834.5L553.8,834.5z"/>
	<path class="st3" d="M581,230.9c-5.9,0.5-8.6,7.5-7.6,14.4c6.8-0.7,13-2,18.7-3.7c-0.6-2.5-1.7-4.9-3.3-6.8
		C587.2,232.8,584.6,230.6,581,230.9L581,230.9z M524.1,231.1c-3.2-0.9-6.2,0.8-7.9,2.3c-2.2,2.1-3.8,5.1-4.6,8.2
		c5.8,1.7,12,3,18.7,3.7C531.1,239,529.1,232.6,524.1,231.1L524.1,231.1z M551.4,230.7c-4.8,0.4-8.6,2.1-11.3,4.8
		c-2.5,2.6-4.2,6.1-4.7,10.2c10.3,1.1,22.5,1,32.8,0.1c-0.5-4.6-2.3-8.1-5.1-10.8C560.6,232.8,556.2,230.4,551.4,230.7L551.4,230.7z
		 M594.2,267.9c-0.2-2.8-0.9-5-2.3-6.8c-1.3-1.8-3.1-3.2-5.8-3.3c-4.4-0.1-7.2,3-9,5.8c-2,3.2-3.1,7.1-2.9,11.5
		c-1.8,0.3-3.7,0.8-5.5,0.9c-0.1-5-2.2-8.7-5.1-11.4c-2.8-2.6-6.8-4.5-12-4.5c-5.2,0-9,1.9-11.9,4.5c-3,2.6-4.9,6.4-5.1,11.4
		c-1.9-0.2-3.7-0.6-5.5-1c0.2-7.5-2.6-13.3-7.4-16c-2.9-1.7-6.5-1.4-8.8,0.5c-2.1,1.8-3.3,4.7-3.5,8.3c-0.3,0.1-7.7-6.4-9.5-8.8
		c0,0,0,0,0,0c-0.1-1.1-0.1-2.2-0.1-3.3c0-28.6,23.3-51.9,52-51.9c28.7,0,52,23.3,52,51.9c0,0.8,0,1.7,0,2.5
		C602.5,260.2,599.8,264.1,594.2,267.9L594.2,267.9z M591.2,279c-1.8,2.7-4.5,5.5-8.4,5.7c-1.9,0.1-3.8-0.7-5.1-1.9
		c-1.9-1.7-2.8-4.3-3.2-7.8c7.4-1.6,14-3.8,19.7-7c0.1,0,0.1,0,0.1,0.1C594.3,272,593.2,276,591.2,279L591.2,279z M563.8,287.6
		c-2.9,2.7-6.7,4.6-12,4.6c-5.2,0-9.1-1.9-12-4.6c-2.9-2.7-5-6.3-5.1-11.3c0-0.1,0-0.2,0.1-0.2c10.2,1.7,23.9,1.6,34,0.1
		C568.8,281.2,566.7,284.9,563.8,287.6L563.8,287.6z M520.9,284.7c-3.9,0-6.8-2.9-8.6-5.5c-2-3-3.3-6.6-3.3-11V268
		c5.7,3.2,12.4,5.4,19.7,7.1C528.3,280,525.8,284.7,520.9,284.7L520.9,284.7z M551.8,193.5c-34.3,0-62.3,27.9-62.3,62.3
		c0,34.4,27.9,62.3,62.3,62.3c34.4,0,62.3-27.9,62.3-62.3C614.1,221.4,586.2,193.5,551.8,193.5L551.8,193.5z"/>
	<path class="st2" d="M768.3,698.4c-0.6-0.5-13.2-10.9-34.6-12.6c-6.5-0.7-10.5-0.7-24.4,1.8c-12,2.7-19,5.4-23.1,7.6
		c-3.7-5.2-46.3-61.3-68.5-91.4c-4.3,1.1-9.2,2.2-14.5,3.2l79.7,127.2l1,0.6c0.9,0.5,9.2,5.3,33.1,4.8c14.9-0.3,34-4.2,35.1-4.4
		c10.1-2.6,16-23,18.1-31.6l0.7-3.1L768.3,698.4L768.3,698.4z M422.2,695.2c-4.1-2.2-11.1-4.9-23.1-7.6c-13.9-2.6-17.9-2.5-24.5-1.8
		c-21.3,1.7-34,12.1-34.6,12.6l-2.4,2l0.7,3.1c2.1,8.6,7.9,29,18.1,31.6c1,0.2,20.1,4.1,35.1,4.4c23.8,0.5,32.2-4.3,33.1-4.8l1-0.6
		l82.2-131.1c-4.5-1.4-8.9-2.9-13.1-4.6C474,626.7,426.1,689.7,422.2,695.2L422.2,695.2z M647.9,415.4l100.7-130.8
		c0,0-2.3-10.1-11.6-16.2c-9.1-6-19.5-4.8-19.5-4.8l-95.1,139.2c14.4,5.3,22.8,10.8,24.5,11.9L647.9,415.4L647.9,415.4z
		 M488.7,406.8L391,263.6c0,0-10.5-1.2-19.6,4.8c-9.3,6.1-11.6,16.2-11.6,16.2l104.8,136.9C472,415.8,480,410.8,488.7,406.8
		L488.7,406.8z"/>
	<path class="st2" d="M567.4,392.6c7.5-26.9,21.3-48.6,21.3-48.6v-13.5c-42.2,3-79.7,0-79.7,0V344c0,0,13.4,22.3,20.9,50.3
		c8.9-1.3,17.8-1.9,26.8-1.9C560.4,392.3,564,392.4,567.4,392.6L567.4,392.6z"/>
	<path class="st2" d="M487.3,772v-47.9H486l-20.5,16v6.7l10.6-5.6c-0.1,0-3.3,0-3.3,0v31c0,0,3.7,4.2-1.1,5.7l-6.2,1.7v5l4.2-0.2
		l12-2.4h19.8l0.1-2.5l-7-2.1c-3.6-1-3.8-1.1-3.8-5.5H487.3z"/>
	<path class="st2" d="M581.5,772v-47.9h-4.8l-17,16v6.7l7-5.6c-0.1,0,0.2,0,0.2,0v31c0,0,0.2,4.2-4.6,5.7l-2.6,1.7v5l0.7-0.2l12-2.4
		h19.8l0.1-2.5l-7-2.1C581.8,776.5,581.6,776.4,581.5,772L581.5,772z"/>
	<path class="st2" d="M538,753.1c-2.5,1.3-4.3,1.9-6.4,1.9c-3.8,0-7.4-1.3-7.4-10.5c0-4.2,1.1-9.3,6.3-9.3c5,0,7.5,5.5,7.5,16.4
		C538,751.6,538,752.3,538,753.1L538,753.1z M527.9,728.6c-13.5,0-21.5,6.8-21.5,18.3c0,10,6.7,16.4,17.2,16.4c4.3,0,8-1.3,11.4-3.2
		c-0.9,10.6-7.8,18-17.9,18c-2.4,0-4.5-0.4-7-1.4l-1.7-0.6l-2,5.6l1.5,0.6c4.3,1.9,8.5,2.7,13.4,2.7c17.5,0,29.2-13.3,29.2-33
		C550.6,736.9,542.5,728.6,527.9,728.6L527.9,728.6z"/>
	<path class="st2" d="M618.2,779c-3.8,0-7.7-2-7.7-16.6c0,0,0-0.7,0-1.4c2.1-1.2,4.1-1.8,6.3-1.8c3.2,0,7.5,1.1,7.5,10
		C624.3,775.7,622.2,779,618.2,779L618.2,779z M622.9,750.9c-4.3,0-8.1,1.2-11.5,3.1c1.2-11.5,7.6-18.5,18-18.5
		c2.4,0,4.5,0.3,6.9,1.2l1.6,0.5l2.2-5.4l-1.7-0.7c-4.2-1.7-8.5-2.4-13.5-2.4c-17.7,0-29,13.1-29,33.3c0,15.5,7.7,23.4,22.9,23.4
		c13.1,0,21.2-6.9,21.2-18C639.9,757.6,632.9,750.9,622.9,750.9L622.9,750.9z"/>
	<path class="st1" d="M553.8,834.5c-183.2,0-332.4-149.1-332.4-332.4c0-183.3,149.1-332.4,332.4-332.4
		c183.3,0,332.4,149.1,332.4,332.4C886.2,685.3,737.1,834.5,553.8,834.5L553.8,834.5z M553.6,151.1
		c-192.8,0-349.7,156.9-349.7,349.7c0,192.8,156.9,349.7,349.7,349.7c192.8,0,349.7-156.9,349.7-349.7
		C903.4,307.9,746.4,151.1,553.6,151.1L553.6,151.1z"/>
	<path class="st1" d="M553.6,955.8c-250.9,0-455-204.1-455-455c0-250.9,204.1-455,455-455c250.9,0,455,204.1,455,455
		C1008.6,751.7,804.5,955.8,553.6,955.8L553.6,955.8z M553.8,26.8C292.9,26.8,80.6,239,80.6,500c0,260.9,212.3,473.2,473.2,473.2
		c260.9,0,473.2-212.3,473.2-473.2C1027.1,239,814.8,26.8,553.8,26.8L553.8,26.8z"/>
	<path class="st1" d="M338.4,840l-0.1,0.1c-4.7,7.1-13.6,9.4-20.9,4.5c-7.3-4.9-8.5-14.2-3.8-21.3l0.1-0.1c4.7-7,13.7-9.4,20.9-4.5
		C342,823.6,343.2,833,338.4,840L338.4,840z M340.4,810.5c-12.7-8.5-28.3-5.2-36.2,6.5l-0.1,0.1c-7.9,11.7-5.1,27.2,7.5,35.7
		c12.7,8.5,28.3,5.2,36.2-6.5l0.1-0.1C355.8,834.6,353.1,819,340.4,810.5L340.4,810.5z"/>
	<polygon class="st1" points="353,876.8 362.9,881.5 371.1,864.2 392.4,874.3 396.6,865.3 375.3,855.2 379.8,845.7 404,857.1 
		408.2,848.2 374.1,832.1 353,876.8 	"/>
	<path class="st1" d="M456.8,893.4l9.9-14.2l3,17.1L456.8,893.4L456.8,893.4z M464.8,865.3l-31.5,44.1l10.9,2.4l6.8-9.9l20.4,4.5
		l2,11.8l11.1,2.5l-10-53.2L464.8,865.3L464.8,865.3z"/>
	<polygon class="st1" points="530,896 518.2,874.5 506.5,873.8 503.8,923.2 514.5,923.8 516.2,891.7 528.8,913.4 529.1,913.4 
		544.1,893.1 542.4,925.3 553.2,925.9 555.9,876.5 544.1,875.9 530,896 	"/>
	<polygon class="st1" points="586.5,914.2 585.5,903.9 608.7,901.6 607.8,892 584.6,894.2 583.6,884.2 610,881.7 609,872 
		571.9,875.7 576.7,924.9 614.2,921.2 613.2,911.6 586.5,914.2 	"/>
	<path class="st1" d="M650.6,887.7l-10.7,2.6l-3.3-13.8L647,874c5.2-1.2,8.9,0.3,10,4.8l0,0.2C658,883,655.8,886.5,650.6,887.7
		L650.6,887.7z M667.6,875.8l-0.1-0.1c-1.1-4.5-3.5-7.9-6.8-10c-3.9-2.4-9.1-3-15.2-1.4l-22,5.3l11.7,48.1l10.6-2.6l-3.8-15.4l8.2-2
		l0.2,0l14,12.9l12.4-3l-15.9-14.3C666.5,889.5,669.5,883.6,667.6,875.8L667.6,875.8z"/>
	<polygon class="st1" points="679.1,854.2 696.2,900.5 706.4,896.8 689.3,850.4 679.1,854.2 	"/>
	<path class="st1" d="M745.6,869.1c-7.6,3.8-16,0.2-19.9-7.4l0-0.1c-3.9-7.6-1.6-16.5,5.8-20.2c4.4-2.2,8.8-2.1,13.8-0.7l2.6-10.3
		c-6.2-2-12.5-2.2-20.9,2c-13.5,6.9-17.8,21.9-11.4,34.5l0.1,0.2c6.4,12.7,21.2,17.8,34.1,11.2c8.5-4.3,12-9.9,14.1-17.1l-9.4-3.1
		C752.7,863,750.7,866.6,745.6,869.1L745.6,869.1z"/>
	<path class="st1" d="M795.9,824.2l-10.7,7.7l-4-16.9L795.9,824.2L795.9,824.2z M769.6,807.3l11.8,52.9l9-6.5l-2.8-11.6l17-12.2
		l10.1,6.4l9.2-6.6l-46.3-28.1L769.6,807.3L769.6,807.3z"/>
	<path class="st1" d="M225,756.5l-5.1-6.7c-3.3-4.4-3.3-8.7,0.6-11.6l0.1-0.1c3.4-2.6,7.9-2,11.2,2.3l5.2,6.9L225,756.5L225,756.5z
		 M244.8,741.4l-5-6.6c-6.8-8.9-16.9-12.4-26.1-5.4l-0.1,0.1c-8.1,6.1-9.3,16.1-2.2,25.5l12.3,16.2l39.5-30.1l-6.6-8.7L244.8,741.4
		L244.8,741.4z"/>
	<path class="st1" d="M191.5,707.1l-5.2-9.5c-2.6-4.7-2-8.7,2.1-11l0.1-0.1c3.6-2,7.6-0.7,10.2,3.9l5.3,9.7L191.5,707.1L191.5,707.1
		z M226.4,687.9l-13.9,7.7l-4.1-7.4l-0.1-0.1l8.8-17l-6.2-11.2l-9.7,19.2c-5.1-4.4-11.6-5.8-18.6-1.9l-0.1,0.1
		c-4.1,2.3-6.8,5.5-7.9,9.2c-1.3,4.4-0.5,9.6,2.6,15.1l10.9,19.9l43.6-23.9L226.4,687.9L226.4,687.9z"/>
	<path class="st1" d="M178.2,645.9c-8.1,2.8-16.6-0.7-19.5-9c-2.9-8.3,1.7-16.5,9.8-19.4l0.1,0c8-2.8,16.6,0.7,19.5,9
		c2.9,8.3-1.7,16.5-9.8,19.4L178.2,645.9L178.2,645.9z M182.2,656.5c13.3-4.7,20.5-18.8,15.4-33.3c-5.1-14.5-19.6-21.2-33-16.5
		l-0.1,0c-13.3,4.7-20.5,18.8-15.4,33.3c5.1,14.5,19.6,21.2,33,16.5L182.2,656.5L182.2,656.5z"/>
	<polygon class="st1" points="182.8,572 163.9,575.4 159.7,552 150,553.8 154.1,577.1 143.7,579 139,552.5 129.2,554.2 135.8,591.5 
		184.7,582.8 182.8,572 	"/>
	<polygon class="st1" points="175.4,492.6 165.6,493 166.6,519.9 156.2,520.3 155.4,496.9 145.7,497.3 146.5,520.7 136.4,521 
		135.5,494.4 125.8,494.7 127.1,532.2 176.7,530.4 175.4,492.6 	"/>
	<path class="st1" d="M140.8,477.6h0.1c9.8-2.3,13.2-8.5,16.8-18.1c3-8.1,4.6-9.6,7.3-9.3l0.1,0c2.9,0.3,4.4,3.1,3.9,7.6
		c-0.6,5.6-3.4,10.1-7.5,14.1l7,7.2c5.9-5.4,9.3-12.7,10.1-20.2c1.1-10.7-3.6-18.7-13.4-19.8l-0.1,0c-8.6-0.9-12.8,4.4-16.5,14.1
		c-3.1,8.3-4.4,10.3-7.6,9.7h-0.2c-2.4,0-4.1-2.4-3.6-6.5c0.4-4.2,2.7-8.3,6.2-12.4l-7.6-6.5c-4.5,4.6-7.4,10.5-8.2,17.7
		c-1.1,10.1,4.1,17.9,13.1,18.8V477.6z"/>
	<path class="st1" d="M147.9,418.8l0.2,0c9.6,2.3,13.8-3.3,18.6-12.4c4.1-7.5,5.9-8.9,8.5-8.2l0.2,0c2.8,0.7,3.9,3.7,2.8,8.1
		c-1.4,5.5-4.7,9.5-9.4,13l6,8.1c6.6-4.5,10.9-11.3,12.7-18.6c2.5-10.4-1.1-19-10.7-21.4l-0.1,0c-8.4-2.1-13.3,2.6-18.2,11.8
		c-4.2,7.8-5.7,9.6-8.9,8.9l-0.2-0.1c-2.3-0.6-3.7-3.1-2.7-7.2c1-4,3.8-7.8,7.8-11.4l-6.6-7.5c-5.1,3.9-8.8,9.4-10.5,16.4
		C135.1,408.2,139.1,416.6,147.9,418.8L147.9,418.8z"/>
	<polygon class="st1" points="200.4,365.2 153.7,348.2 150,358.4 196.6,375.4 200.4,365.2 	"/>
	<path class="st1" d="M182.1,307.5c4.1-7.9,13.2-10.1,20.8-6.2l0.1,0.1c7.5,3.9,10.9,12.5,6.8,20.3c-4.1,7.8-13.2,10.1-20.8,6.2
		l-0.1-0.1C181.4,323.8,178,315.2,182.1,307.5L182.1,307.5z M183.8,338l0.2,0.1c12.5,6.5,27.7,2,34.8-11.6
		c7.1-13.6,1.9-28.8-10.6-35.3l-0.1-0.1c-12.5-6.5-27.7-2-34.8,11.6C166.1,316.2,171.3,331.5,183.8,338L183.8,338z"/>
	<polygon class="st1" points="245.7,280.5 220.6,260.1 260.3,260.1 265.9,253.9 226.4,223.8 219.9,232.4 244.2,252.9 205.8,252.9 
		199.7,259 239.2,289 245.7,280.5 	"/>
	<path class="st1" d="M284.7,205.6l-9.6,9l-6.3-16.2L284.7,205.6L284.7,205.6z M283.2,235.6l-4.3-11.2l15.3-14.4l11,5l8.3-7.8
		l-49.8-21.8l-7.3,6.9l18.8,51L283.2,235.6L283.2,235.6z"/>
	<polygon class="st1" points="354.2,178.5 348.6,170.3 328.2,184.5 305.6,151.8 296.6,158 324.9,198.8 354.2,178.5 	"/>
	<path class="st1" d="M380.1,136.1c5.5,13.6,19.4,19.7,33.8,13.9c8.4-3.4,13.6-9.3,16.7-15.2l-8.1-20l-20,8.1l3.5,8.8l10.2-4.1
		l2.7,6.6c-1.8,2.9-4.7,5.1-8.5,6.6c-8.2,3.3-16.5-0.6-19.8-9l-0.1-0.1c-3.2-7.8,0.1-16.7,7.5-19.7c5.3-2.1,9.2-1.7,13.9-0.2
		l3.3-10.3c-6.4-2.1-12.4-2.4-20.6,1c-14,5.6-19.9,20.4-14.6,33.5L380.1,136.1L380.1,136.1z"/>
	<path class="st1" d="M464.7,91.7c8.6-1.8,16.2,3.8,18,12.1l0,0.1c1.8,8.3-2.7,16.4-11.3,18.2c-8.6,1.8-16.2-3.8-18-12.1l0-0.2
		C451.6,101.6,456.1,93.5,464.7,91.7L464.7,91.7z M442.2,112.6c3,13.8,16.1,22.7,31.1,19.5c15-3.2,23.5-16.8,20.5-30.6l0-0.1
		c-3-13.8-16.1-22.7-31.1-19.5c-15,3.2-23.5,16.9-20.5,30.6L442.2,112.6L442.2,112.6z"/>
	<polygon class="st1" points="550.8,122.4 550.3,112.5 525.5,113.8 523.3,74.2 512.4,74.7 515.2,124.4 550.8,122.4 	"/>
	<polygon class="st1" points="577.9,104.5 601.5,106.3 602.3,96.4 578.7,94.5 579.5,84 606.3,86.2 607.1,76.2 569.4,73.2 
		565.4,122.7 576.3,123.6 577.9,104.5 	"/>
	<polygon class="st1" points="657.2,127.1 630.8,121.1 633.1,111 656,116.1 658.1,106.6 635.3,101.5 637.5,91.6 663.4,97.5 
		665.6,88 629,79.8 618.1,128.2 655,136.6 657.2,127.1 	"/>
	<path class="st1" d="M695.1,108.2l10.1,4c4.9,1.9,7.1,5.4,5.4,9.7l-0.1,0.2c-1.5,3.9-5.4,5.4-10.3,3.5l-10.3-4L695.1,108.2
		L695.1,108.2z M686.4,130.5l7.9,3.1l0.1,0l4.2,18.6l11.9,4.7l-4.9-20.9c6.7,0.1,12.6-3,15.5-10.5l0-0.1c1.7-4.4,1.7-8.6,0.2-12.2
		c-1.9-4.2-5.8-7.7-11.7-10L688.5,95l-18,46.3l10.2,4L686.4,130.5L686.4,130.5z"/>
	<path class="st1" d="M738.6,173c9.3,5.3,18.6,4.2,23.5-4.3l0.1-0.1c4.3-7.5,1.2-13.5-6.3-20.8c-6.4-6.1-7.7-8.1-6.1-11l0.1-0.1
		c1.2-2.1,4.1-2.7,7.7-0.6c3.7,2.1,6.5,5.8,8.8,10.7l9-4.3c-2.4-6-6.6-11-12.9-14.6c-8.8-5-18-3.4-22.5,4.4l-0.1,0.1
		c-4.8,8.6-0.6,14.2,6.8,21.4c6.2,5.9,7,8,5.6,10.4l0,0.1c-1.5,2.5-4.7,2.7-8.6,0.5c-4.9-2.8-7.8-7.2-9.9-12.6l-9.5,3.5
		C726.8,163.3,732.1,169.3,738.6,173L738.6,173z"/>
	<path class="st1" d="M799.5,164.1l5.6-7.8l-9.3-6.7l-6.6,9.2l3.6,2.6c-2,3.5-5.5,4.1-9.7,1.6l-1.9,4.2
		C788.1,172.1,794.1,171.7,799.5,164.1L799.5,164.1z"/>
	<path class="st1" d="M852.3,215.1l-7.2,15.9l-9.1-9.6L852.3,215.1L852.3,215.1z M826.3,225.2l14.4,15.3l-5,11l7.9,8.3l21.7-49.9
		l-6.9-7.3l-51,18.9l7.7,8.1L826.3,225.2L826.3,225.2z"/>
	<path class="st1" d="M855.5,264.6c-0.9,7.9,1.2,15.7,5.5,21.9c6.1,8.8,15,11.8,23.1,6.2l0.1-0.1c7.1-5,6.8-11.7,3.2-21.4
		c-3.1-8.3-3.5-10.7-0.8-12.5l0.1-0.1c2-1.4,4.8-0.7,7.2,2.8c2.4,3.4,3.4,8,3.4,13.4l10-0.1c0.5-6.5-1.2-12.8-5.4-18.8
		c-5.8-8.3-14.8-10.8-22.2-5.7l-0.1,0.1c-8.1,5.6-6.7,12.5-3.1,22.2c3,8,2.8,10.2,0.6,11.8l-0.1,0.1c-2.4,1.7-5.4,0.5-8-3.2
		c-3.3-4.7-4-9.9-3.6-15.6L855.5,264.6L855.5,264.6z"/>
	<path class="st1" d="M904.5,317.4c1.8,8.4,1.4,10.5-1.1,11.8l-0.1,0.1c-2.6,1.3-5.4-0.3-7.4-4.3c-2.6-5-2.7-10.3-1.4-15.9l-9.8-2.2
		c-2,7.8-0.9,15.7,2.5,22.4c4.9,9.6,13.2,13.7,22,9.2l0.2-0.1c7.7-4,8.3-10.6,6.1-20.8c-1.9-8.6-2-11,0.9-12.5l0.1-0.1
		c2.1-1.1,4.8,0,6.8,3.7c1.9,3.7,2.2,8.4,1.5,13.7l9.9,1.3c1.3-6.3,0.5-12.8-2.8-19.3c-4.6-9-13.2-12.8-21.2-8.7l-0.1,0.1
		C901.8,300.3,902.3,307.3,904.5,317.4L904.5,317.4z"/>
	<path class="st1" d="M929.3,360.8c8.1-2.7,16.6,1,19.3,9.4c2.7,8.3-2.1,16.5-10.2,19.1l-0.2,0c-8.1,2.7-16.6-1-19.3-9.4
		c-2.7-8.4,2.1-16.5,10.2-19.1L929.3,360.8L929.3,360.8z M925.5,350c-13.4,4.4-20.9,18.4-16.2,32.9c4.8,14.6,19.2,21.6,32.6,17.2
		l0.1,0c13.4-4.4,20.9-18.4,16.2-32.9c-4.7-14.6-19.2-21.6-32.6-17.2L925.5,350L925.5,350z"/>
	<path class="st1" d="M945.7,417.8l-0.1,0c-14.1,2.1-23.7,14.5-21.6,28.9c1.4,9.5,5.6,14.6,11.8,18.9l5.9-7.9
		c-4.1-3.3-6.9-6.5-7.7-12.1c-1.3-8.4,4.9-15.3,13.3-16.5l0.1,0c8.4-1.3,16.2,3.7,17.4,12c0.7,4.9-0.8,9.1-3.7,13.4l9,5.7
		c3.8-5.2,6.1-11.2,4.7-20.5C972.7,424.6,959.7,415.8,945.7,417.8L945.7,417.8z"/>
	<polygon class="st1" points="928.5,493.5 978.2,492 977.9,481.1 928.2,482.5 928.5,493.5 	"/>
	<path class="st1" d="M948.2,529.5l15.4,8l-16.6,5.1L948.2,529.5L948.2,529.5z M928.3,519.2l10.7,5.6l-1.9,20.9l-11.5,3.5l-1.1,11.4
		l51.8-16.6l0.9-10.1l-47.8-25.8L928.3,519.2L928.3,519.2z"/>
	<polygon class="st1" points="958.6,588.3 920,579.3 917.6,590 956.1,598.9 952.7,613.7 962.5,615.9 971.8,575.8 962,573.5 
		958.6,588.3 	"/>
	<polygon class="st1" points="905.5,629.5 952.3,646 955.9,635.6 909.1,619.1 905.5,629.5 	"/>
	<path class="st1" d="M924.4,687c-4,7.9-13.1,10.2-20.7,6.4l-0.1-0.1c-7.6-3.8-11.1-12.4-7.1-20.3c4-7.9,13.1-10.2,20.8-6.4l0.1,0
		C924.9,670.6,928.4,679.1,924.4,687L924.4,687z M922.3,656.4l-0.1,0c-12.6-6.4-27.8-1.7-34.7,11.9c-6.9,13.7-1.6,28.9,11,35.2
		l0.1,0.1c12.6,6.4,27.8,1.7,34.7-12C940.2,678,934.9,662.8,922.3,656.4L922.3,656.4z"/>
	<polygon class="st1" points="861.1,714.6 886.4,738.6 846.7,738.6 841.1,741.4 881,771 887.4,762.4 862.9,745.8 901.3,745.8 
		907.3,735.6 867.5,706 861.1,714.6 	"/>
	<path class="st1" d="M637.3,524.3l16.7-4.7v-20.2H552.5v20.1l16.7,4.7c11.9,3.5,12.3,4.8,12.3,13.9v27.3c-6,1.1-17.3,1.2-24.6,0.2
		c-39.2-5.5-50-33.2-50-62.2c0-16.3,5.7-31.1,18.7-43.2c9.3-8.6,23.5-16.4,45-15.7c9.4,0.3,20.2,4.6,23.9,7.1
		c10.7,7.2,13.2,15.6,16.1,26h21.6v-43.1c1.1,0-25.9-18.5-72.6-18.5c-37.1,0-110,15.4-110,87.9c0,44.5,37.4,79.2,102.4,82.5
		c44.8,2.3,72.9-10.9,72.9-10.9l0-37.3C625,529.1,625.4,527.8,637.3,524.3L637.3,524.3z"/>
	<path class="st1" d="M384,492.9c-2.9,2.7-9.5,5.9-14.9,7.3c-14.6,3.7-33.5,2.3-34.1,2.3v-62.1c12.4,0,34.1-1.9,48,8.2
		c6.9,4.9,10.9,12.8,11.1,22.9C394.3,478.5,391.7,486.3,384,492.9L384,492.9z M382.2,420.7c-8.1-0.9-31.5-1.1-31.5-1.1l-95.4,0v20.7
		l16,4.9c13,4.2,13,5.4,13,14.9l0.1,87.9c0,9.2,0,9.8-13.1,13.8l-16,4.4v20.2H364v-19.7l-16-4.3c-13-3.9-13-4.4-13-13.4l0.1-20.6
		c1.7,0,26.1,0,26.1,0c23.7-0.4,42.9-1.9,60.1-11.5c16.3-9.2,25.3-26.2,25.3-43.9C446.6,444.3,423.7,424.9,382.2,420.7L382.2,420.7z
		"/>
	<path class="st1" d="M716,528.4c10.6-20.2,25.5-49,26.5-51.1c1,2.4,14.7,30.6,24.6,51.1H716L716,528.4z M849.7,561.9
		c-9.5-3.5-11.7-5.2-14.4-11.2l-66.2-131.1h-27.5l-74,133.7c-2.7,5-5.1,6.2-11.3,8.4l-16.8,5.1v19.5h79.7v-21.1l-17.8-5
		c-3.8-1-3.6-3.7-2.7-5.6c0,0,2.3-4.8,5.8-11.9h67.2c3.6,7.2,4.5,8.7,5.7,11.3c1.7,3.8-1.6,5.6-5.8,6.8l-16.1,4.8v20.6h108.7v-19.2
		C864.2,567.1,849.7,561.9,849.7,561.9L849.7,561.9z"/>
</g>
</svg>
