<svg xmlns="http://www.w3.org/2000/svg" viewBox="0 0 1000 230"><title>Logos</title><path d="M286.141,109.694l-3.99-2.314a25.394,25.394,0,0,1-6.6-4.888,7.762,7.762,0,0,1-1.736-5.126,9.283,9.283,0,0,1,2.644-6.723,8.58,8.58,0,0,1,6.433-2.733,10.175,10.175,0,0,1,7.441,2.912q1.317,1.362,1.636,6.942l.04.719h5.9V86.593A57.926,57.926,0,0,0,282.031,84q-8.856,0-14.2,4.568a15.142,15.142,0,0,0-5.346,12.109q0,9.62,14.8,17.794l3.949,2.154c3.272,1.806,5.476,3.462,6.623,4.948a9.663,9.663,0,0,1,1.716,5.984A10.028,10.028,0,0,1,279,142.09a13.221,13.221,0,0,1-8.618-2.962c-1.167-.968-1.845-3.192-2.034-6.693l-.04-.958H262.4v12.329A73.7,73.7,0,0,0,279,146q10.219,0,16.258-4.828a15.7,15.7,0,0,0,6.045-12.926,14.825,14.825,0,0,0-3.192-9.615Q294.877,114.725,286.141,109.694Z" style="fill:#231f61"/><path d="M355.146,99.2h.593c2.381,0,3.582.46,3.582,1.373a13.779,13.779,0,0,1-.527,2.472c-.354,1.3-.615,2.227-.789,2.794L350.3,130.16,339.6,96.738h-3.722l-10.064,31.483-6.425-22.511a23.429,23.429,0,0,1-1.084-5.331c0-.781,1.314-1.176,3.943-1.176h.625V96.147H303.815V99.2l.625.034c1.8.131,2.883.426,3.27.886s1.076,2.326,2.086,5.587l11.263,39.7h3.312l10.713-33.749,10.91,33.749h3.18l12.644-39.566a47.283,47.283,0,0,1,2.1-5.932c.263-.386.961-.575,2.1-.575.261,0,.755-.033,1.478-.1l.591-.034V96.147H355.146Z" style="fill:#231f61"/><path d="M369.474,99.2l.625.034c2.234.172,3.566.558,3.992,1.142s.641,2.341.641,5.265v29.642q0,4.388-.657,5.283c-.435.6-1.767.977-3.976,1.126l-.625.032v3.057h20.671v-3.057l-.591-.032q-3.354-.224-4.01-1.126t-.657-5.283V105.644c0-2.924.213-4.674.641-5.265s1.767-.97,4.026-1.142l.591-.034V96.147H369.474Z" style="fill:#231f61"/><path d="M426.72,99.2l.625.034c2.234.172,3.575.558,3.993,1.142s.641,2.341.641,5.265v27.227L405.187,96.147H393V99.2l.624.034c2.235.172,3.566.558,3.994,1.142s.641,2.341.641,5.265v29.642q0,4.388-.659,5.283c-.435.6-1.765.977-3.976,1.126l-.624.032v3.057h15.314v-3.057l-.591-.032q-3.354-.224-4.01-1.126t-.657-5.283V108.651l26.981,36.823h6.736v-39.83c0-2.924.222-4.674.657-5.265s1.774-.97,4.01-1.142l.591-.034V96.147H426.72Z" style="fill:#231f61"/><path d="M473.517,126.414l.591.065q3.354.222,4.01,1.126.652.886.657,5.25v9.037a15.353,15.353,0,0,1-4.855.821q-7.974,0-11.962-5.57t-3.985-16.711q0-11.139,3.73-16.71t11.189-5.57q6.9,0,10.057,2.859,1.083,1.023,1.083,5.061v.591H488.9V97.068a63.72,63.72,0,0,0-15.905-2.136q-12.36,0-19.077,6.638t-6.72,18.862q0,11.769,6.786,18.667t18.354,6.9a80.486,80.486,0,0,0,16.6-2.2V132.855q0-4.363.673-5.266c.444-.609,1.767-.978,3.96-1.11l.625-.065v-3.057H473.517Z" style="fill:#231f61"/><path d="M561.67,134.19q-.315,4.983-1.048,5.566c-.5.389-2.723.579-6.692.579h-4.968a35.476,35.476,0,0,1-6.363-.32q-1.556-.433-1.556-7.061V115.239H549.5a18.884,18.884,0,0,1,5.1.4c.7.27,1.077,1.447,1.127,3.551l.08.718h4.189V107.14H555.8l-.08.748q-.075,3.441-.778,3.681a30.963,30.963,0,0,1-5.446.239h-8.219V89.386h12.687c2.474,0,4.06.21,4.768.638s1.057,1.387,1.057,2.873q0,.358.12,2.394l.08.758h5.9V85.476H522.571v3.711l.758.04c2.713.209,4.328.678,4.847,1.386s.778,2.843.778,6.393v35.988q0,5.325-.8,6.413c-.529.728-2.144,1.187-4.827,1.366l-.758.04v3.711h45.043V133.432h-5.9Z" style="fill:#231f61"/><path d="M593.511,116.1l-3.286-1.907a20.963,20.963,0,0,1-5.439-4.024,6.4,6.4,0,0,1-1.429-4.223,7.645,7.645,0,0,1,2.177-5.538,7.066,7.066,0,0,1,5.3-2.251,8.382,8.382,0,0,1,6.129,2.4q1.084,1.122,1.347,5.718l.033.592h4.864V97.068a47.673,47.673,0,0,0-13.08-2.136q-7.3,0-11.7,3.763a12.466,12.466,0,0,0-4.4,9.973q0,7.923,12.192,14.657l3.253,1.774a18.1,18.1,0,0,1,5.456,4.076,7.96,7.96,0,0,1,1.413,4.928,8.259,8.259,0,0,1-8.709,8.677,10.9,10.9,0,0,1-7.1-2.44c-.961-.8-1.52-2.63-1.676-5.514l-.033-.788h-4.864v10.154A60.685,60.685,0,0,0,587.629,146q8.418,0,13.392-3.977A12.936,12.936,0,0,0,606,131.376a12.208,12.208,0,0,0-2.629-7.92Q600.708,120.239,593.511,116.1Z" style="fill:#231f61"/><path d="M630.908,116.1l-3.285-1.907a20.972,20.972,0,0,1-5.44-4.024,6.4,6.4,0,0,1-1.428-4.223,7.649,7.649,0,0,1,2.177-5.538,7.062,7.062,0,0,1,5.3-2.251,8.385,8.385,0,0,1,6.13,2.4q1.084,1.122,1.347,5.718l.033.592H640.6V97.068a47.668,47.668,0,0,0-13.08-2.136q-7.295,0-11.7,3.763a12.469,12.469,0,0,0-4.4,9.973q0,7.923,12.193,14.657l3.252,1.774a18.07,18.07,0,0,1,5.456,4.076,7.96,7.96,0,0,1,1.413,4.928,8.259,8.259,0,0,1-8.709,8.677,10.9,10.9,0,0,1-7.1-2.44c-.961-.8-1.52-2.63-1.675-5.514l-.034-.788h-4.864v10.154A60.7,60.7,0,0,0,625.026,146q8.418,0,13.392-3.977a12.933,12.933,0,0,0,4.978-10.647,12.213,12.213,0,0,0-2.628-7.92Q638.106,120.239,630.908,116.1Z" style="fill:#231f61"/><path d="M679.085,136.273q-.26,4.1-.862,4.584c-.412.32-2.243.476-5.514.476h-4.09a29.35,29.35,0,0,1-5.242-.263q-1.282-.357-1.282-5.816V120.663h6.967a15.585,15.585,0,0,1,4.2.328c.575.222.888,1.192.928,2.925l.066.592h3.451V113.991h-3.451l-.066.616q-.06,2.835-.64,3.032a25.489,25.489,0,0,1-4.486.2h-6.77V99.368h10.451a9.068,9.068,0,0,1,3.927.526c.583.353.871,1.142.871,2.366q0,.3.1,1.972l.066.624h4.864V96.147H646.88V99.2l.624.034c2.235.172,3.566.558,3.993,1.142s.64,2.341.64,5.265v29.642q0,4.388-.657,5.283c-.435.6-1.765.977-3.976,1.126l-.624.032v3.057h37.1v-9.136h-4.863Z" style="fill:#231f61"/><path d="M721.051,99.2l.623.034c2.236.172,3.575.558,3.994,1.142s.64,2.341.64,5.265v27.227l-26.79-36.724H687.334V99.2l.623.034c2.236.172,3.566.558,3.994,1.142s.641,2.341.641,5.265v29.642q0,4.388-.657,5.283c-.437.6-1.767.977-3.978,1.126l-.623.032v3.057h15.313v-3.057l-.591-.032c-2.234-.149-3.574-.526-4.01-1.126s-.657-2.358-.657-5.283V108.651l26.981,36.823h6.736v-39.83c0-2.924.222-4.674.657-5.265s1.776-.97,4.01-1.142l.591-.034V96.147H721.051Z" style="fill:#231f61"/><path d="M740.243,106.269h4.863l.033-.92c.025-2.868.32-4.585.9-5.143s1.888-.838,3.927-.838h7.919v35.918q0,4.413-.739,5.283c-.494.575-2.078.954-4.749,1.126l-.591.032v3.057h22.314v-3.057l-.592-.032q-4.2-.3-4.732-.92c-.354-.419-.6-2.259-.757-5.521V99.368h7.921c2.037,0,3.343.279,3.926.838s.879,2.275.9,5.143l.034.92h4.862V96.147H740.243Z" style="fill:#231f61"/><path d="M788.386,99.2l.624.034c2.235.172,3.565.558,3.993,1.142s.64,2.341.64,5.265v29.642q0,4.388-.657,5.283c-.435.6-1.766.977-3.976,1.126l-.624.032v3.057h20.67v-3.057l-.592-.032c-2.234-.149-3.573-.526-4.008-1.126s-.657-2.358-.657-5.283V105.644c0-2.924.213-4.674.64-5.265s1.766-.97,4.025-1.142l.592-.034V96.147h-20.67Z" style="fill:#231f61"/><path d="M860.207,140.807a32.258,32.258,0,0,1-3.074-5.553L838.862,95.72H835.51l-18.14,39.5a31.606,31.606,0,0,1-2.941,5.621c-.452.46-1.553.747-3.3.854l-.624.032v3.057h12.981v-3.057l-.625-.032c-.632-.041-1.051-.074-1.248-.1q-2.07,0-2.071-1.084c0-.945.591-2.712,1.791-5.3L823.794,130h20.524l2.431,5.183q1.947,4.253,1.874,5.234-.062,1.023-4.207,1.282l-.624.032v3.057h20.276v-3.057l-.428-.032Q860.88,141.461,860.207,140.807Zm-34.875-14.065,8.585-18.9,8.872,18.9Z" style="fill:#231f61"/><path d="M898.014,133.84q0,5.719-.3,6.409a1.647,1.647,0,0,1-1.455.821,40.981,40.981,0,0,1-4.731.263h-4.109a29.578,29.578,0,0,1-5.266-.263q-1.294-.357-1.289-5.816v-29.61c0-2.924.213-4.674.641-5.265s1.765-.97,4.024-1.142l.593-.034V96.147H865.448V99.2l.625.034c2.234.172,3.564.558,3.992,1.142s.641,2.341.641,5.265v29.642q0,4.388-.657,5.283c-.435.6-1.767.977-3.976,1.126l-.625.032v3.057h37.463V133.217h-4.863Z" style="fill:#231f61"/><path d="M936.07,123.456q-2.664-3.217-9.86-7.361l-3.285-1.907a20.954,20.954,0,0,1-5.44-4.024,6.4,6.4,0,0,1-1.429-4.223,7.649,7.649,0,0,1,2.177-5.538,7.065,7.065,0,0,1,5.3-2.251,8.382,8.382,0,0,1,6.129,2.4q1.085,1.122,1.348,5.718l.032.592h4.864V97.068a47.673,47.673,0,0,0-13.079-2.136q-7.295,0-11.7,3.763a12.469,12.469,0,0,0-4.4,9.973q0,7.923,12.192,14.657l3.253,1.774a18.07,18.07,0,0,1,5.456,4.076,7.953,7.953,0,0,1,1.413,4.928,8.259,8.259,0,0,1-8.709,8.677,10.9,10.9,0,0,1-7.1-2.44c-.961-.8-1.52-2.63-1.676-5.514l-.033-.788h-4.864v10.154A60.7,60.7,0,0,0,920.328,146q8.418,0,13.391-3.977a12.934,12.934,0,0,0,4.979-10.647A12.213,12.213,0,0,0,936.07,123.456Z" style="fill:#231f61"/><path d="M115,0A115,115,0,1,0,230,115,115,115,0,0,0,115,0Z" style="fill:#fff"/><path d="M179.11,156.3a7.892,7.892,0,0,0-6.142-2.607,7.986,7.986,0,0,0-6.207,2.649q-2.369,2.637-2.348,8.811l.032,9.262-43.638.149-.086-25.114,15.019-.052q.022,6.759,1.281,8.673a8.582,8.582,0,0,0,14.519.117q1.328-1.923,1.309-7.514l-.068-19.691q-.021-6.174-2.408-8.794a7.892,7.892,0,0,0-6.141-2.608A8.21,8.21,0,0,0,136.9,123.7q-1.245,1.923-1.222,8.6l-15.019.052-.084-24.7,39.883-.136.03,8.927q.022,6.176,2.408,8.753a8.051,8.051,0,0,0,6.225,2.565,7.857,7.857,0,0,0,6.166-2.649q2.327-2.637,2.306-8.727l-.089-26.033-70.513.165a27.748,27.748,0,0,0-3.417-1.775q-7.06-3.063-20.211-5.6t-15.992-3.7a14.349,14.349,0,0,1-6.482-4.609A10.129,10.129,0,0,1,58.66,68.7q-.016-4.672,5.351-8.988t14.628-4.347A27.093,27.093,0,0,1,89.828,57.5a18.3,18.3,0,0,1,7.277,5.315A15.721,15.721,0,0,1,99.462,68.9q.933,4.253,2.773,5.664a8.4,8.4,0,0,0,5.513,1.9,7.888,7.888,0,0,0,6.124-2.649q2.368-2.637,2.348-8.811l-.044-12.849q-.021-6.092-2.408-8.711a7.89,7.89,0,0,0-6.142-2.607q-3.338.011-6.664,3.276A34.152,34.152,0,0,0,90.726,39.68,48.589,48.589,0,0,0,78.5,38.261q-16.437.057-26.668,9.312T41.64,69.093a26.745,26.745,0,0,0,4.221,14.421A28.321,28.321,0,0,0,57.244,93.821q7.188,3.647,21.215,6.185,11.605,2.13,14.947,3.37,5.1,1.818,7.358,4.6a9.349,9.349,0,0,1,2.273,5.959q.016,4.755-4.645,8.026-7.323,5.364-18.755,5.4a33.69,33.69,0,0,1-13.526-2.624q-6.183-2.649-8.612-5.227a14.208,14.208,0,0,1-2.27-5.04,10.056,10.056,0,0,0-3.147-5.288,7.99,7.99,0,0,0-5.053-1.568,8.087,8.087,0,0,0-6.291,2.65q-2.368,2.637-2.348,8.811l.04,11.514q.021,6.091,2.408,8.711a8.083,8.083,0,0,0,6.308,2.607,6.98,6.98,0,0,0,3.377-.762,15.161,15.161,0,0,0,3.618-3.434,57.12,57.12,0,0,0,13.075,5.087,55.748,55.748,0,0,0,13.815,1.663,48.774,48.774,0,0,0,22.55-5.137l.121,35.292-2.67.009q-6.09.021-8.753,2.408a7.835,7.835,0,0,0-2.648,6.142,7.983,7.983,0,0,0,2.649,6.207q2.637,2.369,8.811,2.348l80.517-.276-.09-26.367Q181.5,158.922,179.11,156.3Z" style="fill:#242062"/><path d="M182.5,192.35l-81.407.279c-4.384.015-7.464-.826-9.41-2.575a8.891,8.891,0,0,1-2.944-6.867,8.718,8.718,0,0,1,2.946-6.807c1.958-1.759,5.015-2.621,9.343-2.636l1.78-.006-.113-32.972a50.547,50.547,0,0,1-21.661,4.594A56.831,56.831,0,0,1,67,143.67a57.955,57.955,0,0,1-12.644-4.831,14.132,14.132,0,0,1-3.4,3.095,7.881,7.881,0,0,1-3.8.872,8.984,8.984,0,0,1-6.97-2.9c-1.762-1.934-2.624-4.98-2.639-9.309l-.04-11.514c-.015-4.384.826-7.464,2.575-9.41a8.987,8.987,0,0,1,6.95-2.944,8.883,8.883,0,0,1,5.6,1.754,10.938,10.938,0,0,1,3.458,5.739c.859,2.91,1.607,4.166,2.085,4.7,1.507,1.6,4.305,3.288,8.295,5a32.937,32.937,0,0,0,13.171,2.552c7.395-.025,13.529-1.785,18.231-5.232,2.9-2.034,4.292-4.416,4.282-7.305a8.391,8.391,0,0,0-2.073-5.4c-1.4-1.724-3.741-3.179-6.968-4.329-2.179-.81-7.158-1.93-14.808-3.332-9.389-1.7-16.61-3.809-21.458-6.268A29.316,29.316,0,0,1,45.108,83.989,27.744,27.744,0,0,1,40.75,69.1c-.029-8.4,3.5-15.865,10.482-22.182,6.956-6.3,16.13-9.5,27.262-9.543a49.719,49.719,0,0,1,12.452,1.446,35.358,35.358,0,0,1,9.908,4.169,10.192,10.192,0,0,1,6.769-3.044,8.787,8.787,0,0,1,6.8,2.9c1.763,1.933,2.625,4.979,2.64,9.308L117.11,65c.015,4.384-.826,7.464-2.575,9.41a8.793,8.793,0,0,1-6.784,2.943,9.3,9.3,0,0,1-6.077-2.1c-1.394-1.067-2.406-3.09-3.08-6.164A14.913,14.913,0,0,0,96.4,63.36a17.444,17.444,0,0,0-6.936-5.048,26.281,26.281,0,0,0-10.822-2.056c-5.938.02-10.676,1.417-14.073,4.15-3.343,2.685-5.03,5.476-5.02,8.292A9.31,9.31,0,0,0,61.6,74.292a13.554,13.554,0,0,0,6.092,4.314c1.845.752,7.172,1.978,15.838,3.655,8.791,1.7,15.654,3.6,20.4,5.663a28.827,28.827,0,0,1,3.309,1.7l71.152-.168.092,26.923c.015,4.325-.813,7.373-2.531,9.319a8.735,8.735,0,0,1-6.828,2.95,8.927,8.927,0,0,1-6.879-2.851c-1.766-1.906-2.632-4.966-2.647-9.354l-.027-8.037-38.1.13.079,22.918,13.246-.046c.041-4.158.487-6.843,1.362-8.195a9.076,9.076,0,0,1,8.071-4.52,8.8,8.8,0,0,1,6.8,2.9c1.762,1.934,2.624,5.008,2.639,9.392l.068,19.691c.013,3.95-.468,6.573-1.468,8.022a9.469,9.469,0,0,1-16-.143c-.877-1.335-1.345-4.045-1.412-8.259l-13.245.045.08,23.335,41.858-.143-.029-8.372c-.015-4.384.826-7.463,2.575-9.409a8.885,8.885,0,0,1,6.867-2.944,8.788,8.788,0,0,1,6.8,2.9c1.762,1.934,2.625,5.007,2.64,9.391Zm-81.466-16.826c-3.817.013-6.561.746-8.163,2.18a6.931,6.931,0,0,0-2.352,5.477,7.077,7.077,0,0,0,2.355,5.547c1.58,1.42,4.343,2.134,8.213,2.121l79.627-.273-.087-25.476c-.014-3.87-.746-6.628-2.177-8.2a6.981,6.981,0,0,0-5.48-2.317,7.079,7.079,0,0,0-5.548,2.355c-1.42,1.58-2.133,4.343-2.12,8.212l.035,10.152-45.418.155-.092-26.894,16.8-.058,0,.89c.019,5.368.627,7.413,1.134,8.187a7.693,7.693,0,0,0,13.038.108c.539-.78,1.173-2.622,1.158-7.013l-.068-19.691c-.013-3.869-.746-6.627-2.176-8.2a6.986,6.986,0,0,0-5.481-2.318,7.315,7.315,0,0,0-6.579,3.7c-.508.787-1.1,2.823-1.084,8.121l0,.89-16.8.058-.091-26.478,41.663-.142.034,9.817c.013,3.866.742,6.61,2.17,8.152a7.14,7.14,0,0,0,5.57,2.279,6.944,6.944,0,0,0,5.5-2.348c1.4-1.579,2.1-4.318,2.083-8.135l-.086-25.143-69.876.163-.213-.131a27.121,27.121,0,0,0-3.308-1.72c-4.624-2-11.361-3.872-20.024-5.546C74.289,82.286,69,81.06,67.04,80.26a15.27,15.27,0,0,1-6.859-4.9A11.033,11.033,0,0,1,57.77,68.7c-.012-3.386,1.9-6.643,5.682-9.684,3.724-2.993,8.833-4.522,15.184-4.544A28.093,28.093,0,0,1,90.19,56.682a19.263,19.263,0,0,1,7.622,5.589,16.4,16.4,0,0,1,2.519,6.433c.572,2.613,1.395,4.345,2.447,5.148a7.5,7.5,0,0,0,4.967,1.717,6.979,6.979,0,0,0,5.465-2.355c1.419-1.579,2.133-4.342,2.12-8.212l-.044-12.849c-.013-3.814-.746-6.544-2.177-8.114a6.978,6.978,0,0,0-5.48-2.317c-1.974.006-4.008,1.021-6.042,3.021l-.509.5-.6-.391a33.368,33.368,0,0,0-9.972-4.311A48.011,48.011,0,0,0,78.5,39.151c-10.68.037-19.454,3.092-26.074,9.08C45.834,54.2,42.5,61.216,42.53,69.09a25.979,25.979,0,0,0,4.084,13.948,27.526,27.526,0,0,0,11.034,9.989c4.691,2.379,11.745,4.434,20.968,6.1,7.865,1.444,12.8,2.561,15.1,3.411,3.526,1.261,6.132,2.9,7.738,4.879a10.254,10.254,0,0,1,2.473,6.517c.012,3.463-1.678,6.41-5.024,8.758-5,3.664-11.486,5.539-19.263,5.566a34.706,34.706,0,0,1-13.881-2.7c-4.275-1.831-7.188-3.608-8.908-5.434a14.775,14.775,0,0,1-2.476-5.4,9.251,9.251,0,0,0-2.836-4.837,7.086,7.086,0,0,0-4.507-1.382,7.17,7.17,0,0,0-5.631,2.356c-1.42,1.58-2.134,4.343-2.121,8.212l.04,11.514c.013,3.814.745,6.544,2.176,8.114a7.17,7.17,0,0,0,5.647,2.317,6.109,6.109,0,0,0,2.949-.653,13.848,13.848,0,0,0,3.365-3.224l.464-.554.641.342a56.368,56.368,0,0,0,12.87,5.007,55.156,55.156,0,0,0,13.6,1.636,48.168,48.168,0,0,0,22.143-5.037l1.294-.668.129,37.637Z" style="fill:#b5a232"/><path d="M115,2.5A112.5,112.5,0,1,1,2.5,115,112.627,112.627,0,0,1,115,2.5M115,0A115,115,0,1,0,230,115,115,115,0,0,0,115,0Z" style="fill:#b5a232"/><path d="M956.308,84.012v20.362l3.618.371v2.087h-11.6v-1.995l3.711-.371V84.012h-4.917l-.788.6-.557,3.8h-2.551V81.832h21.753v6.586h-2.5l-.557-3.8-.649-.6Zm11.6,22.82v-2.087l2.968-.371V84.522l-3.061-.51v-2.18h9.694v1.159l6.447,17.069,6.586-16.976V81.832H1000v2.18l-3.015.51v19.852l3.015.463v1.995H989.842v-1.995l2.876-.463V84.2l-8.766,22.635h-2.087L973.516,84.2v20.177l2.922.371v2.087Z" style="fill:#231f61"/></svg>