<svg xmlns="http://www.w3.org/2000/svg" width="181.099" height="24" viewBox="0 0 181.099 24">
  <title>logo-full-white</title>
  <g>
    <g>
      <path d="M42.2,14.322c.078.922.89,1.711,2.4,1.711,1.383,0,2.2-.648,2.2-1.656,0-.812-.547-1.25-1.687-1.523l-1.75-.438a2.921,2.921,0,0,1-2.61-2.875c0-2.039,1.782-3.156,3.852-3.156s3.8,1.117,3.836,3.109h-1.7c-.078-.906-.774-1.656-2.156-1.656-1.219,0-2.047.578-2.047,1.57,0,.7.484,1.2,1.476,1.422l1.742.43c1.6.39,2.821,1.148,2.821,2.961,0,2.094-1.7,3.273-4.11,3.273-2.968,0-3.961-1.734-4-3.172Z" style="fill: #fff"/>
      <path d="M52.187,17.283,49.32,6.619h1.906l1.844,7.946h.062l1.985-7.946H56.75l1.984,7.946h.07l1.828-7.946h1.915L59.672,17.283h-1.61l-2.1-7.836h-.055l-2.1,7.836Z" style="fill: #fff"/>
      <path d="M63.82,17.283V6.619h1.773V17.283Z" style="fill: #fff"/>
      <path d="M67.992,17.283V6.619h1.562l5.039,7.656h.055V6.619h1.664V17.283H74.765L69.711,9.6h-.047v7.679Z" style="fill: #fff"/>
      <path d="M85.062,9.955a2.212,2.212,0,0,0-2.383-2.031c-1.656,0-2.617,1.187-2.617,3.219v1.476c0,2.078.867,3.36,2.672,3.36a2.164,2.164,0,0,0,2.391-2.118v-.836H82.672v-1.4H86.82v2.156c0,2.047-1.57,3.711-4.109,3.711-2.954,0-4.422-1.883-4.422-4.867V11.135c0-2.891,1.617-4.727,4.4-4.727,2.469,0,4,1.524,4.11,3.547Z" style="fill: #fff"/>
      <path d="M98.617,17.283H91.961V6.619h6.656V8.111H93.726V11.15h4.61v1.43h-4.61v3.211h4.891Z" style="fill: #fff"/>
      <path d="M101.672,14.322c.078.922.891,1.711,2.4,1.711,1.383,0,2.2-.648,2.2-1.656,0-.812-.547-1.25-1.688-1.523l-1.75-.438a2.92,2.92,0,0,1-2.609-2.875c0-2.039,1.781-3.156,3.851-3.156s3.8,1.117,3.836,3.109h-1.7c-.078-.906-.773-1.656-2.156-1.656-1.219,0-2.047.578-2.047,1.57,0,.7.484,1.2,1.476,1.422l1.743.43c1.6.39,2.82,1.148,2.82,2.961,0,2.094-1.695,3.273-4.109,3.273-2.969,0-3.961-1.734-4-3.172Z" style="fill: #fff"/>
      <path d="M110.914,14.322c.078.922.891,1.711,2.4,1.711,1.382,0,2.2-.648,2.2-1.656,0-.812-.547-1.25-1.688-1.523l-1.75-.438a2.92,2.92,0,0,1-2.609-2.875c0-2.039,1.781-3.156,3.851-3.156s3.8,1.117,3.836,3.109h-1.7c-.078-.906-.773-1.656-2.156-1.656-1.219,0-2.047.578-2.047,1.57,0,.7.484,1.2,1.477,1.422l1.742.43c1.6.39,2.82,1.148,2.82,2.961,0,2.094-1.7,3.273-4.109,3.273-2.969,0-3.961-1.734-4-3.172Z" style="fill: #fff"/>
      <path d="M125.805,17.283h-6.656V6.619h6.656V8.111h-4.891V11.15h4.61v1.43h-4.61v3.211h4.891Z" style="fill: #fff"/>
      <path d="M127.852,17.283V6.619h1.562l5.039,7.656h.055V6.619h1.664V17.283h-1.547L129.57,9.6h-.046v7.679Z" style="fill: #fff"/>
      <path d="M140.641,17.283V8.135h-3.133V6.619h8.023V8.135H142.4v9.148Z" style="fill: #fff"/>
      <path d="M146.859,17.283V6.619h1.774V17.283Z" style="fill: #fff"/>
      <path d="M149.992,17.283l3.672-10.664h1.985l3.664,10.664h-1.875l-.946-2.953H152.75l-.953,2.953Zm4.6-8.82-1.445,4.508h2.945l-1.43-4.508Z" style="fill: #fff"/>
      <path d="M167.141,17.283h-6.477V6.619h1.774v9.125h4.7Z" style="fill: #fff"/>
      <path d="M169.524,14.322c.078.922.89,1.711,2.4,1.711,1.383,0,2.2-.648,2.2-1.656,0-.812-.547-1.25-1.687-1.523l-1.75-.438a2.921,2.921,0,0,1-2.61-2.875c0-2.039,1.781-3.156,3.852-3.156s3.8,1.117,3.836,3.109h-1.7c-.079-.906-.774-1.656-2.157-1.656-1.218,0-2.047.578-2.047,1.57,0,.7.485,1.2,1.477,1.422l1.742.43c1.6.39,2.821,1.148,2.821,2.961,0,2.094-1.7,3.273-4.11,3.273-2.969,0-3.961-1.734-4-3.172Z" style="fill: #fff"/>
      <path d="M176.3,8.956V8.622a2.407,2.407,0,0,1,4.8,0v.334a2.4,2.4,0,0,1-4.8,0Zm4.24-.006V8.628a1.838,1.838,0,0,0-3.666,0V8.95a1.835,1.835,0,0,0,3.666,0Zm-2.764.972V7.6h1.159a.728.728,0,0,1,.8.726.7.7,0,0,1-.457.691l.545.9h-.662l-.469-.82h-.345v.82Zm.574-1.23h.357c.211,0,.433-.059.433-.334,0-.205-.134-.316-.386-.316h-.4Z" style="fill: #fff"/>
    </g>
    <g>
      <path d="M12,0A12,12,0,1,0,24,12,12,12,0,0,0,12,0Z" style="fill: #fff"/>
      <g>
        <path d="M18.69,16.31a.821.821,0,0,0-.641-.272.836.836,0,0,0-.648.276,1.363,1.363,0,0,0-.245.92l0,.966-4.553.016L12.6,15.6l1.567-.005a1.964,1.964,0,0,0,.134.905.9.9,0,0,0,1.515.012,1.5,1.5,0,0,0,.136-.784l-.007-2.055a1.358,1.358,0,0,0-.251-.918.825.825,0,0,0-.641-.272.854.854,0,0,0-.764.43,1.917,1.917,0,0,0-.128.9l-1.567.005-.009-2.577,4.162-.014,0,.931a1.341,1.341,0,0,0,.251.914.841.841,0,0,0,.65.267.821.821,0,0,0,.643-.276,1.364,1.364,0,0,0,.241-.911l-.01-2.716-7.357.017a3.011,3.011,0,0,0-.357-.185A10.614,10.614,0,0,0,8.7,8.675,13.152,13.152,0,0,1,7.03,8.289a1.5,1.5,0,0,1-.676-.481,1.058,1.058,0,0,1-.233-.639,1.236,1.236,0,0,1,.558-.938,2.392,2.392,0,0,1,1.527-.454A2.829,2.829,0,0,1,9.373,6a1.9,1.9,0,0,1,.76.554,1.649,1.649,0,0,1,.246.635,1,1,0,0,0,.289.591.876.876,0,0,0,.575.2.823.823,0,0,0,.639-.276,1.354,1.354,0,0,0,.245-.919l0-1.341a1.345,1.345,0,0,0-.252-.909.819.819,0,0,0-.64-.272,1.008,1.008,0,0,0-.7.342A3.585,3.585,0,0,0,9.467,4.14a5.106,5.106,0,0,0-1.276-.148,4.012,4.012,0,0,0-2.783.972A2.934,2.934,0,0,0,4.345,7.21a2.786,2.786,0,0,0,.441,1.5A2.946,2.946,0,0,0,5.973,9.79a8.391,8.391,0,0,0,2.214.645,12.2,12.2,0,0,1,1.56.352,1.713,1.713,0,0,1,.768.481.978.978,0,0,1,.237.621,1,1,0,0,1-.485.838,3.25,3.25,0,0,1-1.957.564A3.513,3.513,0,0,1,6.9,13.017a2.753,2.753,0,0,1-.9-.545,1.473,1.473,0,0,1-.237-.526,1.051,1.051,0,0,0-.328-.552.84.84,0,0,0-.528-.164.843.843,0,0,0-.656.277,1.354,1.354,0,0,0-.245.919l0,1.2a1.349,1.349,0,0,0,.251.909.846.846,0,0,0,.659.272.73.73,0,0,0,.352-.08,1.563,1.563,0,0,0,.377-.358,6.011,6.011,0,0,0,1.365.531,5.819,5.819,0,0,0,1.441.173,5.082,5.082,0,0,0,2.353-.536l.013,3.683h-.279a1.359,1.359,0,0,0-.913.251.818.818,0,0,0-.276.641.836.836,0,0,0,.276.648,1.368,1.368,0,0,0,.92.245l8.4-.029-.009-2.752A1.355,1.355,0,0,0,18.69,16.31Z" style="fill: #242062"/>
        <path d="M19.043,20.071l-8.494.029a1.43,1.43,0,0,1-.982-.268.928.928,0,0,1-.307-.717.907.907,0,0,1,.307-.71,1.425,1.425,0,0,1,.975-.275h.186l-.012-3.44a5.28,5.28,0,0,1-2.26.479,5.959,5.959,0,0,1-1.465-.176,6.06,6.06,0,0,1-1.319-.5,1.487,1.487,0,0,1-.355.323.84.84,0,0,1-.4.091.934.934,0,0,1-.727-.3,1.415,1.415,0,0,1-.276-.971l0-1.2a1.423,1.423,0,0,1,.269-.981.936.936,0,0,1,.725-.308.932.932,0,0,1,.584.183,1.144,1.144,0,0,1,.361.6,1.344,1.344,0,0,0,.218.491,2.7,2.7,0,0,0,.865.522A3.444,3.444,0,0,0,8.31,13.2a3.171,3.171,0,0,0,1.9-.546.9.9,0,0,0,.447-.762.88.88,0,0,0-.216-.564,1.621,1.621,0,0,0-.728-.451,11.722,11.722,0,0,0-1.545-.348,8.573,8.573,0,0,1-2.239-.654A3.051,3.051,0,0,1,4.707,8.764,2.894,2.894,0,0,1,4.252,7.21,3.035,3.035,0,0,1,5.346,4.895,4.116,4.116,0,0,1,8.191,3.9a5.2,5.2,0,0,1,1.3.15,3.693,3.693,0,0,1,1.034.435,1.064,1.064,0,0,1,.706-.317.918.918,0,0,1,.71.3,1.417,1.417,0,0,1,.276.971l0,1.341a1.424,1.424,0,0,1-.269.982.914.914,0,0,1-.707.307.973.973,0,0,1-.635-.219,1.074,1.074,0,0,1-.321-.643,1.56,1.56,0,0,0-.229-.6,1.819,1.819,0,0,0-.723-.526,2.755,2.755,0,0,0-1.13-.215A2.3,2.3,0,0,0,6.738,6.3a1.155,1.155,0,0,0-.524.865.975.975,0,0,0,.214.584,1.405,1.405,0,0,0,.636.45,12.911,12.911,0,0,0,1.652.382,10.7,10.7,0,0,1,2.129.591,2.875,2.875,0,0,1,.345.177l7.425-.017.01,2.809a1.429,1.429,0,0,1-.265.972.909.909,0,0,1-.712.308.934.934,0,0,1-.718-.3,1.41,1.41,0,0,1-.276-.976l0-.839-3.976.014.008,2.391,1.382-.005a1.79,1.79,0,0,1,.143-.855.949.949,0,0,1,.842-.472.917.917,0,0,1,.71.3,1.424,1.424,0,0,1,.275.98l.007,2.054a1.561,1.561,0,0,1-.153.838.989.989,0,0,1-1.669-.015,1.816,1.816,0,0,1-.148-.862l-1.382,0,.008,2.435,4.368-.015,0-.873a1.429,1.429,0,0,1,.269-.982.987.987,0,0,1,1.426,0,1.432,1.432,0,0,1,.276.98Zm-8.5-1.755a1.28,1.28,0,0,0-.852.227.726.726,0,0,0-.246.572.739.739,0,0,0,.246.578,1.28,1.28,0,0,0,.857.222l8.309-.029-.009-2.658a1.284,1.284,0,0,0-.227-.856.729.729,0,0,0-.572-.241.737.737,0,0,0-.579.245,1.286,1.286,0,0,0-.221.857l0,1.06-4.74.016L12.5,15.5l1.753-.006v.093a1.817,1.817,0,0,0,.118.855.8.8,0,0,0,1.361.011,1.375,1.375,0,0,0,.12-.732l-.007-2.055a1.277,1.277,0,0,0-.227-.855.726.726,0,0,0-.572-.242.762.762,0,0,0-.686.386,1.778,1.778,0,0,0-.113.847V13.9L12.5,13.9l-.009-2.763,4.347-.014,0,1.024a1.265,1.265,0,0,0,.226.851.743.743,0,0,0,.581.237.718.718,0,0,0,.574-.245,1.28,1.28,0,0,0,.218-.848L18.43,9.521l-7.292.017-.022-.014a2.887,2.887,0,0,0-.345-.179,10.632,10.632,0,0,0-2.089-.579A13.024,13.024,0,0,1,7,8.375a1.6,1.6,0,0,1-.715-.511,1.156,1.156,0,0,1-.252-.7,1.325,1.325,0,0,1,.593-1.01,2.486,2.486,0,0,1,1.585-.475,2.931,2.931,0,0,1,1.205.231,2.01,2.01,0,0,1,.8.583,1.706,1.706,0,0,1,.262.671.925.925,0,0,0,.256.537.784.784,0,0,0,.518.18.731.731,0,0,0,.57-.246,1.28,1.28,0,0,0,.221-.857l0-1.341A1.273,1.273,0,0,0,11.8,4.6a.729.729,0,0,0-.572-.241.927.927,0,0,0-.631.315l-.053.052-.062-.041a3.488,3.488,0,0,0-1.041-.449,5.02,5.02,0,0,0-1.253-.146,3.937,3.937,0,0,0-2.72.948A2.857,2.857,0,0,0,4.438,7.209a2.713,2.713,0,0,0,.426,1.456A2.876,2.876,0,0,0,6.015,9.707a8.4,8.4,0,0,0,2.188.637,11.963,11.963,0,0,1,1.576.356,1.8,1.8,0,0,1,.808.509,1.074,1.074,0,0,1,.258.68,1.088,1.088,0,0,1-.525.914,3.353,3.353,0,0,1-2.01.581A3.628,3.628,0,0,1,6.862,13.1a2.813,2.813,0,0,1-.93-.567,1.546,1.546,0,0,1-.258-.563.968.968,0,0,0-.3-.5.74.74,0,0,0-.47-.144.748.748,0,0,0-.588.246,1.28,1.28,0,0,0-.221.857l0,1.2a1.267,1.267,0,0,0,.227.847.75.75,0,0,0,.589.242.644.644,0,0,0,.308-.068,1.457,1.457,0,0,0,.351-.337l.049-.058.066.036a5.884,5.884,0,0,0,1.343.523,5.79,5.79,0,0,0,1.419.17,5.027,5.027,0,0,0,2.311-.525l.135-.07.013,3.927Z" style="fill: #b5a232"/>
      </g>
      <path d="M12,.261A11.739,11.739,0,1,1,.261,12,11.752,11.752,0,0,1,12,.261M12,0A12,12,0,1,0,24,12,12,12,0,0,0,12,0Z" style="fill: #b5a232"/>
    </g>
  </g>
</svg>
