<svg version="1.1"
	 xmlns="http://www.w3.org/2000/svg" 
	 x="0px" y="0px" width="135px" height="40px" viewBox="0 0 135 40" xml:space="preserve">
<style type="text/css">
	.st0{fill:#A6A6A6;}
	.st1{fill:#FFFFFF;}
</style>
<defs>
</defs>
<g>
	<g>
		<g>
			<path class="st0" d="M124.2,0H10.8c-0.4,0-0.8,0-1.2,0c-0.3,0-0.7,0-1,0C7.7,0,7,0.1,6.2,0.2C5.5,0.3,4.8,0.5,4.1,0.8
				C3.4,1.1,2.8,1.5,2.3,2c-0.5,0.5-1,1-1.3,1.6C0.6,4.2,0.3,4.9,0.2,5.5C0.1,6.2,0,6.9,0,7.5c0,0.3,0,0.6,0,0.9v23.1
				c0,0.3,0,0.6,0,0.9c0,0.7,0.1,1.3,0.2,2c0.1,0.7,0.4,1.3,0.7,1.9C1.3,37,1.7,37.5,2.3,38c0.5,0.5,1.2,0.9,1.8,1.2
				c0.7,0.3,1.4,0.5,2.1,0.6C7,39.9,7.7,40,8.5,40c0.3,0,0.7,0,1,0c0.4,0,0.8,0,1.2,0h113.5c0.4,0,0.8,0,1.2,0c0.3,0,0.7,0,1,0
				c0.8,0,1.5-0.1,2.3-0.2c0.7-0.1,1.5-0.3,2.2-0.6c0.7-0.3,1.3-0.7,1.8-1.2c0.5-0.5,1-1,1.3-1.6c0.3-0.6,0.6-1.2,0.7-1.9
				c0.1-0.7,0.2-1.3,0.2-2c0-0.3,0-0.6,0-0.9c0-0.4,0-0.7,0-1.1V9.5c0-0.4,0-0.7,0-1.1c0-0.3,0-0.6,0-0.9c0-0.7-0.1-1.3-0.2-2
				c-0.1-0.7-0.4-1.3-0.7-1.9c-0.7-1.2-1.8-2.2-3.2-2.8c-0.7-0.3-1.4-0.5-2.2-0.6C128,0.1,127.3,0,126.5,0c-0.3,0-0.7,0-1,0
				C125.1,0,124.7,0,124.2,0L124.2,0z"/>
			<path d="M9.5,39.1c-0.3,0-0.7,0-1,0c-0.7,0-1.4-0.1-2.1-0.2c-0.7-0.1-1.3-0.3-1.9-0.5c-0.6-0.3-1.1-0.6-1.6-1
				C2.5,37,2.1,36.5,1.8,36c-0.3-0.5-0.5-1.1-0.6-1.7C1.1,33.7,1,33.1,1,32.5c0-0.2,0-0.9,0-0.9V8.4c0,0,0-0.7,0-0.9
				c0-0.6,0.1-1.3,0.2-1.9C1.3,5.1,1.5,4.5,1.8,4C2.1,3.5,2.5,3,3,2.6c0.5-0.4,1-0.8,1.6-1c0.6-0.3,1.2-0.4,1.9-0.5
				c0.7-0.1,1.4-0.2,2.1-0.2l1,0h115.9l1,0c0.7,0,1.4,0.1,2.1,0.2c0.7,0.1,1.3,0.3,1.9,0.5c1.2,0.5,2.1,1.4,2.7,2.4
				c0.3,0.5,0.5,1.1,0.6,1.6c0.1,0.6,0.2,1.3,0.2,1.9c0,0.3,0,0.6,0,0.9c0,0.4,0,0.7,0,1.1v20.9c0,0.4,0,0.7,0,1.1
				c0,0.3,0,0.6,0,0.9c0,0.6-0.1,1.2-0.2,1.9c-0.1,0.6-0.3,1.1-0.6,1.7c-0.3,0.5-0.7,1-1.1,1.4c-0.5,0.4-1,0.8-1.6,1
				c-0.6,0.3-1.2,0.5-1.9,0.5c-0.7,0.1-1.4,0.2-2.1,0.2c-0.3,0-0.7,0-1,0l-1.2,0L9.5,39.1z"/>
		</g>
		<g id="_Group__1_">
			<g id="_Group_2_1_">
				<g id="_Group_3_1_">
					<path id="_Path__1_" class="st1" d="M32.4,20.3c0-1.7,0.9-3.3,2.4-4.2c-0.9-1.3-2.4-2.1-4-2.2c-1.7-0.2-3.3,1-4.2,1
						c-0.9,0-2.2-1-3.6-1c-1.9,0.1-3.6,1.1-4.5,2.7c-1.9,3.3-0.5,8.3,1.4,11c0.9,1.3,2,2.8,3.4,2.8c1.4-0.1,1.9-0.9,3.6-0.9
						c1.7,0,2.1,0.9,3.6,0.9c1.5,0,2.4-1.3,3.3-2.7c0.7-0.9,1.2-2,1.5-3.1C33.6,24,32.4,22.2,32.4,20.3z"/>
					<path id="_Path_2_1_" class="st1" d="M29.7,12.2c0.8-1,1.2-2.2,1.1-3.5c-1.2,0.1-2.4,0.7-3.2,1.7c-0.8,0.9-1.2,2.1-1.1,3.4
						C27.7,13.8,28.9,13.2,29.7,12.2z"/>
				</g>
			</g>
			<g>
				<path class="st1" d="M50,27.1h-4.7l-1.1,3.4h-2l4.5-12.4h2.1l4.5,12.4h-2L50,27.1z M45.7,25.6h3.8l-1.8-5.4h-0.1L45.7,25.6z"/>
				<path class="st1" d="M62.8,26c0,2.8-1.5,4.6-3.8,4.6c-1.2,0.1-2.3-0.6-2.8-1.6h0v4.5h-1.9v-12h1.8v1.5h0c0.6-1,1.7-1.6,2.9-1.6
					C61.3,21.3,62.8,23.2,62.8,26z M60.9,26c0-1.8-0.9-3-2.4-3c-1.4,0-2.4,1.2-2.4,3c0,1.8,1,3,2.4,3C60,29,60.9,27.8,60.9,26z"/>
				<path class="st1" d="M72.8,26c0,2.8-1.5,4.6-3.8,4.6c-1.2,0.1-2.3-0.6-2.8-1.6h0v4.5h-1.9v-12h1.8v1.5h0c0.6-1,1.7-1.6,2.9-1.6
					C71.3,21.3,72.8,23.2,72.8,26z M70.9,26c0-1.8-0.9-3-2.4-3c-1.4,0-2.4,1.2-2.4,3c0,1.8,1,3,2.4,3C69.9,29,70.9,27.8,70.9,26
					L70.9,26z"/>
				<path class="st1" d="M79.4,27c0.1,1.2,1.3,2,3,2c1.6,0,2.7-0.8,2.7-1.9c0-1-0.7-1.5-2.3-1.9l-1.6-0.4c-2.3-0.6-3.3-1.6-3.3-3.3
					c0-2.1,1.9-3.6,4.5-3.6c2.6,0,4.4,1.5,4.5,3.6h-1.9c-0.1-1.2-1.1-2-2.6-2s-2.5,0.8-2.5,1.9c0,0.9,0.7,1.4,2.3,1.8l1.4,0.3
					c2.5,0.6,3.6,1.6,3.6,3.4c0,2.3-1.9,3.8-4.8,3.8c-2.8,0-4.6-1.4-4.7-3.7L79.4,27z"/>
				<path class="st1" d="M91,19.3v2.1h1.7v1.5H91v5c0,0.8,0.3,1.1,1.1,1.1c0.2,0,0.4,0,0.6,0v1.5c-0.3,0.1-0.7,0.1-1,0.1
					c-1.8,0-2.5-0.7-2.5-2.4v-5.2h-1.3v-1.5h1.3v-2.1H91z"/>
				<path class="st1" d="M93.7,26c0-2.8,1.7-4.6,4.3-4.6c2.6,0,4.3,1.8,4.3,4.6c0,2.9-1.7,4.6-4.3,4.6C95.4,30.6,93.7,28.8,93.7,26z
					 M100.4,26c0-2-0.9-3.1-2.4-3.1S95.6,24,95.6,26c0,2,0.9,3.1,2.4,3.1S100.4,27.9,100.4,26L100.4,26z"/>
				<path class="st1" d="M103.9,21.4h1.8V23h0c0.2-1,1.2-1.7,2.2-1.6c0.2,0,0.4,0,0.6,0.1v1.7c-0.3-0.1-0.6-0.1-0.8-0.1
					c-1,0-1.9,0.8-1.9,1.8c0,0.1,0,0.2,0,0.3v5.4h-1.9L103.9,21.4z"/>
				<path class="st1" d="M117.1,27.8c-0.3,1.6-1.9,2.8-3.9,2.8c-2.6,0-4.3-1.8-4.3-4.6c0-2.8,1.6-4.7,4.2-4.7c2.5,0,4.1,1.7,4.1,4.5
					v0.6h-6.4v0.1c-0.1,1.3,0.8,2.4,2.1,2.6c0.1,0,0.2,0,0.3,0c0.9,0.1,1.8-0.4,2.1-1.3L117.1,27.8z M110.8,25.1h4.5
					c0.1-1.2-0.9-2.2-2.1-2.3c-0.1,0-0.1,0-0.2,0C111.8,22.8,110.8,23.8,110.8,25.1C110.8,25.1,110.8,25.1,110.8,25.1z"/>
			</g>
		</g>
	</g>
	<g id="_Group_4_1_">
		<g>
			<path class="st1" d="M45.5,8.7c1.5-0.1,2.7,1,2.8,2.4c0,0.2,0,0.3,0,0.5c0,1.9-1,3-2.8,3h-2.2v-6H45.5z M44.3,13.9h1.1
				c1,0.1,1.9-0.7,2-1.8c0-0.1,0-0.3,0-0.4c0.1-1-0.6-2-1.6-2.1c-0.1,0-0.2,0-0.4,0h-1.1V13.9z"/>
			<path class="st1" d="M49.3,12.4c-0.1-1.2,0.7-2.2,1.9-2.3c1.2-0.1,2.2,0.7,2.3,1.9c0,0.1,0,0.3,0,0.4c0.1,1.2-0.7,2.2-1.9,2.3
				c-1.2,0.1-2.2-0.7-2.3-1.9C49.3,12.7,49.3,12.6,49.3,12.4z M52.7,12.4c0-1-0.4-1.5-1.2-1.5c-0.8,0-1.2,0.6-1.2,1.5
				c0,1,0.4,1.6,1.2,1.6C52.2,14,52.7,13.4,52.7,12.4L52.7,12.4z"/>
			<path class="st1" d="M59.2,14.7h-0.9l-0.9-3.3h-0.1l-0.9,3.3h-0.9l-1.2-4.5h0.9l0.8,3.4H56l0.9-3.4h0.9l0.9,3.4h0.1l0.8-3.4h0.9
				L59.2,14.7z"/>
			<path class="st1" d="M61.5,10.2h0.9v0.7h0.1c0.2-0.5,0.8-0.8,1.3-0.8c0.8-0.1,1.5,0.5,1.6,1.4c0,0.1,0,0.2,0,0.3v2.9h-0.9V12
				c0-0.7-0.3-1.1-1-1.1c-0.6,0-1.1,0.4-1.1,1c0,0.1,0,0.1,0,0.2v2.6h-0.9L61.5,10.2z"/>
			<path class="st1" d="M66.8,8.4h0.9v6.3h-0.9V8.4z"/>
			<path class="st1" d="M68.9,12.4c-0.1-1.2,0.7-2.2,1.9-2.3C72,10,73,10.9,73.1,12c0,0.1,0,0.3,0,0.4c0.1,1.2-0.7,2.2-1.9,2.3
				C70,14.9,69,14,68.9,12.9C68.9,12.7,68.9,12.6,68.9,12.4z M72.2,12.4c0-1-0.4-1.5-1.2-1.5c-0.8,0-1.2,0.6-1.2,1.5
				c0,1,0.4,1.6,1.2,1.6C71.8,14,72.2,13.4,72.2,12.4z"/>
			<path class="st1" d="M74.1,13.4c0-0.8,0.6-1.3,1.7-1.3L77,12v-0.4c0-0.5-0.3-0.7-0.9-0.7c-0.5,0-0.8,0.2-0.9,0.5h-0.9
				c0.1-0.8,0.8-1.3,1.8-1.3c1.1,0,1.8,0.6,1.8,1.5v3.1H77v-0.6h-0.1c-0.3,0.5-0.8,0.7-1.4,0.7c-0.7,0.1-1.4-0.5-1.5-1.2
				C74.1,13.5,74.1,13.5,74.1,13.4z M77,13v-0.4l-1.1,0.1c-0.6,0-0.9,0.3-0.9,0.6c0,0.4,0.4,0.6,0.8,0.6C76.4,14.1,76.9,13.7,77,13
				C77,13.1,77,13.1,77,13z"/>
			<path class="st1" d="M79,12.4c0-1.4,0.7-2.3,1.9-2.3c0.6,0,1.1,0.3,1.4,0.8h0.1V8.4h0.9v6.3h-0.9V14h-0.1
				c-0.3,0.5-0.8,0.8-1.4,0.8C79.7,14.8,79,13.9,79,12.4z M79.9,12.4c0,1,0.5,1.5,1.2,1.5c0.7,0,1.2-0.6,1.2-1.5
				c0-0.9-0.5-1.5-1.2-1.5C80.4,10.9,79.9,11.5,79.9,12.4L79.9,12.4z"/>
			<path class="st1" d="M86.9,12.4c-0.1-1.2,0.7-2.2,1.9-2.3s2.2,0.7,2.3,1.9c0,0.1,0,0.3,0,0.4c0.1,1.2-0.7,2.2-1.9,2.3
				c-1.2,0.1-2.2-0.7-2.3-1.9C86.9,12.7,86.9,12.6,86.9,12.4z M90.2,12.4c0-1-0.4-1.5-1.2-1.5c-0.8,0-1.2,0.6-1.2,1.5
				c0,1,0.4,1.6,1.2,1.6C89.8,14,90.2,13.4,90.2,12.4z"/>
			<path class="st1" d="M92.3,10.2h0.9v0.7h0.1c0.2-0.5,0.8-0.8,1.3-0.8c0.8-0.1,1.5,0.5,1.6,1.4c0,0.1,0,0.2,0,0.3v2.9h-0.9V12
				c0-0.7-0.3-1.1-1-1.1c-0.6,0-1.1,0.4-1.1,1c0,0.1,0,0.1,0,0.2v2.6h-0.9V10.2z"/>
			<path class="st1" d="M101.2,9.1v1.1h1V11h-1v2.3c0,0.5,0.2,0.7,0.6,0.7c0.1,0,0.2,0,0.3,0v0.7c-0.2,0-0.3,0-0.5,0
				c-1,0-1.4-0.3-1.4-1.2V11h-0.7v-0.7h0.7V9.1H101.2z"/>
			<path class="st1" d="M103.4,8.4h0.9v2.5h0.1c0.2-0.5,0.8-0.9,1.4-0.8c0.8,0,1.5,0.6,1.6,1.4c0,0.1,0,0.2,0,0.3v2.9h-0.9V12
				c0-0.7-0.3-1.1-1-1.1c-0.6,0-1.1,0.4-1.1,1c0,0.1,0,0.1,0,0.2v2.6h-0.9L103.4,8.4z"/>
			<path class="st1" d="M112.4,13.5c-0.2,0.8-1.1,1.4-2,1.3c-1.1,0-2.1-0.9-2.1-2c0-0.1,0-0.2,0-0.3c-0.2-1.1,0.6-2.2,1.8-2.3
				c0.1,0,0.2,0,0.3,0c1.3,0,2,0.9,2,2.3v0.3h-3.2v0c-0.1,0.7,0.4,1.2,1.1,1.3c0,0,0.1,0,0.1,0c0.4,0.1,0.9-0.2,1.1-0.5L112.4,13.5z
				 M109.3,12h2.3c0-0.6-0.4-1.1-1-1.2c0,0-0.1,0-0.1,0C109.8,10.9,109.3,11.4,109.3,12C109.3,12,109.3,12,109.3,12L109.3,12z"/>
		</g>
	</g>
</g>
</svg>
