<svg xmlns="http://www.w3.org/2000/svg" width="912" height="337.5506" viewBox="0 0 912 337.5506"><title>logo-full-white</title><path d="M5.32,298.1287H9.3277v6.1406h4.875v3.375H9.3277v14.4141c0,2.9531.9844,3.7031,4.0078,3.7031a7.1044,7.1044,0,0,0,1.0312-.0468v3.2343a12.3506,12.3506,0,0,1-2.039.1641c-5.836,0-7.0313-2.25-7.0313-7.1016V307.6443H1.9917v-3.375H5.32Z" style="fill:#fff"/><path d="M20.4605,295.2225h4.0312v12.3047h.1172a8.0179,8.0179,0,0,1,7.1719-3.6563c5.0859,0,8.8359,3.2344,8.8359,9.2344v15.7969H36.5855V313.785c0-4.1485-2.4141-6.2578-6.0234-6.2578-4.2422,0-6.07,3-6.07,6.375v15H20.4605Z" style="fill:#fff"/><path d="M46.4292,317.7693v-2.7656c0-6.4922,3.68-11.1328,10.1485-11.1328,6.4453,0,10.1484,4.6406,10.1484,11.4141v2.2968H50.4605v.4454c0,4.6875,2.3906,7.8984,6.3984,7.8984A5.4143,5.4143,0,0,0,62.39,322.199H66.398c-.9375,4.0782-4.1953,7.1016-9.6328,7.1016C50.3433,329.3006,46.4292,324.7772,46.4292,317.7693Zm16.2657-3.4453v-.07c0-3.914-2.4141-7.0078-6.0938-7.0078-3.75,0-6.1406,3.1172-6.1406,7.0078v.07Z" style="fill:#fff"/><path d="M86.648,325.6209h-.1172v11.4609H82.5V304.2693h3.8671v3.5391h.1172a8.2763,8.2763,0,0,1,7.2657-3.9141c5.5546,0,9.6562,4.2657,9.6562,11.5547v2.2735c0,7.1953-4.0312,11.5781-9.82,11.5781A7.9758,7.9758,0,0,1,86.648,325.6209Zm12.7031-8.2031V315.59c0-5.18-2.2969-8.2266-6.2812-8.2266-4.1016,0-6.6094,3.3047-6.6094,8.2031v1.8516c0,5.039,2.5312,8.3672,6.7266,8.3672C96.8667,325.785,99.3511,322.8318,99.3511,317.4178Z" style="fill:#fff"/><path d="M109.5933,304.2693h4.0313v3.0235h.1171a6.4353,6.4353,0,0,1,6.07-3.3985,10.8373,10.8373,0,0,1,1.5234.1172v3.68a14.8766,14.8766,0,0,0-1.9688-.0937c-4.3593,0-5.7187,2.7187-5.7187,6.0468v15.2579h-4.0547Z" style="fill:#fff"/><path d="M145.9683,315.449v2.2032c0,6.68-3.6328,11.6484-10.5469,11.6484s-10.5937-4.9688-10.5937-11.6484V315.449c0-6.5859,3.7031-11.5781,10.5937-11.5781S145.9683,308.8631,145.9683,315.449Zm-17.1094.1407v1.9218c0,5.0157,2.32,8.2969,6.5625,8.2969,4.2188,0,6.5157-3.2578,6.5157-8.2969V315.59c0-5.0391-2.2969-8.2735-6.5157-8.2735C131.1792,307.3162,128.8589,310.5506,128.8589,315.59Z" style="fill:#fff"/><path d="M164.0386,295.7615a2.5664,2.5664,0,1,1-2.5781,2.5782A2.5758,2.5758,0,0,1,164.0386,295.7615Zm-2.0156,8.5078h4.0312v24.6329H162.023Z" style="fill:#fff"/><path d="M173.4839,304.2693h4.0078v3.2579h.1172a8.0324,8.0324,0,0,1,7.1953-3.6563c5.0625,0,8.836,3.2344,8.836,9.2344v15.7969h-4.0313V313.785c0-4.1485-2.4375-6.2578-6.0234-6.2578-4.2422,0-6.07,3-6.07,6.375v15h-4.0313Z" style="fill:#fff"/><path d="M220.0308,329.0193l-.6328,1.711c-1.9219,5.2265-4.3359,6.82-8.4844,6.82a11.8847,11.8847,0,0,1-2.2734-.2109v-3.2813c.3984.0469,1.1719.0938,1.7812.0938,2.8125,0,4.1485-.961,4.8516-3.5625l.375-1.336-9.07-24.9844h4.4765l6.6563,20.1563h.1406l6.68-20.1563H228.82C228.5855,305.0662,220.0542,328.9959,220.0308,329.0193Z" style="fill:#fff"/><path d="M252.6324,315.449v2.2032c0,6.68-3.6328,11.6484-10.5469,11.6484s-10.5938-4.9688-10.5938-11.6484V315.449c0-6.5859,3.7032-11.5781,10.5938-11.5781S252.6324,308.8631,252.6324,315.449Zm-17.1094.1407v1.9218c0,5.0157,2.32,8.2969,6.5625,8.2969,4.2187,0,6.5156-3.2578,6.5156-8.2969V315.59c0-5.0391-2.2969-8.2735-6.5156-8.2735C237.8433,307.3162,235.523,310.5506,235.523,315.59Z" style="fill:#fff"/><path d="M278.4839,328.9022h-4.0078v-3.2344h-.164c-.8672,1.9453-3.1875,3.6328-7.125,3.6328-5.086,0-8.7188-2.9063-8.7188-8.5547V304.2693h4.0547v15.3282c0,4.5937,2.6484,6.07,5.8828,6.07,3.5391,0,6.0234-2.2266,6.0234-6.1406V304.2693h4.0547Z" style="fill:#fff"/><path d="M285.6558,304.2693h4.0313v3.0235h.1171a6.4353,6.4353,0,0,1,6.07-3.3985,10.8373,10.8373,0,0,1,1.5234.1172v3.68a14.8766,14.8766,0,0,0-1.9688-.0937c-4.3593,0-5.7187,2.7187-5.7187,6.0468v15.2579h-4.0547Z" style="fill:#fff"/><path d="M315.7261,325.6209h-.1172v11.4609h-4.0312V304.2693h3.8672v3.5391h.1172a8.276,8.276,0,0,1,7.2656-3.9141c5.5547,0,9.6562,4.2657,9.6562,11.5547v2.2735c0,7.1953-4.0312,11.5781-9.82,11.5781A7.9758,7.9758,0,0,1,315.7261,325.6209Zm12.7031-8.2031V315.59c0-5.18-2.2968-8.2266-6.2812-8.2266-4.1016,0-6.6094,3.3047-6.6094,8.2031v1.8516c0,5.039,2.5313,8.3672,6.7266,8.3672C325.9449,325.785,328.4292,322.8318,328.4292,317.4178Z" style="fill:#fff"/><path d="M358.8277,315.449v2.2032c0,6.68-3.6328,11.6484-10.5469,11.6484s-10.5937-4.9688-10.5937-11.6484V315.449c0-6.5859,3.7031-11.5781,10.5937-11.5781S358.8277,308.8631,358.8277,315.449Zm-17.1094.1407v1.9218c0,5.0157,2.32,8.2969,6.5625,8.2969,4.2188,0,6.5156-3.2578,6.5156-8.2969V315.59c0-5.0391-2.2968-8.2735-6.5156-8.2735C344.0386,307.3162,341.7183,310.5506,341.7183,315.59Z" style="fill:#fff"/><path d="M364.0542,315.2615c0-6.6328,3.7969-11.3906,10.2188-11.3906,5.6953,0,9.1641,3.7734,9.375,7.5469h-3.9609a5.3359,5.3359,0,0,0-5.1563-3.9844c-4.0781,0-6.4453,3.0234-6.4453,7.9922v2.2969c0,4.8281,2.5312,8.0156,6.4687,8.0156,3.07,0,4.875-1.6406,5.32-3.6094h3.9609c-.82,4.2188-3.9141,7.1719-9.5625,7.1719-6.5391,0-10.2188-5.0391-10.2188-11.6016Z" style="fill:#fff"/><path d="M393.5621,328.9022h-4.0313v-33.68h4.0313v19.9453h.164l9.82-10.8985h4.9922l-9.7265,10.711,10.3359,13.9219h-4.9453l-8.3672-11.3672-2.2734,2.4843Z" style="fill:#fff"/><path d="M411.1636,317.7693v-2.7656c0-6.4922,3.68-11.1328,10.1485-11.1328,6.4453,0,10.1484,4.6406,10.1484,11.4141v2.2968H415.1949v.4454c0,4.6875,2.3906,7.8984,6.3984,7.8984a5.4143,5.4143,0,0,0,5.5313-3.7266h4.0078c-.9375,4.0782-4.1953,7.1016-9.6328,7.1016C415.0777,329.3006,411.1636,324.7772,411.1636,317.7693Zm16.2656-3.4453v-.07c0-3.914-2.414-7.0078-6.0937-7.0078-3.75,0-6.1406,3.1172-6.1406,7.0078v.07Z" style="fill:#fff"/><path d="M439.1011,298.1287h4.0078v6.1406h4.875v3.375h-4.875v14.4141c0,2.9531.9844,3.7031,4.0078,3.7031a7.1051,7.1051,0,0,0,1.0313-.0468v3.2343a12.3521,12.3521,0,0,1-2.0391.1641c-5.8359,0-7.0312-2.25-7.0312-7.1016V307.6443H435.773v-3.375h3.3281Z" style="fill:#fff"/><path d="M452.2261,335.5584l2.0625-11.2266h4.2422L455.32,335.5584Z" style="fill:#fff"/><path d="M494.4839,315.449v2.2032c0,6.68-3.6328,11.6484-10.5468,11.6484s-10.5938-4.9688-10.5938-11.6484V315.449c0-6.5859,3.7031-11.5781,10.5938-11.5781S494.4839,308.8631,494.4839,315.449Zm-17.1093.1407v1.9218c0,5.0157,2.32,8.2969,6.5625,8.2969,4.2187,0,6.5156-3.2578,6.5156-8.2969V315.59c0-5.0391-2.2969-8.2735-6.5156-8.2735C479.6949,307.3162,477.3746,310.5506,477.3746,315.59Z" style="fill:#fff"/><path d="M500.6949,304.2693h4.0078v3.2579h.1172a8.0322,8.0322,0,0,1,7.1953-3.6563c5.0625,0,8.8359,3.2344,8.8359,9.2344v15.7969H516.82V313.785c0-4.1485-2.4375-6.2578-6.0235-6.2578-4.2422,0-6.07,3-6.07,6.375v15h-4.0312Z" style="fill:#fff"/><path d="M543.89,329.3006c-4.7578,0-8.0391-2.9531-8.0391-7.4766,0-4.3125,3-7.0312,8.6485-7.0547h6.4921v-2.5078c0-3.2343-1.875-5.0156-5.2031-5.0156-3.164,0-4.9687,1.6172-5.2031,4.0781h-3.7969c.2578-4.3125,3.1875-7.4531,9.1406-7.4531,5.25,0,9.07,2.8594,9.07,8.0391v16.9922h-3.8672v-3.07h-.1172C549.773,327.824,547.523,329.3006,543.89,329.3006Zm7.1015-8.5781v-2.8594h-6.1875c-3.375,0-4.8281,1.5937-4.8281,3.82,0,2.9063,2.4141,4.2656,4.9922,4.2656C548.4136,325.949,550.9917,323.7928,550.9917,320.7225Z" style="fill:#fff"/><path d="M561.9605,304.2693h4.0078v3.2579h.1172a8.0324,8.0324,0,0,1,7.1953-3.6563c5.0625,0,8.8359,3.2344,8.8359,9.2344v15.7969h-4.0312V313.785c0-4.1485-2.4375-6.2578-6.0234-6.2578-4.2422,0-6.07,3-6.07,6.375v15h-4.0312Z" style="fill:#fff"/><path d="M604.8511,307.6912h.1172V295.2225H609v33.68h-3.8672V325.199h-.0938a7.9312,7.9312,0,0,1-7.2656,4.0782c-6.4219,0-9.8438-4.711-9.8438-11.5782v-2.2265c0-6.7032,3.6329-11.5782,9.8438-11.5782A7.9912,7.9912,0,0,1,604.8511,307.6912Zm-12.8672,7.9219v1.9453c0,5.4844,2.6953,8.2031,6.4219,8.2031,4.125,0,6.6328-2.9531,6.6328-8.18v-1.9687c0-4.9688-2.5547-8.2031-6.7031-8.2031C594.6792,307.41,591.9839,310.1287,591.9839,315.6131Z" style="fill:#fff"/><path d="M646.0074,315.449v2.2032c0,6.68-3.6328,11.6484-10.5469,11.6484s-10.5938-4.9688-10.5938-11.6484V315.449c0-6.5859,3.7032-11.5781,10.5938-11.5781S646.0074,308.8631,646.0074,315.449Zm-17.1094.1407v1.9218c0,5.0157,2.32,8.2969,6.5625,8.2969,4.2187,0,6.5156-3.2578,6.5156-8.2969V315.59c0-5.0391-2.2969-8.2735-6.5156-8.2735C631.2183,307.3162,628.898,310.5506,628.898,315.59Z" style="fill:#fff"/><path d="M653.7417,307.6443h-3.3281v-3.375h3.3281v-2.4609c0-4.7109,2.3672-6.8906,7.43-6.8906a10.5459,10.5459,0,0,1,1.8047.1406v3.3047a7.9842,7.9842,0,0,0-1.2656-.0938c-2.6719,0-3.9609.8672-3.9609,3.8672v2.1328h4.8515v3.375H657.773v21.2579h-4.0313Z" style="fill:#fff"/><path d="M670.2886,307.6443h-3.3281v-3.375h3.3281v-2.4609c0-4.7109,2.3672-6.8906,7.43-6.8906a10.5459,10.5459,0,0,1,1.8047.1406v3.3047a7.9862,7.9862,0,0,0-1.2656-.0938c-2.6719,0-3.961.8672-3.961,3.8672v2.1328h4.8516v3.375H674.32v21.2579h-4.0313Z" style="fill:#fff"/><path d="M695.7886,298.1287h4.0078v6.1406h4.875v3.375h-4.875v14.4141c0,2.9531.9844,3.7031,4.0078,3.7031a7.1051,7.1051,0,0,0,1.0313-.0468v3.2343a12.3521,12.3521,0,0,1-2.0391.1641c-5.8359,0-7.0312-2.25-7.0312-7.1016V307.6443h-3.3047v-3.375h3.3281Z" style="fill:#fff"/><path d="M710.9292,295.2225h4.0313v12.3047h.1172a8.0177,8.0177,0,0,1,7.1719-3.6563c5.0859,0,8.8359,3.2344,8.8359,9.2344v15.7969h-4.0313V313.785c0-4.1485-2.414-6.2578-6.0234-6.2578-4.2422,0-6.07,3-6.07,6.375v15h-4.0313Z" style="fill:#fff"/><path d="M736.898,317.7693v-2.7656c0-6.4922,3.68-11.1328,10.1484-11.1328,6.4453,0,10.1485,4.6406,10.1485,11.4141v2.2968H740.9292v.4454c0,4.6875,2.3907,7.8984,6.3985,7.8984a5.4141,5.4141,0,0,0,5.5312-3.7266h4.0078c-.9375,4.0782-4.1953,7.1016-9.6328,7.1016C740.8121,329.3006,736.898,324.7772,736.898,317.7693Zm16.2656-3.4453v-.07c0-3.914-2.414-7.0078-6.0937-7.0078-3.75,0-6.1407,3.1172-6.1407,7.0078v.07Z" style="fill:#fff"/><path d="M771.9136,315.2615c0-6.6328,3.7969-11.3906,10.2188-11.3906,5.6953,0,9.164,3.7734,9.375,7.5469h-3.961a5.3357,5.3357,0,0,0-5.1562-3.9844c-4.0781,0-6.4453,3.0234-6.4453,7.9922v2.2969c0,4.8281,2.5312,8.0156,6.4687,8.0156,3.07,0,4.875-1.6406,5.32-3.6094h3.961c-.82,4.2188-3.9141,7.1719-9.5625,7.1719-6.5391,0-10.2188-5.0391-10.2188-11.6016Z" style="fill:#fff"/><path d="M817.4761,315.449v2.2032c0,6.68-3.6328,11.6484-10.5469,11.6484s-10.5937-4.9688-10.5937-11.6484V315.449c0-6.5859,3.7031-11.5781,10.5937-11.5781S817.4761,308.8631,817.4761,315.449Zm-17.1094.1407v1.9218c0,5.0157,2.32,8.2969,6.5625,8.2969,4.2188,0,6.5157-3.2578,6.5157-8.2969V315.59c0-5.0391-2.2969-8.2735-6.5157-8.2735C802.6871,307.3162,800.3667,310.5506,800.3667,315.59Z" style="fill:#fff"/><path d="M843.3277,328.9022H839.32v-3.2344h-.1641c-.8672,1.9453-3.1875,3.6328-7.125,3.6328-5.0859,0-8.7187-2.9063-8.7187-8.5547V304.2693h4.0546v15.3282c0,4.5937,2.6485,6.07,5.8829,6.07,3.539,0,6.0234-2.2266,6.0234-6.1406V304.2693h4.0547Z" style="fill:#fff"/><path d="M850.5,304.2693h4.0312v3.0235h.1172a6.4351,6.4351,0,0,1,6.07-3.3985,10.8361,10.8361,0,0,1,1.5234.1172v3.68a14.874,14.874,0,0,0-1.9687-.0937c-4.3594,0-5.7188,2.7187-5.7188,6.0468v15.2579H850.5Z" style="fill:#fff"/><path d="M874.8511,303.8709c5.7891,0,8.7656,3.3047,8.7656,7.3828h-3.75c-.1406-1.875-1.3125-4.0781-5.1562-4.0781-2.93,0-5.0391,1.2891-5.0391,3.7266,0,2.7656,3.2578,3.3515,6.07,3.8671,4.6172.82,8.5079,2.0625,8.5079,6.8672,0,4.8985-3.961,7.6641-9.75,7.6641-5.4141,0-9.1875-2.6016-9.1875-7.0313H869.25c.3515,2.25,2.2734,3.7266,5.5546,3.7266,3.7735,0,5.4844-1.7812,5.4844-3.8672,0-2.789-2.7422-3.3281-6.1875-4.0078-4.5937-.9375-8.3672-2.3437-8.3672-6.7969C865.7339,306.1209,870.1167,303.8709,874.8511,303.8709Z" style="fill:#fff"/><path d="M889.0074,317.7693v-2.7656c0-6.4922,3.68-11.1328,10.1484-11.1328,6.4453,0,10.1484,4.6406,10.1484,11.4141v2.2968H893.0386v.4454c0,4.6875,2.3906,7.8984,6.3985,7.8984a5.4143,5.4143,0,0,0,5.5312-3.7266h4.0078c-.9375,4.0782-4.1953,7.1016-9.6328,7.1016C892.9214,329.3006,889.0074,324.7772,889.0074,317.7693Zm16.2656-3.4453v-.07c0-3.914-2.4141-7.0078-6.0938-7.0078-3.75,0-6.1406,3.1172-6.1406,7.0078v.07Z" style="fill:#fff"/><path d="M72.8366,256.8212H0V140.1287H72.8366v16.3284H19.3205v33.2552h50.353v15.6445H19.3205v35.136H72.8366Z" style="fill:#fff"/><path d="M105.7123,226.1306c1.8808,10.0877,11.5411,17.0123,25.9887,17.0123,15.3025,0,24.1934-7.1811,24.1934-18.1236,0-8.8054-5.8988-13.5928-18.5511-16.67l-19.15-4.7874c-17.7817-4.2744-28.5533-14.8751-28.5533-31.46,0-20.6029,17.44-34.5376,42.1461-34.5376,24.8773,0,40.4363,13.8492,41.89,31.7164H154.8685c-1.8807-9.3183-10.2587-15.8154-23.253-15.8154-13.7637,0-22.4836,7.181-22.4836,17.5252,0,7.6085,5.7278,12.7379,16.1574,15.2171l19.0641,4.7018c19.6624,4.7874,30.947,14.1912,30.947,32.4,0,21.4577-16.7559,35.82-45.0527,35.82-27.1855,0-42.2316-14.3622-43.5994-32.9988Z" style="fill:#fff"/><path d="M206.1241,226.1306c1.8807,10.0877,11.541,17.0123,25.9886,17.0123,15.3025,0,24.1934-7.1811,24.1934-18.1236,0-8.8054-5.8987-13.5928-18.5511-16.67l-19.15-4.7874c-17.7817-4.2744-28.5533-14.8751-28.5533-31.46,0-20.6029,17.44-34.5376,42.1461-34.5376,24.8773,0,40.4363,13.8492,41.89,31.7164H255.28c-1.8807-9.3183-10.2587-15.8154-23.253-15.8154-13.7637,0-22.4836,7.181-22.4836,17.5252,0,7.6085,5.7278,12.7379,16.1574,15.2171l19.0641,4.7018c19.6624,4.7874,30.947,14.1912,30.947,32.4,0,21.4577-16.7558,35.82-45.0527,35.82-27.1855,0-42.2316-14.3622-43.5994-32.9988Z" style="fill:#fff"/><path d="M368.1736,256.8212H295.337V140.1287h72.8366v16.3284H314.6575v33.2552h50.353v15.6445h-50.353v35.136h53.5161Z" style="fill:#fff"/><path d="M389.85,256.8212V140.1287h17.0978l54.4565,83.7792h.8549V140.1287h18.6366V256.8212H463.8838l-54.6275-84.0357h-.7694v84.0357Z" style="fill:#fff"/><path d="M528.9888,256.8212V156.7135h-34.11V140.1287H582.59v16.5848H548.3948V256.8212Z" style="fill:#fff"/><path d="M596.4876,256.8212V140.1287h19.406V256.8212Z" style="fill:#fff"/><path d="M629.9617,256.8212l40.18-116.6925H691.77l40.18,116.6925H711.4327l-10.3441-32.3149H660.1393l-10.3441,32.3149Zm50.2675-96.5171-15.73,49.3271h32.2293l-15.6445-49.3271Z" style="fill:#fff"/><path d="M816.8028,256.8212H746.0179V140.1287h19.406V239.98h51.3789Z" style="fill:#fff"/><path d="M842.412,226.1306c1.8807,10.0877,11.541,17.0123,25.9886,17.0123,15.3025,0,24.1934-7.1811,24.1934-18.1236,0-8.8054-5.8987-13.5928-18.5511-16.67l-19.15-4.7874c-17.7817-4.2744-28.5533-14.8751-28.5533-31.46,0-20.6029,17.44-34.5376,42.1461-34.5376,24.8773,0,40.4363,13.8492,41.89,31.7164H891.5681c-1.8807-9.3183-10.2587-15.8154-23.253-15.8154-13.7637,0-22.4836,7.181-22.4836,17.5252,0,7.6085,5.7278,12.7379,16.1574,15.2171l19.0641,4.7018C900.7155,195.6965,912,205.1,912,223.31c0,21.4577-16.7558,35.82-45.0527,35.82-27.1855,0-42.2316-14.3622-43.5994-32.9988Z" style="fill:#fff"/><path d="M295.2776,88.5666c1.8807,10.0877,11.541,17.0123,25.9886,17.0123,15.3025,0,24.1934-7.1811,24.1934-18.1237,0-8.8053-5.8987-13.5927-18.5511-16.67L307.759,65.9975c-17.7818-4.2744-28.5534-14.8751-28.5534-31.46C279.2056,13.9347,296.6454,0,321.3517,0c24.8773,0,40.4363,13.8492,41.89,31.7164H344.4337c-1.8807-9.3183-10.2586-15.8154-23.253-15.8154-13.7637,0-22.4836,7.181-22.4836,17.5252,0,7.6085,5.7278,12.7379,16.1574,15.217l19.0641,4.7019c19.6625,4.7874,30.947,14.1912,30.947,32.4,0,21.4577-16.7558,35.82-45.0527,35.82-27.1855,0-42.2316-14.3622-43.5994-32.9988Z" style="fill:#fff"/><path d="M403.64,119.2572,372.18,2.5647H393.723l19.406,88.823h.94l21.8-88.823H453.48l21.7142,88.823H476.22l19.32-88.823h21.5433l-31.46,116.6925H468.013L445.0164,32.8278h-.7694l-22.9965,86.4294Z" style="fill:#fff"/><path d="M530.2969,119.2572V2.5647h19.406V119.2572Z" style="fill:#fff"/><path d="M575.2266,119.2572V2.5647h17.0978l54.4564,83.7792h.8549V2.5647h18.6366V119.2572H649.26L594.6326,35.2215h-.7694v84.0357Z" style="fill:#fff"/><path d="M760.7,35.9054c-2.65-11.4555-11.8829-19.0641-25.4757-19.0641-18.0382,0-28.5533,13.4218-28.5533,36.1619V68.22c0,22.6546,9.9167,36.76,29.1517,36.76,17.2688,0,26.0742-10.0022,26.0742-23.1675V72.58H735.0531V57.2776h45.48V80.9581c0,22.5691-15.2171,40.6073-44.7963,40.6073-31.8874,0-48.6432-20.7739-48.6432-53.26V52.9177C687.0938,21.03,705.132.2565,735.5661.2565c25.6467,0,41.8041,15.388,44.2833,35.6489Z" style="fill:#fff"/><path d="M192.2494,0a60.7827,60.7827,0,1,0,60.7827,60.7827A60.7827,60.7827,0,0,0,192.2494,0Z" style="fill:#fff"/><path d="M226.1343,82.6126a4.172,4.172,0,0,0-3.2462-1.3781,4.2221,4.2221,0,0,0-3.2807,1.4005q-1.2522,1.3935-1.2409,4.6569l.0167,4.8952-23.0645.079-.0455-13.2742,7.9381-.0273q.0122,3.5723.6772,4.5842a4.536,4.536,0,0,0,7.6738.0619,7.6124,7.6124,0,0,0,.692-3.9714l-.0357-10.4078q-.0113-3.2634-1.2728-4.6483a4.1714,4.1714,0,0,0-3.2462-1.378,4.3392,4.3392,0,0,0-3.8734,2.1742q-.6581,1.0165-.6459,4.5446l-7.9381.0272-.0448-13.0537,21.08-.0723.0161,4.7188q.0112,3.2634,1.2728,4.6262a4.2543,4.2543,0,0,0,3.29,1.3559,4.1542,4.1542,0,0,0,3.2586-1.4q1.23-1.3933,1.2191-4.6127l-.0472-13.7594-37.27.0874a14.5987,14.5987,0,0,0-1.8058-.9384A53.7237,53.7237,0,0,0,175.5292,43.94a65.7262,65.7262,0,0,1-8.4521-1.9556,7.5824,7.5824,0,0,1-3.4262-2.4358,5.3557,5.3557,0,0,1-1.18-3.2374q-.0084-2.47,2.8283-4.7506a12.07,12.07,0,0,1,7.7318-2.2977,14.3181,14.3181,0,0,1,5.9134,1.1264,9.6755,9.6755,0,0,1,3.8465,2.8092,8.3093,8.3093,0,0,1,1.2458,3.2152,5.0883,5.0883,0,0,0,1.4656,2.9938,4.4436,4.4436,0,0,0,2.9141,1.0043,4.1719,4.1719,0,0,0,3.2367-1.4q1.252-1.3935,1.2409-4.657l-.0233-6.7914q-.0111-3.2195-1.2727-4.6042a4.1714,4.1714,0,0,0-3.2461-1.3781,5.1333,5.1333,0,0,0-3.5222,1.732,18.06,18.06,0,0,0-5.41-2.3408,25.6938,25.6938,0,0,0-6.4634-.75q-8.6877.03-14.0954,4.9215t-5.3855,11.3745a14.131,14.131,0,0,0,2.2312,7.6219,14.9665,14.9665,0,0,0,6.0164,5.4479,42.6763,42.6763,0,0,0,11.2129,3.2691,60.6545,60.6545,0,0,1,7.9,1.7811,8.6219,8.6219,0,0,1,3.8893,2.4342,4.9407,4.9407,0,0,1,1.2015,3.1491,5.045,5.045,0,0,1-2.4551,4.2422,16.4479,16.4479,0,0,1-9.913,2.8564A17.8085,17.8085,0,0,1,166.41,65.934a13.9686,13.9686,0,0,1-4.5519-2.7628,7.5115,7.5115,0,0,1-1.2-2.664,5.31,5.31,0,0,0-1.6633-2.7947,4.2224,4.2224,0,0,0-2.671-.8287,4.2733,4.2733,0,0,0-3.3248,1.4005q-1.252,1.3935-1.2409,4.657l.0208,6.0858q.0111,3.2194,1.2727,4.6042a4.2733,4.2733,0,0,0,3.3344,1.3778,3.6881,3.6881,0,0,0,1.7847-.403,8.0026,8.0026,0,0,0,1.9121-1.8147,30.1972,30.1972,0,0,0,6.9111,2.6885,29.4567,29.4567,0,0,0,7.3017.879,25.7772,25.7772,0,0,0,11.9189-2.7154l.064,18.6536-1.4113.0049q-3.2193.0109-4.6262,1.2727a4.141,4.141,0,0,0-1.4,3.2462,4.2221,4.2221,0,0,0,1.4,3.2808q1.3935,1.2521,4.6569,1.2409l42.5571-.1459-.0478-13.9358Q227.3959,83.9975,226.1343,82.6126Z" style="fill:#242062"/><path d="M227.9262,101.6655l-43.0274.1475c-2.3172.0079-3.9449-.4367-4.9734-1.3611a4.6976,4.6976,0,0,1-1.556-3.6294,4.6064,4.6064,0,0,1,1.5569-3.5977c1.035-.93,2.65-1.3854,4.9382-1.3932l.9408-.0033-.06-17.427a26.7188,26.7188,0,0,1-11.4488,2.428,30.0325,30.0325,0,0,1-7.4175-.8933,30.6187,30.6187,0,0,1-6.6827-2.5533,7.4919,7.4919,0,0,1-1.7989,1.636,4.1675,4.1675,0,0,1-2.01.4608,4.7485,4.7485,0,0,1-3.684-1.5309c-.9315-1.0222-1.3872-2.6321-1.3951-4.92l-.0208-6.0858c-.008-2.3171.4366-3.9449,1.3611-4.9734a4.7485,4.7485,0,0,1,3.6734-1.5562,4.6939,4.6939,0,0,1,2.96.927,5.7814,5.7814,0,0,1,1.8277,3.0331,6.8012,6.8012,0,0,0,1.1019,2.4861,13.6428,13.6428,0,0,0,4.3842,2.642A17.4094,17.4094,0,0,0,173.557,66.85a16.0559,16.0559,0,0,0,9.6358-2.7654,4.5732,4.5732,0,0,0,2.2635-3.8611,4.4391,4.4391,0,0,0-1.0958-2.8537,8.202,8.202,0,0,0-3.6829-2.2879,60.5194,60.5194,0,0,0-7.8267-1.7611,43.3278,43.3278,0,0,1-11.3416-3.3128,15.4931,15.4931,0,0,1-6.2008-5.6164,14.6643,14.6643,0,0,1-2.3037-7.8715c-.0152-4.4413,1.8493-8.3855,5.5405-11.7241,3.6765-3.3275,8.5255-5.0237,14.4092-5.0439a26.2921,26.2921,0,0,1,6.5811.7639,18.7015,18.7015,0,0,1,5.2372,2.2037,5.39,5.39,0,0,1,3.5777-1.6091,4.6473,4.6473,0,0,1,3.5958,1.5312c.9314,1.0222,1.3871,2.6321,1.395,4.92l.0233,6.7915c.0079,2.3171-.4367,3.9449-1.3611,4.9734a4.647,4.647,0,0,1-3.5853,1.5558,4.9153,4.9153,0,0,1-3.2121-1.11,5.4462,5.4462,0,0,1-1.6282-3.2578,7.8829,7.8829,0,0,0-1.1589-3.0262,9.222,9.222,0,0,0-3.6658-2.6684,13.8917,13.8917,0,0,0-5.72-1.0866,11.6713,11.6713,0,0,0-7.4382,2.1938c-1.7665,1.4191-2.6582,2.8941-2.6531,4.3825a4.9228,4.9228,0,0,0,1.0851,2.9565,7.1667,7.1667,0,0,0,3.22,2.28,66.3827,66.3827,0,0,0,8.3711,1.932A54.3457,54.3457,0,0,1,186.4,46.472a15.2161,15.2161,0,0,1,1.7487.8981l37.6069-.0885.0488,14.23c.0078,2.2858-.4295,3.897-1.3374,4.9255a4.6189,4.6189,0,0,1-3.6091,1.56,4.7209,4.7209,0,0,1-3.6362-1.5072c-.9332-1.0074-1.3908-2.6248-1.3987-4.9437l-.0146-4.2484-20.1393.0691.0416,12.1129,7.0009-.024c.0219-2.1977.2577-3.6171.72-4.3317a4.7974,4.7974,0,0,1,4.2659-2.3887,4.647,4.647,0,0,1,3.5958,1.5312c.9315,1.0221,1.3873,2.6468,1.3952,4.9639l.0357,10.4078c.0072,2.0874-.2472,3.4738-.7756,4.24a5.0052,5.0052,0,0,1-8.4566-.0758c-.4637-.7058-.7112-2.1383-.7464-4.3652l-7.0009.024.0423,12.3334,22.1237-.0758-.0151-4.4248c-.008-2.3171.4366-3.9449,1.3611-4.9734a4.6974,4.6974,0,0,1,3.6293-1.556,4.6475,4.6475,0,0,1,3.5958,1.5312c.9315,1.0222,1.3873,2.6469,1.3952,4.964Zm-43.0584-8.8931c-2.0176.0069-3.468.3941-4.3143,1.1522a3.6622,3.6622,0,0,0-1.2433,2.8947,3.7406,3.7406,0,0,0,1.2449,2.9321c.835.7506,2.2953,1.1278,4.34,1.1208l42.0866-.1443-.0461-13.4654c-.007-2.0452-.3942-3.5028-1.15-4.3326a3.69,3.69,0,0,0-2.8965-1.2249,3.7406,3.7406,0,0,0-2.9321,1.2448c-.75.835-1.1277,2.2953-1.1207,4.3405l.0184,5.3655-24.0054.0823L194.8,78.5231l8.879-.0305.0016.47c.01,2.8372.3313,3.9184.5991,4.3272a4.066,4.066,0,0,0,6.891.0573c.2853-.4126.62-1.3858.6121-3.7066l-.0357-10.4078c-.007-2.0451-.3942-3.5028-1.15-4.3326a3.69,3.69,0,0,0-2.8965-1.2249,3.8663,3.8663,0,0,0-3.4773,1.9542c-.2687.4162-.5829,1.4922-.5733,4.2926l.0016.47-8.8789.0305-.048-13.9946,22.0209-.0755.0178,5.1892c.007,2.0433.3923,3.4936,1.1467,4.3088a3.7761,3.7761,0,0,0,2.9442,1.2045,3.673,3.673,0,0,0,2.9082-1.2412c.7377-.8349,1.1076-2.2823,1.1007-4.3l-.0456-13.289-36.9325.0862-.1123-.0694a14.3121,14.3121,0,0,0-1.7488-.9091,53.5836,53.5836,0,0,0-10.5833-2.9314,65.08,65.08,0,0,1-8.54-1.981,8.07,8.07,0,0,1-3.6252-2.59,5.8306,5.8306,0,0,1-1.2745-3.5182c-.0061-1.79,1.0042-3.5113,3.0034-5.1187a12.5813,12.5813,0,0,1,8.0255-2.4016,14.85,14.85,0,0,1,6.1065,1.1661,10.19,10.19,0,0,1,4.0288,2.9538,8.6654,8.6654,0,0,1,1.3311,3.4005,4.6881,4.6881,0,0,0,1.2937,2.7206,3.96,3.96,0,0,0,2.6253.9079,3.69,3.69,0,0,0,2.888-1.2447c.7506-.835,1.1278-2.2953,1.1208-4.34l-.0233-6.7915c-.0069-2.0158-.3941-3.4588-1.15-4.2886a3.69,3.69,0,0,0-2.8965-1.2249,4.7077,4.7077,0,0,0-3.1937,1.5968l-.2692.2655-.3168-.2066a17.6511,17.6511,0,0,0-5.27-2.2788,25.3714,25.3714,0,0,0-6.3457-.7353c-5.6449.0193-10.2829,1.6339-13.7817,4.7991a14.4725,14.4725,0,0,0-5.23,11.0248,13.7355,13.7355,0,0,0,2.1587,7.3722,14.5505,14.5505,0,0,0,5.8321,5.2795,42.4422,42.4422,0,0,0,11.0823,3.2255A60.44,60.44,0,0,1,181,54.1972a9.1185,9.1185,0,0,1,4.09,2.5787,5.4219,5.4219,0,0,1,1.3073,3.4446,5.51,5.51,0,0,1-2.6559,4.6287,16.9676,16.9676,0,0,1-10.181,2.9419,18.3459,18.3459,0,0,1-7.3367-1.4246,14.2465,14.2465,0,0,1-4.7084-2.8725,7.8077,7.8077,0,0,1-1.3089-2.8529,4.8839,4.8839,0,0,0-1.499-2.5564,3.742,3.742,0,0,0-2.3822-.73,3.79,3.79,0,0,0-2.9762,1.245c-.7505.835-1.1277,2.2953-1.1207,4.34l.0208,6.0859c.007,2.0158.3941,3.4588,1.15,4.2886a3.79,3.79,0,0,0,2.9846,1.2246,3.23,3.23,0,0,0,1.5589-.3453,7.3243,7.3243,0,0,0,1.7785-1.704l.2452-.293.3387.1807a29.7835,29.7835,0,0,0,6.8025,2.6467,29.1565,29.1565,0,0,0,7.1859.8647,25.4568,25.4568,0,0,0,11.7034-2.6623l.6842-.3533.0682,19.893Z" style="fill:#b5a232"/><path d="M192.2494,1.3214a59.4613,59.4613,0,1,1-59.4613,59.4613A59.5286,59.5286,0,0,1,192.2494,1.3214m0-1.3214a60.7827,60.7827,0,1,0,60.7827,60.7827A60.7827,60.7827,0,0,0,192.2494,0Z" style="fill:#b5a232"/><path d="M901.7981,143.0258v-.7092a5.1137,5.1137,0,0,1,10.2019,0v.7092a5.105,5.105,0,0,1-10.2019,0Zm9.0075-.0125v-.6842a3.9055,3.9055,0,0,0-7.7883,0v.6842a3.8977,3.8977,0,0,0,7.7883,0Zm-5.8723,2.0653v-4.9268h2.4634a1.5462,1.5462,0,0,1,1.692,1.5428,1.4867,1.4867,0,0,1-.97,1.468l1.157,1.916H907.87l-.9954-1.7418h-.734v1.7418Zm1.2192-2.6127h.759c.4479,0,.9206-.1244.9206-.7091,0-.4355-.2861-.6719-.8211-.6719h-.8585Z" style="fill:#fff"/></svg>