<?xml version="1.0" encoding="UTF-8"?>
<svg id="a" data-name="Layer 1" xmlns="http://www.w3.org/2000/svg" viewBox="0 0 500 556.626">
  <circle cx="250" cy="250" r="250" style="opacity: .35;"/>
  <path d="M250,0C111.929,0,0,111.929,0,250s111.929,250,250,250,250-111.929,250-250S388.071,0,250,0ZM250,487c-130.891,0-237-106.109-237-237S119.109,13,250,13s237,106.109,237,237-106.109,237-237,237Z" style="fill: #fff;"/>
  <g>
    <g>
      <g>
        <path d="M102.514,312.51v-.087c0-8.602,6.782-15.641,16.117-15.641s16.029,6.957,16.029,15.554v.087c0,8.597-6.782,15.641-16.117,15.641s-16.029-6.957-16.029-15.554ZM127.703,312.51v-.087c0-5.186-3.798-9.509-9.16-9.509s-9.072,4.236-9.072,9.422v.087c0,5.186,3.804,9.504,9.16,9.504s9.072-4.236,9.072-9.416Z" style="fill: #fff;"/>
        <path d="M141.459,297.301h23.03v6.05h-16.374v6.438h14.428v6.044h-14.428v11.712h-6.657v-30.244Z" style="fill: #fff;"/>
        <path d="M195.598,297.192h6.132l12.963,30.463h-6.957l-2.765-6.782h-12.788l-2.765,6.782h-6.782l12.963-30.463ZM202.593,314.992l-4.017-9.805-4.017,9.805h8.034Z" style="fill: #fff;"/>
        <path d="M220.24,297.301h7.176l7.946,12.788,7.952-12.788h7.176v30.244h-6.613v-19.746l-8.515,12.92h-.169l-8.427-12.788v19.614h-6.525v-30.244Z" style="fill: #fff;"/>
        <path d="M257.916,297.301h22.817v5.919h-16.204v6.132h14.259v5.924h-14.259v6.351h16.417v5.919h-23.03v-30.244Z" style="fill: #fff;"/>
        <path d="M287.745,297.301h13.827c3.847,0,6.826,1.077,8.815,3.066,1.683,1.683,2.59,4.061,2.59,6.913v.087c0,4.88-2.634,7.952-6.482,9.373l7.389,10.805h-7.777l-6.482-9.679h-5.225v9.679h-6.657v-30.244ZM301.14,311.991c3.241,0,5.099-1.732,5.099-4.279v-.087c0-2.853-1.989-4.317-5.23-4.317h-6.607v8.684h6.739Z" style="fill: #fff;"/>
        <path d="M320.159,297.301h6.657v30.244h-6.657v-30.244Z" style="fill: #fff;"/>
        <path d="M333.909,312.51v-.087c0-8.602,6.482-15.641,15.772-15.641,5.7,0,9.116,1.902,11.925,4.667l-4.236,4.88c-2.334-2.115-4.711-3.416-7.733-3.416-5.099,0-8.772,4.236-8.772,9.422v.087c0,5.186,3.585,9.504,8.772,9.504,3.454,0,5.574-1.383,7.952-3.541l4.23,4.279c-3.11,3.323-6.564,5.4-12.4,5.4-8.897,0-15.51-6.87-15.51-15.554Z" style="fill: #fff;"/>
        <path d="M378.39,297.192h6.132l12.963,30.463h-6.957l-2.765-6.782h-12.788l-2.765,6.782h-6.782l12.963-30.463ZM385.386,314.992l-4.017-9.805-4.017,9.805h8.034Z" style="fill: #fff;"/>
      </g>
      <g>
        <path d="M298.474,233.808l9.998-2.93v-12.548h-64.979v12.548l10.003,2.93c7.109,2.185,7.382,2.987,7.382,8.666v17.072c-3.583.7-10.359.772-14.748.127-23.49-3.432-29.963-20.735-29.963-38.877,0-10.202,3.426-19.461,11.21-26.979,5.562-5.37,14.065-10.247,27.001-9.783,5.629.209,12.119,2.903,14.349,4.459,6.436,4.474,7.94,9.753,9.648,16.246h16.645l-.074-25.542s-16.787-11.488-45.794-11.488c-23.041,0-68.351,9.586-68.351,54.633,0,27.652,23.227,49.238,63.619,51.286,27.841,1.405,46.708-6.811,46.708-6.811l-.03-24.344c0-5.679.278-6.481,7.377-8.666" style="fill: #fff;"/>
        <path d="M138.018,170.194c-4.841-.524-18.87-.67-18.87-.67l-57.148.025v12.504l9.591,2.957c7.776,2.513,7.776,3.255,7.776,8.971l.052,54.365c0,5.728,0,6.066-7.801,8.546l-9.564,2.741v12.574h65.26v-12.574l-9.562-2.741c-7.794-2.48-7.794-2.818-7.794-8.546l.027-13.125h15.453c14.21-.219,25.71-1.127,35.979-6.932,9.782-5.552,15.14-15.806,15.14-26.535,0-17.303-13.683-29.015-38.542-31.56M140.444,215.536c-1.818,1.659-5.912,3.682-9.239,4.514-9.105,2.306-20.792,1.408-21.219,1.408v-38.609c7.712,0,21.184-1.167,29.849,5.065,4.263,3.074,6.759,7.948,6.883,14.24.107,4.439-1.532,9.316-6.274,13.382" style="fill: #fff;"/>
        <path d="M429.114,257.137c-5.81-2.153-7.133-3.183-8.802-6.858l-40.555-80.689h-16.819l-45.357,82.245c-1.641,3.096-3.126,3.824-6.927,5.172l-10.314,3.146v12.015h50.335v-12.313l-11.19-2.9c-2.386-.591-2.284-2.18-1.713-3.25,0,0,1.457-2.783,3.655-6.969h42.124c2.242,4.221,2.838,5.07,3.558,6.604,1.075,2.239-1.01,3.25-3.645,3.993l-10.076,2.791v12.044h64.612v-11.823s-8.876-3.208-8.886-3.208M346.563,236.946c6.585-12.548,15.843-30.455,16.496-31.756.646,1.507,9.117,18.986,15.317,31.756h-31.813Z" style="fill: #fff;"/>
      </g>
    </g>
    <g>
      <path d="M397.146,171.118h-3.102v-1.594h7.935v1.594h-3.102v8.187h-1.73v-8.187Z" style="fill: #fff;"/>
      <path d="M403.797,169.524h1.833l2.976,4.624,2.976-4.624h1.829v9.781h-1.72v-7.013l-3.085,4.611h-.058l-3.058-4.583v6.986h-1.693v-9.781Z" style="fill: #fff;"/>
    </g>
    <g>
      <polygon points="216.857 378.342 212.496 379.412 211.351 374.912 218.535 372.766 222.29 372.766 222.29 397.962 216.857 397.962 216.857 378.342" style="fill: #fff;"/>
      <path d="M229.043,395.423l2.892-4.181c1.825,1.467,3.362,2.146,5.469,2.146,3.074,0,4.719-2.324,5.075-5.684-1.214,1.038-2.894,1.717-5.075,1.717-5.433,0-8.934-3.004-8.934-8.081v-.071c0-5.038,3.894-8.756,9.541-8.756,3.36,0,5.326.821,7.221,2.716,1.786,1.788,2.965,4.504,2.965,9.436v.071c0,8.115-3.823,13.653-10.937,13.653-3.645,0-6.11-1.214-8.218-2.967M242.586,381.129v-.071c0-2.217-1.642-3.825-4.395-3.825-2.716,0-4.252,1.574-4.252,3.788v.071c0,2.217,1.642,3.754,4.359,3.754s4.288-1.574,4.288-3.718" style="fill: #fff;"/>
      <polygon points="257.381 378.342 253.02 379.412 251.875 374.912 259.06 372.766 262.814 372.766 262.814 397.962 257.381 397.962 257.381 378.342" style="fill: #fff;"/>
      <path d="M271.887,395.71c-1.822-1.822-2.967-4.502-2.967-9.47v-.073c0-7.718,3.503-13.653,10.973-13.653,3.396,0,5.611,1.001,7.826,2.753l-2.894,4.254c-1.644-1.252-2.965-2.003-5.111-2.003-3.109,0-4.68,2.502-5.038,5.791,1.25-.823,2.716-1.61,5.182-1.61,4.968,0,8.792,2.755,8.792,7.971v.071c0,5.111-4.11,8.649-9.543,8.649-3.252,0-5.469-.928-7.219-2.68M283.18,389.992v-.071c0-2.11-1.642-3.647-4.359-3.647s-4.288,1.501-4.288,3.61v.071c0,2.11,1.642,3.718,4.359,3.718s4.288-1.535,4.288-3.681" style="fill: #fff;"/>
    </g>
    <g>
      <path d="M363.063,372.43c-3.123-.34-5.061-.361-11.739.868-5.777,1.283-9.116,2.575-11.108,3.633-1.262-1.768-11.963-15.9-21.872-29.11h-9.692l29.976,47.811.465.294c.429.254,4.43,2.525,15.863,2.293,7.157-.152,16.324-1.993,16.827-2.105,4.864-1.267,7.687-11.041,8.676-15.184l.353-1.489-1.164-.973c-.262-.219-6.356-5.221-16.584-6.036Z" style="fill: #fff;"/>
      <path d="M136.937,372.43c3.123-.34,5.061-.361,11.739.868,5.777,1.283,9.116,2.575,11.108,3.633,1.262-1.768,11.963-15.9,21.872-29.11h9.692s-29.976,47.811-29.976,47.811l-.465.294c-.429.254-4.43,2.525-15.863,2.293-7.157-.152-16.324-1.993-16.827-2.105-4.864-1.267-7.687-11.041-8.676-15.184l-.353-1.489,1.164-.973c.262-.219,6.356-5.221,16.584-6.036Z" style="fill: #fff;"/>
      <path d="M249.805,57.924c-19.251,0-34.918,15.672-34.918,34.915s15.668,34.913,34.918,34.913,34.926-15.652,34.926-34.913-15.668-34.915-34.926-34.915M232.743,109.095c-2.176.006-3.811-1.635-4.833-3.108-1.141-1.687-1.873-3.725-1.827-6.154v-.102c3.209,1.793,6.948,3.05,11.049,3.959-.218,2.772-1.618,5.37-4.389,5.405M256.504,110.692c-1.618,1.486-3.773,2.552-6.699,2.552s-5.127-1.066-6.708-2.552c-1.628-1.488-2.795-3.553-2.826-6.321,0-.063,0-.117.044-.117,5.727.972,13.376.894,19.032.046-.04,2.839-1.219,4.904-2.843,6.392M271.853,105.866c-1.037,1.528-2.527,3.077-4.72,3.229-1.083.067-2.147-.38-2.88-1.055-1.068-.98-1.591-2.431-1.794-4.35,4.116-.871,7.838-2.13,11.045-3.934.035,0,.044.027.044.048.059,2.174-.552,4.385-1.695,6.062M273.573,99.649c-.096-1.547-.497-2.809-1.267-3.821-.723-.98-1.741-1.81-3.257-1.831-2.473-.037-4.043,1.701-5.017,3.255-1.131,1.804-1.754,3.974-1.622,6.438-.993.176-2.088.451-3.062.531-.075-2.79-1.229-4.879-2.843-6.373-1.593-1.467-3.808-2.536-6.699-2.536-2.914,0-5.06,1.085-6.689,2.536-1.647,1.48-2.755,3.583-2.878,6.373-1.064-.146-2.103-.33-3.064-.564.123-4.178-1.478-7.45-4.168-8.994-1.612-.932-3.666-.79-4.933.301-1.193,1.02-1.873,2.627-1.99,4.653-.155.05-4.327-3.599-5.324-4.923,0,0-.008-.006-.008-.025-.046-.598-.069-1.21-.069-1.831,0-16.055,13.072-29.121,29.123-29.121s29.121,13.066,29.121,29.121c0,.462,0,.928-.023,1.392-.685,1.099-2.193,3.294-5.33,5.418M249.565,78.814c-2.675.188-4.82,1.179-6.335,2.701-1.421,1.436-2.368,3.426-2.609,5.734,5.775.616,12.638.541,18.356.042-.261-2.558-1.262-4.54-2.882-6.037-1.375-1.248-3.863-2.613-6.53-2.441M234.237,79.04c-1.785-.516-3.497.428-4.448,1.277-1.242,1.15-2.134,2.824-2.588,4.576,3.246.957,6.708,1.651,10.495,2.053.514-3.48-.633-7.067-3.459-7.907M266.161,78.894c-3.324.259-4.845,4.199-4.237,8.052,3.785-.403,7.289-1.091,10.493-2.053-.339-1.426-.947-2.732-1.829-3.794-.951-1.131-2.408-2.364-4.427-2.205" style="fill: #fff; fill-rule: evenodd;"/>
      <path d="M202.772,150.834l-37.281-67.27s-4.91-1.032-9.466,1.402c-4.658,2.492-6.212,7.172-6.212,7.172l40.859,65.03c3.85-2.387,7.896-4.504,12.101-6.335Z" style="fill: #fff;"/>
      <path d="M308.777,157.283l40.93-65.145s-1.553-4.68-6.212-7.172c-4.556-2.434-9.466-1.402-9.466-1.402l-37.361,67.413c6.516,2.796,10.648,5.341,12.108,6.306Z" style="fill: #fff;"/>
    </g>
  </g>
  <rect x="54" y="446.626" width="392" height="110" rx="14" ry="14" style="fill: #fff;"/>
  <g>
    <path d="M95.019,477.123h11.621l12.881,20.722,12.882-20.722h11.621v49.005h-10.711v-31.993l-13.792,20.932h-.279l-13.651-20.722v31.783h-10.571v-49.005Z"/>
    <path d="M156.128,477.123h36.964v9.591h-26.253v9.941h23.103v9.591h-23.103v10.291h26.603v9.591h-37.313v-49.005Z"/>
    <path d="M203.378,477.123h11.621l12.881,20.722,12.882-20.722h11.621v49.005h-10.711v-31.993l-13.792,20.932h-.279l-13.651-20.722v31.783h-10.571v-49.005Z"/>
    <path d="M264.488,477.123h22.752c5.671,0,9.941,1.47,12.812,4.34,2.24,2.24,3.36,5.041,3.36,8.331v.141c0,5.46-2.94,8.751-6.44,10.57,5.67,2.171,9.171,5.531,9.171,12.042v.14c0,8.961-7.281,13.441-18.342,13.441h-23.312v-49.005ZM292.701,491.614c0-3.29-2.521-5.04-7.071-5.04h-10.641v10.36h9.941c4.76,0,7.771-1.54,7.771-5.181v-.14ZM295.431,511.217c0-3.291-2.381-5.321-7.981-5.321h-12.461v10.781h12.812c4.76,0,7.631-1.68,7.631-5.32v-.14Z"/>
    <path d="M315.377,477.123h36.964v9.591h-26.253v9.941h23.103v9.591h-23.103v10.291h26.603v9.591h-37.313v-49.005Z"/>
    <path d="M362.626,477.123h22.402c6.23,0,10.991,1.68,14.281,4.971,2.8,2.8,4.2,6.51,4.2,11.201v.14c0,7.911-4.271,12.881-10.501,15.191l11.972,17.502h-12.602l-10.501-15.682h-8.471v15.682h-10.781v-49.005ZM384.329,500.926c5.32,0,8.261-2.73,8.261-6.932v-.14c0-4.69-3.15-7.001-8.471-7.001h-10.711v14.072h10.921Z"/>
  </g>
</svg>