<?xml version="1.0" encoding="UTF-8"?>
<svg id="a" data-name="Layer 1" xmlns="http://www.w3.org/2000/svg" viewBox="0 0 140 126.77">
  <g>
    <g>
      <path d="M15.085,94.793v-.033c0-3.203,2.525-5.824,6.001-5.824s5.968,2.59,5.968,5.791v.033c0,3.201-2.525,5.824-6.001,5.824s-5.968-2.59-5.968-5.791ZM24.464,94.793v-.033c0-1.931-1.414-3.541-3.41-3.541s-3.378,1.577-3.378,3.508v.033c0,1.931,1.416,3.539,3.41,3.539s3.378-1.577,3.378-3.506Z" style="fill: #fff;"/>
      <path d="M29.586,89.13h8.575v2.253h-6.097v2.397h5.372v2.251h-5.372v4.361h-2.479v-11.261Z" style="fill: #fff;"/>
      <path d="M49.744,89.089h2.283l4.827,11.343h-2.59l-1.03-2.525h-4.762l-1.03,2.525h-2.525l4.827-11.343ZM52.349,95.717l-1.496-3.651-1.496,3.651h2.991Z" style="fill: #fff;"/>
      <path d="M58.919,89.13h2.672l2.959,4.762,2.961-4.762h2.672v11.261h-2.462v-7.352l-3.17,4.811h-.063l-3.138-4.762v7.303h-2.43v-11.261Z" style="fill: #fff;"/>
      <path d="M72.948,89.13h8.496v2.204h-6.033v2.283h5.309v2.206h-5.309v2.365h6.113v2.204h-8.575v-11.261Z" style="fill: #fff;"/>
      <path d="M84.054,89.13h5.148c1.433,0,2.542.401,3.282,1.142.627.627.965,1.512.965,2.574v.033c0,1.817-.981,2.961-2.413,3.49l2.751,4.023h-2.896l-2.413-3.604h-1.945v3.604h-2.479v-11.261ZM89.042,94.6c1.207,0,1.899-.645,1.899-1.593v-.033c0-1.062-.741-1.608-1.947-1.608h-2.46v3.233h2.509Z" style="fill: #fff;"/>
      <path d="M96.123,89.13h2.479v11.261h-2.479v-11.261Z" style="fill: #fff;"/>
      <path d="M101.243,94.793v-.033c0-3.203,2.413-5.824,5.873-5.824,2.122,0,3.394.708,4.44,1.738l-1.577,1.817c-.869-.788-1.754-1.272-2.879-1.272-1.899,0-3.266,1.577-3.266,3.508v.033c0,1.931,1.335,3.539,3.266,3.539,1.286,0,2.076-.515,2.961-1.319l1.575,1.593c-1.158,1.237-2.444,2.01-4.617,2.01-3.313,0-5.775-2.558-5.775-5.791Z" style="fill: #fff;"/>
      <path d="M117.805,89.089h2.283l4.827,11.343h-2.59l-1.03-2.525h-4.762l-1.03,2.525h-2.525l4.827-11.343ZM120.41,95.717l-1.496-3.651-1.496,3.651h2.991Z" style="fill: #fff;"/>
    </g>
    <g>
      <path d="M88.049,65.489l3.723-1.091v-4.672h-24.194v4.672l3.725,1.091c2.647.814,2.748,1.112,2.748,3.227v6.357c-1.334.261-3.857.287-5.491.047-8.746-1.278-11.157-7.72-11.157-14.476,0-3.799,1.276-7.246,4.174-10.045,2.071-2,5.237-3.815,10.054-3.642,2.096.078,4.512,1.081,5.343,1.66,2.396,1.666,2.956,3.631,3.592,6.049h6.198l-.028-9.51s-6.25-4.278-17.051-4.278c-8.579,0-25.45,3.569-25.45,20.342,0,10.296,8.649,18.333,23.688,19.096,10.366.523,17.391-2.536,17.391-2.536l-.011-9.064c0-2.114.104-2.413,2.747-3.227" style="fill: #fff;"/>
      <path d="M28.305,41.803c-1.803-.195-7.026-.25-7.026-.25l-21.279.009v4.656l3.571,1.101c2.895.936,2.895,1.212,2.895,3.34l.019,20.242c0,2.133,0,2.258-2.905,3.182L.02,75.104v4.682h24.299v-4.682l-3.56-1.021c-2.902-.923-2.902-1.049-2.902-3.182l.01-4.887h5.754c5.291-.081,9.573-.42,13.397-2.581,3.642-2.067,5.637-5.885,5.637-9.88,0-6.443-5.095-10.803-14.351-11.751M29.208,58.686c-.677.618-2.201,1.371-3.44,1.681-3.39.859-7.742.524-7.901.524v-14.376c2.871,0,7.888-.434,11.114,1.886,1.587,1.145,2.516,2.959,2.563,5.302.04,1.653-.57,3.469-2.336,4.983" style="fill: #fff;"/>
      <path d="M136.691,74.175c-2.163-.802-2.656-1.185-3.277-2.553l-15.1-30.044h-6.262l-16.888,30.623c-.611,1.153-1.164,1.424-2.579,1.926l-3.84,1.171v4.474h18.742v-4.584l-4.167-1.08c-.888-.22-.851-.812-.638-1.21,0,0,.543-1.036,1.361-2.595h15.685c.835,1.572,1.057,1.888,1.325,2.459.4.834-.376,1.21-1.357,1.487l-3.752,1.039v4.485h24.058v-4.402s-3.305-1.194-3.309-1.194M105.954,66.657c2.452-4.672,5.899-11.34,6.142-11.824.24.561,3.395,7.069,5.703,11.824h-11.845Z" style="fill: #fff;"/>
    </g>
  </g>
  <g>
    <path d="M124.788,42.147h-1.155v-.593h2.954v.593h-1.155v3.048h-.644v-3.048Z" style="fill: #fff;"/>
    <path d="M127.265,41.553h.682l1.108,1.722,1.108-1.722h.681v3.642h-.64v-2.611l-1.149,1.717h-.022l-1.139-1.707v2.601h-.63v-3.642Z" style="fill: #fff;"/>
  </g>
  <g>
    <polygon points="57.659 119.305 56.036 119.703 55.609 118.027 58.284 117.228 59.682 117.228 59.682 126.61 57.659 126.61 57.659 119.305" style="fill: #fff;"/>
    <path d="M62.197,125.665l1.077-1.557c.679.546,1.252.799,2.036.799,1.145,0,1.757-.865,1.89-2.116-.452.386-1.078.639-1.89.639-2.023,0-3.327-1.118-3.327-3.009v-.026c0-1.876,1.45-3.26,3.552-3.26,1.251,0,1.983.306,2.689,1.011.665.666,1.104,1.677,1.104,3.513v.026c0,3.021-1.423,5.084-4.072,5.084-1.357,0-2.275-.452-3.06-1.105M67.24,120.342v-.026c0-.825-.612-1.424-1.637-1.424-1.011,0-1.583.586-1.583,1.411v.026c0,.825.612,1.398,1.623,1.398s1.597-.586,1.597-1.384" style="fill: #fff;"/>
    <polygon points="72.748 119.305 71.125 119.703 70.698 118.027 73.373 117.228 74.771 117.228 74.771 126.61 72.748 126.61 72.748 119.305" style="fill: #fff;"/>
    <path d="M78.15,125.772c-.679-.679-1.105-1.676-1.105-3.526v-.027c0-2.874,1.304-5.084,4.086-5.084,1.264,0,2.089.373,2.914,1.025l-1.078,1.584c-.612-.466-1.104-.746-1.903-.746-1.158,0-1.743.932-1.876,2.156.465-.307,1.011-.599,1.929-.599,1.85,0,3.274,1.026,3.274,2.968v.026c0,1.903-1.53,3.22-3.553,3.22-1.211,0-2.036-.346-2.688-.998M82.354,123.642v-.026c0-.785-.612-1.358-1.623-1.358s-1.597.559-1.597,1.344v.026c0,.785.612,1.384,1.623,1.384s1.597-.572,1.597-1.371" style="fill: #fff;"/>
  </g>
  <g>
    <path d="M112.098,117.103c-1.163-.127-1.884-.134-4.371.323-2.151.478-3.394.959-4.136,1.353-.47-.658-4.454-5.92-8.144-10.839h-3.609l11.161,17.802.173.109c.16.095,1.649.94,5.906.854,2.665-.056,6.078-.742,6.265-.784,1.811-.472,2.862-4.111,3.23-5.653l.131-.555-.433-.362c-.098-.081-2.367-1.944-6.175-2.248Z" style="fill: #fff;"/>
    <path d="M27.902,117.103c1.163-.127,1.884-.134,4.371.323,2.151.478,3.394.959,4.136,1.353.47-.658,4.454-5.92,8.144-10.839h3.609s-11.161,17.802-11.161,17.802l-.173.109c-.16.095-1.649.94-5.906.854-2.665-.056-6.078-.742-6.265-.784-1.811-.472-2.862-4.111-3.23-5.653l-.131-.555.433-.362c.098-.081,2.367-1.944,6.175-2.248Z" style="fill: #fff;"/>
    <path d="M69.927,0c-7.168,0-13.002,5.835-13.002,13s5.834,12.999,13.002,12.999,13.004-5.828,13.004-12.999S77.098,0,69.927,0M63.575,19.053c-.81.002-1.419-.609-1.8-1.157-.425-.628-.697-1.387-.68-2.292v-.038c1.195.668,2.587,1.136,4.114,1.474-.081,1.032-.602,1.999-1.634,2.012M72.422,19.648c-.602.553-1.405.95-2.494.95s-1.909-.397-2.498-.95c-.606-.554-1.041-1.323-1.052-2.354,0-.024,0-.044.016-.044,2.132.362,4.981.333,7.086.017-.015,1.057-.454,1.826-1.059,2.38M78.137,17.851c-.386.569-.941,1.146-1.758,1.202-.403.025-.8-.141-1.072-.393-.398-.365-.592-.905-.668-1.62,1.533-.324,2.918-.793,4.113-1.465.013,0,.016.01.016.018.022.81-.206,1.633-.631,2.257M78.777,15.536c-.036-.576-.185-1.046-.472-1.423-.269-.365-.648-.674-1.213-.682-.921-.014-1.506.633-1.868,1.212-.421.672-.653,1.48-.604,2.397-.37.066-.777.168-1.14.198-.028-1.039-.458-1.817-1.059-2.373-.593-.546-1.418-.944-2.494-.944-1.085,0-1.884.404-2.491.944-.613.551-1.026,1.334-1.072,2.373-.396-.054-.783-.123-1.141-.21.046-1.555-.55-2.774-1.552-3.349-.6-.347-1.365-.294-1.837.112-.444.38-.697.978-.741,1.733-.058.019-1.611-1.34-1.982-1.833,0,0-.003-.002-.003-.009-.017-.223-.026-.45-.026-.682,0-5.978,4.867-10.843,10.844-10.843s10.843,4.865,10.843,10.843c0,.172,0,.346-.009.518-.255.409-.817,1.226-1.985,2.017M69.838,7.778c-.996.07-1.795.439-2.359,1.006-.529.535-.882,1.276-.972,2.135,2.15.229,4.706.201,6.835.016-.097-.952-.47-1.69-1.073-2.248-.512-.465-1.438-.973-2.431-.909M64.131,7.862c-.665-.192-1.302.159-1.656.475-.463.428-.795,1.052-.964,1.704,1.209.356,2.498.615,3.908.765.191-1.296-.236-2.631-1.288-2.944M76.017,7.808c-1.238.096-1.804,1.563-1.578,2.998,1.409-.15,2.714-.406,3.907-.765-.126-.531-.353-1.017-.681-1.413-.354-.421-.897-.88-1.648-.821" style="fill: #fff; fill-rule: evenodd;"/>
    <path d="M52.415,34.594l-13.881-25.047s-1.828-.384-3.525.522c-1.734.928-2.313,2.671-2.313,2.671l15.213,24.213c1.434-.889,2.94-1.677,4.506-2.359Z" style="fill: #fff;"/>
    <path d="M91.885,36.996l15.24-24.256s-.578-1.743-2.313-2.671c-1.696-.906-3.525-.522-3.525-.522l-13.911,25.101c2.426,1.041,3.965,1.989,4.508,2.348Z" style="fill: #fff;"/>
  </g>
</svg>