<svg xmlns="http://www.w3.org/2000/svg" viewBox="0 0 1000 1167.5"><title>PGA Logos</title><path d="M500,500l317.4,535.6a619.49,619.49,0,0,1-317.334,86.9c-1.128,0-2.27,0-3.4-.009a619.613,619.613,0,0,1-315.238-87.572L500,500m.1-88.106-38.759,65.08L142.768,1011.893l-23,38.627,38.605,23.04a664.608,664.608,0,0,0,338.059,93.93c1.211.007,2.434.01,3.641.01a664.475,664.475,0,0,0,340.312-93.211l38.654-22.956-22.92-38.677-317.4-535.6L500.1,411.894Z" style="fill:#b4975a"/><path d="M181.431,1034.919a623.137,623.137,0,0,0,635.972.679L500,500Z" style="fill:#00234b"/><path d="M236.427,980.915l17.84,9.04c10.387,5.3,13.616,14.7,9.078,23.665l-.036.093c-5.1,10.144-15.635,11.325-25.405,6.369l-7.267-3.667-6.663,13.077-9.584-4.884Zm6.022,30.738c4.856,2.414,9.037,1.028,10.924-2.745l.036-.094c2.2-4.3.352-8.119-4.469-10.626l-7.453-3.739-6.771,13.357Z" style="fill:#fff"/><path d="M276.227,1001.518l20.62,8.4c5.712,2.314,9.516,5.7,11.3,9.908,1.5,3.563,1.435,7.587-.341,11.908l-.036.092c-2.923,7.287-8.758,10.253-15.386,10.035l4.5,20.6-11.608-4.7-3.757-18.393-7.843-3.139-5.9,14.446-9.939-4.055Zm11.11,29.48c4.882,1.994,8.675.458,10.246-3.33l.036-.094c1.751-4.254-.316-7.734-5.234-9.635l-9.856-4.024-5.269,13.08Z" style="fill:#fff"/><path d="M311.507,1041.569l.037-.093c3.993-13.388,17.839-21.141,32.29-16.843,14.545,4.333,21.723,18.279,17.729,31.666l-.036.094c-3.993,13.387-17.839,21.14-32.291,16.843C314.691,1068.9,307.514,1054.956,311.507,1041.569Zm39.393,11.807.035-.092c2.344-7.977-1.509-16.34-9.67-18.755-8.254-2.45-15.818,2.346-18.162,10.324l-.035.092c-2.343,7.977,1.509,16.34,9.671,18.755S348.464,1061.318,350.9,1053.376Z" style="fill:#fff"/><path d="M375.911,1034.3l36.633,7.3-1.912,9.66-26.06-5.249-2.035,10.256,22.9,4.562-1.912,9.66-22.895-4.561-3.757,18.6-10.536-2.143Z" style="fill:#fff"/><path d="M419.111,1042.633l36.709,4.327-1.114,9.54-26.071-3-1.13,9.856,22.985,2.666-1.115,9.54-22.984-2.667-1.181,10.265,26.444,3.146-1.114,9.54-37.025-4.341Z" style="fill:#fff"/><path d="M458.262,1089.042l6.753-7.564c4.4,3.891,9,6.433,14.743,6.575,4.513.213,7.278-1.563,7.414-4.464l-.04.1c.1-2.784-1.5-4.27-9.782-6.712-9.926-2.969-16.261-5.96-15.867-15.688l-.07.183c.33-9.062,7.805-14.815,18.061-14.46a29.34,29.34,0,0,1,18.31,6.968l-5.969,8.086c-4.339-3.209-8.607-5.187-12.8-5.385-4.227-.1-6.442,1.667-6.622,4.114l.037-.1c-.056,3.235,2.007,4.358,10.48,6.874,9.926,2.968,15.518,6.758,15.2,15.432l.074-.191c-.339,9.933-8.084,15.254-18.853,14.81A31.3,31.3,0,0,1,458.262,1089.042Z" style="fill:#fff"/><path d="M504.389,1090.5l6.037-7.851c4.553,3.475,9.331,5.536,14.881,5.323,4.38-.237,7-2.013,6.851-4.964l-.058-.129c-.124-2.728-1.867-4.045-10.077-5.825-10-2.15-16.47-4.544-16.9-14.252l-.058-.129c-.4-8.946,6.473-15.081,16.5-15.494a28.559,28.559,0,0,1,18.486,5.43l-5.27,8.362c-4.489-2.807-8.78-4.466-12.937-4.25s-6.214,2.208-6.132,4.491l.057.129c.131,3.267,2.24,4.19,10.86,6.021,10,2.149,15.793,5.461,16.116,14.056l.057.129c.429,9.708-6.746,15.511-17.308,15.931A31.409,31.409,0,0,1,504.389,1090.5Z" style="fill:#fff"/><path d="M549.666,1046.034l10.721-1.109,5.044,48.8-10.721,1.109Z" style="fill:#fff"/><path d="M573.033,1068.79l-.057-.129c-2.425-13.7,6.428-26.892,21.273-29.516s27.487,6.551,30,20.283l.057.129c2.425,13.7-6.428,26.891-21.272,29.516C588.1,1091.661,575.459,1082.485,573.033,1068.79Zm40.2-7.191-.057-.129c-1.509-8.3-8.8-14.123-17.325-12.594s-13.262,9.347-11.847,17.613l.057.13c1.508,8.3,8.8,14.122,17.324,12.593C610,1077.719,614.645,1069.865,613.23,1061.6Z" style="fill:#fff"/><path d="M626.868,1033.528l9.532-2.748,30.331,22.768-8.286-29.041,10.236-2.905,13.418,47.106-8.792,2.5-31.343-23.48,8.558,30-10.236,2.9Z" style="fill:#fff"/><path d="M692.956,1012.331l9.168-3.747,38.009,37.85-10.425,4.226L721.4,1042.2l-19.2,7.8.009,11.9-10.166,4.111Zm21.357,22.407-11.99-12.247-.079,17.124Z" style="fill:#fff"/><path d="M727,998.582l9.658-4.737,17.4,35.138,21.88-10.84,4.336,8.752-31.537,15.576Z" style="fill:#fff"/><path d="M834.608,1025.4l-317.4-535.6-17.163-28.962-17.226,28.924-318.57,534.919-10.224,17.167,17.158,10.241a639.627,639.627,0,0,0,325.381,90.4c1.166.006,2.344.009,3.508.009a639.486,639.486,0,0,0,327.545-89.706l17.18-10.2ZM500.07,1122.5c-1.128,0-2.271,0-3.4-.009a619.613,619.613,0,0,1-315.238-87.572L357.7,738.949,232.647,948.92a522.956,522.956,0,0,0,533.727.57L500,500h0l317.4,535.6A619.489,619.489,0,0,1,500.07,1122.5Z" style="fill:#fff"/><path d="M970.4,505.6c0,263.1-213.3,476.3-476.3,476.3C231,982,17.7,768.7,17.7,505.6S231,29.3,494,29.3c263.1,0,476.4,213.3,476.4,476.3Z" style="fill:#fff"/><path d="M500,0C224.3,0,0,224.3,0,500s224.3,500,500,500,500-224.3,500-500S775.8,0,500,0Z" style="fill:#b4975a"/><path d="M499.8,45.8c-250.9,0-455,204.1-455,455s204.1,455,455,455,455-204.1,455-455-204.1-455-455-455Z" style="fill:#00234b"/><path d="M500,834.5c183.3,0,332.4-149.1,332.4-332.4S683.3,169.7,500,169.7c-183.2,0-332.4,149.1-332.4,332.4.1,183.2,149.2,332.4,332.4,332.4Z" style="fill:#b4975a"/><path d="M527.2,230.9c-5.9.5-8.6,7.5-7.6,14.4a101.506,101.506,0,0,0,18.7-3.7,16.61,16.61,0,0,0-3.3-6.8c-1.6-2-4.2-4.2-7.8-3.9Zm-56.9.2c-3.2-.9-6.2.8-7.9,2.3a17.546,17.546,0,0,0-4.6,8.2,104.951,104.951,0,0,0,18.7,3.7c.8-6.3-1.2-12.7-6.2-14.2Zm27.3-.4a16.311,16.311,0,0,0-16,15,179.684,179.684,0,0,0,32.8.1,16.1,16.1,0,0,0-16.8-15.1Zm43.25,37.2a12.022,12.022,0,0,0-2.3-6.8,7.237,7.237,0,0,0-5.8-3.3c-4.4-.1-7.2,3-9,5.8a19.748,19.748,0,0,0-2.9,11.5,52.491,52.491,0,0,1-5.5.9,15.485,15.485,0,0,0-5.1-11.4,18.117,18.117,0,0,0-23.9,0,15.313,15.313,0,0,0-5.1,11.4,48.563,48.563,0,0,1-5.5-1c.2-7.5-2.6-13.3-7.4-16a7.811,7.811,0,0,0-8.8.5c-2.1,1.8-3.3,4.7-3.5,8.3-.3.1-7.7-6.4-9.5-8.8h0c-.1-1.1-.1-2.2-.1-3.3a52,52,0,0,1,104,0v2.5a33.116,33.116,0,0,1-9.6,9.7ZM537.4,279c-1.8,2.7-4.5,5.5-8.4,5.7a7.182,7.182,0,0,1-5.1-1.9c-1.9-1.7-2.8-4.3-3.2-7.8a70.441,70.441,0,0,0,19.7-7c.1,0,.1,0,.1.1a20.126,20.126,0,0,1-3.1,10.9ZM510,287.6a16.838,16.838,0,0,1-12,4.6,17.016,17.016,0,0,1-12-4.6,15.258,15.258,0,0,1-5.1-11.3c0-.1,0-.2.1-.2a121.029,121.029,0,0,0,34,.1,15.059,15.059,0,0,1-5,11.4Zm-42.65-2.9c-3.9,0-6.8-2.9-8.6-5.5a19.356,19.356,0,0,1-3.3-11V268a75.089,75.089,0,0,0,19.7,7.1c-.4,4.9-2.9,9.6-7.8,9.6ZM498,193.5a62.3,62.3,0,1,0,62.3,62.3A62.374,62.374,0,0,0,498,193.5Z" style="fill:#00234b;fill-rule:evenodd"/><path d="M714.5,698.4c-.6-.5-13.2-10.9-34.6-12.6-6.5-.7-10.5-.7-24.4,1.8-12,2.7-19,5.4-23.1,7.6-3.7-5.2-46.3-61.3-68.5-91.4-4.3,1.1-9.2,2.2-14.5,3.2l79.7,127.2,1,.6c.9.5,9.2,5.3,33.1,4.8,14.9-.3,34-4.2,35.1-4.4,10.1-2.6,16-23,18.1-31.6l.7-3.1-2.6-2.1Zm-346.1-3.2c-4.1-2.2-11.1-4.9-23.1-7.6-13.9-2.6-17.9-2.5-24.5-1.8-21.3,1.7-34,12.1-34.6,12.6l-2.4,2,.7,3.1c2.1,8.6,7.9,29,18.1,31.6,1,.2,20.1,4.1,35.1,4.4,23.8.5,32.2-4.3,33.1-4.8l1-.6L454,603c-4.5-1.4-8.9-2.9-13.1-4.6-20.7,28.3-68.6,91.3-72.5,96.8ZM594.1,415.4,694.8,284.6a28.982,28.982,0,0,0-11.6-16.2c-9.1-6-19.5-4.8-19.5-4.8L568.6,402.8a121.47,121.47,0,0,1,24.5,11.9l1,.7Zm-159.2-8.6L337.2,263.6s-10.5-1.2-19.6,4.8A28.982,28.982,0,0,0,306,284.6L410.8,421.5a125.206,125.206,0,0,1,24.1-14.7Z" style="fill:#00234b"/><path d="M514.07,392.714a204.154,204.154,0,0,1,21.38-48.783V330.38a597.556,597.556,0,0,1-80,0v13.551a220.335,220.335,0,0,1,20.979,50.489,185.468,185.468,0,0,1,26.9-1.907c3.714-.1,7.327,0,10.74.2Z" style="fill:#00234b"/><path d="M484.45,753.1a13.241,13.241,0,0,1-6.4,1.9c-3.8,0-7.4-1.3-7.4-10.5,0-4.2,1.1-9.3,6.3-9.3,5,0,7.5,5.5,7.5,16.4v1.5ZM474.1,728.6c-13.5,0-21.5,6.8-21.5,18.3,0,10,6.7,16.4,17.2,16.4a22.927,22.927,0,0,0,11.4-3.2c-.9,10.6-7.8,18-17.9,18a17.84,17.84,0,0,1-7-1.4l-1.7-.6-2,5.6,1.5.6a31.806,31.806,0,0,0,13.4,2.7c17.5,0,29.2-13.3,29.2-33,.1-15.1-8-23.4-22.6-23.4Z" style="fill:#00234b"/><path d="M564.15,779c-3.8,0-7.7-2-7.7-16.6V761a12.327,12.327,0,0,1,6.3-1.8c3.2,0,7.5,1.1,7.5,10,0,6.5-2.1,9.8-6.1,9.8Zm4.95-28.1a23.233,23.233,0,0,0-11.5,3.1c1.2-11.5,7.6-18.5,18-18.5a18.6,18.6,0,0,1,6.9,1.2l1.6.5,2.2-5.4-1.7-.7a34.868,34.868,0,0,0-13.5-2.4c-17.7,0-29,13.1-29,33.3,0,15.5,7.7,23.4,22.9,23.4,13.1,0,21.2-6.9,21.2-18-.1-9.8-7.1-16.5-17.1-16.5Z" style="fill:#00234b"/><path d="M500,834.5c-183.2,0-332.4-149.1-332.4-332.4S316.7,169.7,500,169.7,832.4,318.8,832.4,502.1c0,183.2-149.1,332.4-332.4,332.4Zm-.2-683.4C307,151.1,150.1,308,150.1,500.8S307,850.5,499.8,850.5,849.5,693.6,849.5,500.8c.1-192.9-156.9-349.7-349.7-349.7Z" style="fill:#fff"/><path d="M499.8,955.8c-250.9,0-455-204.1-455-455s204.1-455,455-455,455,204.1,455,455-204.1,455-455,455Zm.2-929C239.1,26.8,26.8,239,26.8,500c0,260.9,212.3,473.2,473.2,473.2S973.2,760.9,973.2,500C973.3,239,761,26.8,500,26.8Z" style="fill:#fff"/><path d="M284.6,840l-.1.1c-4.7,7.1-13.6,9.4-20.9,4.5s-8.5-14.2-3.8-21.3l.1-.1c4.7-7,13.7-9.4,20.9-4.5,7.4,4.9,8.6,14.3,3.8,21.3Zm2-29.5c-12.7-8.5-28.3-5.2-36.2,6.5l-.1.1c-7.9,11.7-5.1,27.2,7.5,35.7,12.7,8.5,28.3,5.2,36.2-6.5l.1-.1c7.9-11.6,5.2-27.2-7.5-35.7Z" style="fill:#fff"/><polygon points="299.2 876.8 309.1 881.5 317.3 864.2 338.6 874.3 342.8 865.3 321.5 855.2 326 845.7 350.2 857.1 354.4 848.2 320.3 832.1 299.2 876.8" style="fill:#fff"/><path d="M403,893.4l9.9-14.2,3,17.1L403,893.4Zm8-28.1-31.5,44.1,10.9,2.4,6.8-9.9,20.4,4.5,2,11.8,11.1,2.5-10-53.2-9.7-2.2Z" style="fill:#fff"/><polygon points="476.2 895.558 464.4 874.058 452.7 873.358 450 922.758 460.7 923.358 462.4 891.258 475 912.958 475.3 912.958 490.3 892.658 488.6 924.858 499.4 925.458 502.1 876.058 490.3 875.458 476.2 895.558" style="fill:#fff"/><polygon points="532.7 914.2 531.7 903.9 554.9 901.6 554 892 530.8 894.2 529.8 884.2 556.2 881.7 555.2 872 518.1 875.7 522.9 924.9 560.4 921.2 559.4 911.6 532.7 914.2" style="fill:#fff"/><path d="M597.05,887.7l-10.7,2.6-3.3-13.8,10.4-2.5c5.2-1.2,8.9.3,10,4.8v.2c1,4-1.2,7.5-6.4,8.7Zm16.75-11.642-.1-.1a15.947,15.947,0,0,0-6.8-10c-3.9-2.4-9.1-3-15.2-1.4l-22,5.3,11.7,48.1,10.6-2.6-3.8-15.4,8.2-2h.2l14,12.9,12.4-3-15.9-14.3c5.6-3.8,8.6-9.7,6.7-17.5Z" style="fill:#fff"/><polygon points="625.3 854.2 642.4 900.5 652.6 896.8 635.5 850.4 625.3 854.2" style="fill:#fff"/><path d="M691.35,869.1c-7.6,3.8-16,.2-19.9-7.4v-.1c-3.9-7.6-1.6-16.5,5.8-20.2,4.4-2.2,8.8-2.1,13.8-.7l2.6-10.3c-6.2-2-12.5-2.2-20.9,2-13.5,6.9-17.8,21.9-11.4,34.5l.1.2a24.9,24.9,0,0,0,34.1,11.2c8.5-4.3,12-9.9,14.1-17.1l-9.4-3.1c-1.8,4.9-3.8,8.5-8.9,11Z" style="fill:#fff"/><path d="M742.1,824.2l-10.7,7.7-4-16.9,14.7,9.2Zm-26.3-16.9,11.8,52.9,9-6.5-2.8-11.6,17-12.2,10.1,6.4,9.2-6.6-46.3-28.1-8,5.7Z" style="fill:#fff"/><path d="M171.2,756.5l-5.1-6.7c-3.3-4.4-3.3-8.7.6-11.6l.1-.1c3.4-2.6,7.9-2,11.2,2.3l5.2,6.9-12,9.2ZM191,741.4l-5-6.6c-6.8-8.9-16.9-12.4-26.1-5.4l-.1.1c-8.1,6.1-9.3,16.1-2.2,25.5l12.3,16.2,39.5-30.1-6.6-8.7-11.8,9Z" style="fill:#fff"/><path d="M137.7,707.1l-5.2-9.5c-2.6-4.7-2-8.7,2.1-11l.1-.1c3.6-2,7.6-.7,10.2,3.9l5.3,9.7-12.5,7Zm34.9-19.2-13.9,7.7-4.1-7.4-.1-.1,8.8-17-6.2-11.2-9.7,19.2c-5.1-4.4-11.6-5.8-18.6-1.9l-.1.1c-4.1,2.3-6.8,5.5-7.9,9.2-1.3,4.4-.5,9.6,2.6,15.1l10.9,19.9,43.6-23.9-5.3-9.7Z" style="fill:#fff"/><path d="M124.332,645.958c-7.986,2.761-16.366-.69-19.225-8.873s1.676-16.267,9.662-19.127h.1c7.887-2.76,16.366.69,19.225,8.874s-1.676,16.267-9.662,19.126Zm4.1,11c13.353-4.719,20.582-18.875,15.461-33.433s-19.678-21.286-33.132-16.567h-.1c-13.353,4.719-20.582,18.876-15.461,33.434s19.678,21.285,33.132,16.566Z" style="fill:#fff"/><polygon points="129 572 110.1 575.4 105.9 552 96.2 553.8 100.3 577.1 89.9 579 85.2 552.5 75.4 554.2 82 591.5 130.9 582.8 129 572" style="fill:#fff"/><polygon points="121.6 492.6 111.8 493 112.8 519.9 102.4 520.3 101.6 496.9 91.9 497.3 92.7 520.7 82.6 521 81.7 494.4 72 494.7 73.3 532.2 122.9 530.4 121.6 492.6" style="fill:#fff"/><path d="M86.549,476.958h.1c9.657-2.266,13.007-8.376,16.555-17.835,2.956-7.982,4.533-9.46,7.193-9.165h.955c2.873.3,4.36,3.072,3.864,7.532-.594,5.549-3.369,10.009-7.432,13.973l6.937,7.135a31.647,31.647,0,0,0,10.009-20.018c1.09-10.6-3.568-18.532-13.279-19.622h-.394c-8.672-.907-12.908,4.437-16.639,14.219-3.126,8.37-4.437,10.386-7.663,9.781h-.2c-2.42,0-4.135-2.42-3.63-6.554.4-4.236,2.722-8.37,6.252-12.5l-7.664-6.555a29.559,29.559,0,0,0-8.269,17.849c-1.109,10.185,4.134,18.05,13.21,18.958v2.806Z" style="fill:#fff"/><path d="M94.2,418.958h-.165c9.786,2.345,14.068-3.364,18.961-12.64,4.18-7.646,6.015-9.073,8.665-8.36h.233c2.593.648,3.611,3.426,2.593,7.5-1.3,5.093-4.352,8.8-8.7,12.037l5.556,7.5A29.2,29.2,0,0,0,133.1,407.773c2.315-9.629-1.019-17.592-9.907-19.815h-.558c-8.293-2.073-13.131,2.567-17.968,11.65-4.147,7.7-5.627,9.478-8.787,8.787l-.2-.1c-2.271-.592-3.653-3.061-2.666-7.108.987-3.949,3.752-7.7,7.7-11.255l-6.516-7.4a28.337,28.337,0,0,0-10.366,16.191c-2.271,9.774,1.678,18.067,10.366,20.239Z" style="fill:#fff"/><polygon points="146.6 365.2 99.9 348.2 96.2 358.4 142.8 375.4 146.6 365.2" style="fill:#fff"/><path d="M128.3,307.5c4.1-7.9,13.2-10.1,20.8-6.2l.1.1c7.5,3.9,10.9,12.5,6.8,20.3s-13.2,10.1-20.8,6.2l-.1-.1c-7.5-4-10.9-12.6-6.8-20.3ZM130,338l.2.1c12.5,6.5,27.7,2,34.8-11.6s1.9-28.8-10.6-35.3l-.1-.1c-12.5-6.5-27.7-2-34.8,11.6-7.2,13.5-2,28.8,10.5,35.3Z" style="fill:#fff"/><polygon points="191.542 279.792 167.139 259.958 205.736 259.958 211.181 253.931 172.778 224.667 166.458 233.028 190.083 252.958 152.75 252.958 146.82 258.889 185.222 288.056 191.542 279.792" style="fill:#fff"/><path d="M230.9,205.6l-9.6,9L215,198.4l15.9,7.2Zm-1.5,30-4.3-11.2L240.4,210l11,5,8.3-7.8-49.8-21.8-7.3,6.9,18.8,51,8-7.7Z" style="fill:#fff"/><polygon points="300.4 178.5 294.8 170.3 274.4 184.5 251.8 151.8 242.8 158 271.1 198.8 300.4 178.5" style="fill:#fff"/><path d="M326.3,136.1c5.5,13.6,19.4,19.7,33.8,13.9a32.235,32.235,0,0,0,16.7-15.2l-8.1-20-20,8.1,3.5,8.8,10.2-4.1,2.7,6.6a16.949,16.949,0,0,1-8.5,6.6c-8.2,3.3-16.5-.6-19.8-9l-.1-.1c-3.2-7.8.1-16.7,7.5-19.7,5.3-2.1,9.2-1.7,13.9-.2l3.3-10.3c-6.4-2.1-12.4-2.4-20.6,1-14,5.6-19.9,20.4-14.6,33.5l.1.1Z" style="fill:#fff"/><path d="M410.634,91.856c8.512-1.782,16.034,3.761,17.816,11.976v.1c1.782,8.215-2.672,16.232-11.184,18.013s-16.034-3.761-17.816-11.976v-.2c-1.782-8.116,2.672-16.133,11.184-17.914ZM388.45,112.643c3.023,13.907,16.225,22.876,31.341,19.652s23.682-16.931,20.659-30.838v-.1c-3.023-13.907-16.225-22.876-31.341-19.652s-23.682,17.031-20.659,30.838v.1Z" style="fill:#fff"/><polygon points="497 122.4 496.5 112.5 471.7 113.8 469.5 74.2 458.6 74.7 461.4 124.4 497 122.4" style="fill:#fff"/><polygon points="524.1 104.5 547.7 106.3 548.5 96.4 524.9 94.5 525.7 84 552.5 86.2 553.3 76.2 515.6 73.2 511.6 122.7 522.5 123.6 524.1 104.5" style="fill:#fff"/><polygon points="603.4 127.1 577 121.1 579.3 111 602.2 116.1 604.3 106.6 581.5 101.5 583.7 91.6 609.6 97.5 611.8 88 575.2 79.8 564.3 128.2 601.2 136.6 603.4 127.1" style="fill:#fff"/><path d="M641.3,108.2l10.1,4c4.9,1.9,7.1,5.4,5.4,9.7l-.1.2c-1.5,3.9-5.4,5.4-10.3,3.5l-10.3-4,5.2-13.4Zm-8.55,22.658,7.9,3.1h.1l4.2,18.6,11.9,4.7-4.9-20.9c6.7.1,12.6-3,15.5-10.5v-.1a16.132,16.132,0,0,0,.2-12.2c-1.9-4.2-5.8-7.7-11.7-10l-21.1-8.2-18,46.3,10.2,4,5.7-14.8Z" style="fill:#fff"/><path d="M684.75,173c9.3,5.3,18.6,4.2,23.5-4.3l.1-.1c4.3-7.5,1.2-13.5-6.3-20.8-6.4-6.1-7.7-8.1-6.1-11l.1-.1c1.2-2.1,4.1-2.7,7.7-.6,3.7,2.1,6.5,5.8,8.8,10.7l9-4.3a28.865,28.865,0,0,0-12.9-14.6c-8.8-5-18-3.4-22.5,4.4l-.1.1c-4.8,8.6-.6,14.2,6.8,21.4,6.2,5.9,7,8,5.6,10.4v.1c-1.5,2.5-4.7,2.7-8.6.5-4.9-2.8-7.8-7.2-9.9-12.6l-9.5,3.5a31.2,31.2,0,0,0,14.3,17.3Z" style="fill:#fff"/><path d="M745.7,164.1l5.6-7.8-9.3-6.7-6.6,9.2,3.6,2.6c-2,3.5-5.5,4.1-9.7,1.6l-1.9,4.2c6.9,4.9,12.9,4.5,18.3-3.1Z" style="fill:#fff"/><path d="M798.5,215.1,791.3,231l-9.1-9.6,16.3-6.3Zm-26,10.1,14.4,15.3-5,11,7.9,8.3,21.7-49.9-6.9-7.3-51,18.9,7.7,8.1,11.2-4.4Z" style="fill:#fff"/><path d="M801.7,264.758a32.16,32.16,0,0,0,5.5,21.9c6.1,8.8,15,11.8,23.1,6.2l.1-.1c7.1-5,6.8-11.7,3.2-21.4-3.1-8.3-3.5-10.7-.8-12.5l.1-.1c2-1.4,4.8-.7,7.2,2.8,2.4,3.4,3.4,8,3.4,13.4l10-.1a28.242,28.242,0,0,0-5.4-18.8c-5.8-8.3-14.8-10.8-22.2-5.7l-.1.1c-8.1,5.6-6.7,12.5-3.1,22.2,3,8,2.8,10.2.6,11.8l-.1.1c-2.4,1.7-5.4.5-8-3.2-3.3-4.7-4-9.9-3.6-15.6l-9.9-1Z" style="fill:#fff"/><path d="M850.7,317.4c1.8,8.4,1.4,10.5-1.1,11.8l-.1.1c-2.6,1.3-5.4-.3-7.4-4.3-2.6-5-2.7-10.3-1.4-15.9l-9.8-2.2a31.873,31.873,0,0,0,2.5,22.4c4.9,9.6,13.2,13.7,22,9.2l.2-.1c7.7-4,8.3-10.6,6.1-20.8-1.9-8.6-2-11,.9-12.5l.1-.1c2.1-1.1,4.8,0,6.8,3.7,1.9,3.7,2.2,8.4,1.5,13.7l9.9,1.3a28.845,28.845,0,0,0-2.8-19.3c-4.6-9-13.2-12.8-21.2-8.7l-.1.1c-8.8,4.5-8.3,11.5-6.1,21.6Z" style="fill:#fff"/><path d="M875.422,360.958c8.242-2.747,16.891,1.018,19.639,9.565,2.747,8.446-2.137,16.79-10.379,19.435h-.2c-8.242,2.748-16.891-1.017-19.639-9.565s2.137-16.789,10.379-19.435Zm-3.706-11c-13.373,4.392-20.858,18.364-16.167,32.835,4.79,14.571,19.161,21.557,32.535,17.165h.1c13.374-4.391,20.859-18.363,16.168-32.834-4.69-14.571-19.162-21.557-32.535-17.166Z" style="fill:#fff"/><path d="M891.989,417.958h-.1c-13.726,2.045-23.071,14.115-21.027,28.133,1.363,9.248,5.451,14.213,11.487,18.4l5.743-7.69c-3.991-3.212-6.717-6.327-7.5-11.779-1.266-8.177,4.77-14.894,12.947-16.062h.1c8.177-1.265,15.77,3.6,16.938,11.682.681,4.77-.779,8.858-3.6,13.044l8.761,5.549c3.7-5.062,5.938-10.9,4.575-19.956-2.044-14.7-14.7-23.266-28.327-21.319Z" style="fill:#fff"/><polygon points="874.7 493.5 924.4 492 924.1 481.1 874.4 482.5 874.7 493.5" style="fill:#fff"/><path d="M894.4,529.5l15.4,8-16.6,5.1,1.2-13.1Zm-19.9-10.3,10.7,5.6-1.9,20.9-11.5,3.5-1.1,11.4L922.5,544l.9-10.1-47.8-25.8-1.1,11.1Z" style="fill:#fff"/><polygon points="904.8 588.3 866.2 579.3 863.8 590 902.3 598.9 898.9 613.7 908.7 615.9 918 575.8 908.2 573.5 904.8 588.3" style="fill:#fff"/><polygon points="851.7 629.5 898.5 646 902.1 635.6 855.3 619.1 851.7 629.5" style="fill:#fff"/><path d="M870.6,687.358c-4,7.9-13.1,10.2-20.7,6.4l-.1-.1c-7.6-3.8-11.1-12.4-7.1-20.3s13.1-10.2,20.8-6.4h.1c7.5,4,11,12.5,7,20.4Zm-2.1-31.4h-.1c-12.6-6.4-27.8-1.7-34.7,11.9-6.9,13.7-1.6,28.9,11,35.2l.1.1c12.6,6.4,27.8,1.7,34.7-12,6.9-13.6,1.6-28.8-11-35.2Z" style="fill:#fff"/><polygon points="807.664 715.625 832.261 738.958 793.664 738.958 788.219 741.681 827.011 770.458 833.233 762.097 809.414 745.958 846.747 745.958 852.581 736.042 813.886 707.264 807.664 715.625" style="fill:#fff"/><path d="M583.807,524.858l16.643-4.7v-20.2h-102v20.285l16.7,4.743c11.9,3.532,12.3,4.844,12.3,14.027v27.551c-6,1.11-17.3,1.211-24.6.2-39.2-5.551-50-33.5-50-62.771,0-16.449,5.7-31.385,18.7-43.6,9.3-8.679,23.5-16.551,45-15.844,9.4.3,20.2,4.642,23.9,7.165,10.7,7.266,13.2,15.743,16.1,26.238h21.9V434.5c1.05,0-25.95-18.5-72.65-18.5-37.1,0-110,15.4-110,87.9,0,44.5,37.4,79.2,102.4,82.5,44.8,2.3,73.25-10.9,73.25-10.9V538.758c.1-9.1.5-10.4,12.357-13.9Z" style="fill:#fff"/><path d="M330.45,492.9c-2.9,2.7-9.5,5.9-14.9,7.3-14.6,3.7-33.5,2.3-34.1,2.3V440.4c12.4,0,34.1-1.9,48,8.2,6.9,4.9,10.9,12.8,11.1,22.9.2,7-2.4,14.8-10.1,21.4Zm-1.8-71.84c-8.1-.9-31.5-1.1-31.5-1.1h-95.7v20.7l16,4.9c13,4.2,13,5.4,13,14.9l.1,87.9c0,9.2,0,9.8-13.1,13.8l-16,4.4v19.4h109V567.329l-16-4.308c-13-3.907-13-4.408-13-13.425l.1-20.638h26.1c23.7-.4,42.9-1.9,60.1-11.521a50.14,50.14,0,0,0,25.3-43.98c0-28.753-22.9-48.189-64.4-52.4Z" style="fill:#fff"/><path d="M662.2,527.958c10.6-20.2,25.5-49,26.5-51.1,1,2.4,14.7,30.6,24.6,51.1ZM795.91,561.6c-9.526-3.508-11.732-5.212-14.44-11.227L715.087,418.958H687.734L613.6,552.9c-2.705,5.009-5.11,6.211-11.321,8.415l-16.83,5.109v19.535h80V565.149L647.8,560.218c-3.768-.987-3.57-3.65-2.678-5.523,0,0,2.281-4.734,5.753-11.737h66.644c3.57,7.1,4.463,8.581,5.653,11.145,1.686,3.748-1.587,5.523-5.752,6.706l-15.967,4.734v20.415h109V566.712c0,.1-14.54-5.112-14.54-5.112Z" style="fill:#fff"/><path d="M531.112,777.35c-3.372-.9-3.565-1-3.661-5.409V753.958h0v-30h-4.472L506.45,739.865v6.66l6.806-5.567h.194v30.983c-.1,4.408-.289,4.508-3.661,5.409l-3.339.608v4h28v-4Z" style="fill:#00234b"/><path d="M441.139,777.35c-3.372-.9-3.565-1-3.661-5.409V753.958h0v-30h-4.472l-16.528,15.907v6.66l6.806-5.567h.194v30.983c-.1,4.408-.289,4.508-3.661,5.409l-3.339.608v4h28v-4Z" style="fill:#00234b"/><path d="M832.907,913.65h1.3c2.314-.082,5.207-.372,5.207-2.686,0-2.6-3.182-2.6-4.918-3.1h-1.591v5.786m-5.786-8.679h7.088c4.05-.082,9.836-.082,9.836,5.7,0,4.339-4.34,5.5-5.5,5.5h0c1.736.579,2.315,1.157,5.5,6.654l1.157,2.4h-5.5l-.867-2.108c-2.893-5.786-3.761-6.653-5.931-6.364v8.472h-5.786Zm-6.22,10.043a15.333,15.333,0,1,0,15.333-15.333A15.249,15.249,0,0,0,820.9,915.014Zm34.137,0a18.8,18.8,0,1,1-18.8-18.8c10.125-.289,18.8,8.389,18.8,18.8" style="fill:#b7955a"/></svg>